<?xml version="1.0" encoding="UTF-8"?>
<!DOCTYPE svg PUBLIC "-//W3C//DTD SVG 1.1//EN" "http://www.w3.org/Graphics/SVG/1.1/DTD/svg11.dtd">
<!-- Created HDS 2004.1a -->


<svg xmlns="http://www.w3.org/2000/svg" xmlns:xlink="http://www.w3.org/1999/xlink" version="1.1">
<script xlink:href="../../scripts/SVGPan.js" />
<g id="viewport" transform="translate(0,-100)">


<title>SVG Image</title>
<desc></desc>


<defs>
<!-- section for CSS stylesheet definitions -->
<style type="text/css"><![CDATA[
.allText {font-family:Sans-Serif;fill:darkcyan;}
.subTitleText {font-size:20;font-weight:bold;}
.normalText {font-size:15;}
.smallText {font-size:12;}
.boldText {font-weight:bold;}
.rightText {text-anchor:end;}
.centerText {text-anchor:middle;}
.dragRect {fill:darkcyan;stroke:none;opacity:0.4;}
]]></style>
<symbol id="upArrow" overflow="visible" style="stroke:darkcyan;fill:darkcyan;stroke-width:1;" pointer-events="none">
<polygon points="5,0 10,5 0,5 5,0" />
</symbol>
<symbol id="leftArrow" overflow="visible" style="stroke:darkcyan;fill:darkcyan;stroke-width:1;" pointer-events="none">
<polygon points="0,5 5,0 5,10 0,5" />
</symbol>
<symbol id="rightArrow" overflow="visible" style="stroke:darkcyan;fill:darkcyan;stroke-width:1;" pointer-events="none">
<polygon points="5,0 10,5 5,10 5,0" />
</symbol>
<symbol id="downArrow" overflow="visible" style="stroke:darkcyan;fill:darkcyan;stroke-width:1;" pointer-events="none">
<polygon points="0,0 5,5 10,0 0,0" />
</symbol>

</defs>
<svg id="mainMap" x="0" y="150" viewBox="0 0 917 604" width="912" height="512">


<clipPath id="SVG_Clip">
<rect x="0" y="0" width="917" height="604" />
</clipPath>
<g id="hds_models" style="clip-path:url(#SVG_Clip)">
<circle id="r0"  stroke="rgb(0,255,255)" fill="rgb(0,255,255)" stroke-width="1px" stroke-dasharray="" cx="438" cy="212" r="37"/> 
<circle stroke="rgb(0,127,191)" fill="none" stroke-width="3px" stroke-dasharray="" cx="438" cy="212" r="37"/> 
<polyline id="r0"  stroke="rgb(255,255,0)" fill="rgb(255,255,0)" stroke-width="1px" stroke-dasharray="" points="41, 143,59, 143,69, 149,59, 156,41, 156,41, 143" /> 
<polyline id="r0"  stroke="rgb(0,0,0)" fill="none" stroke-width="1px" stroke-dasharray="" points="41, 143,59, 143,69, 149,59, 156,41, 156,41, 143" /> 
<path stroke="rgb(0,0,0)" fill="none" stroke-width="1px" stroke-dasharray="" transform="translate(45,149) rotate(0.000000)"
d="M 1.27840 1.53808 A 2 2 0 1 1 1.27840 -1.53808 " /> 
<polyline id="r0"  stroke="rgb(255,255,0)" fill="rgb(255,255,0)" stroke-width="1px" stroke-dasharray="" points="41, 143,59, 143,69, 149,59, 156,41, 156,41, 143" /> 
<polyline id="r0"  stroke="rgb(0,0,0)" fill="none" stroke-width="1px" stroke-dasharray="" points="41, 143,59, 143,69, 149,59, 156,41, 156,41, 143" /> 
<polyline id="r0"  stroke="rgb(0,0,0)" fill="none" stroke-width="1px" stroke-dasharray="" points="52, 153,56, 153,56, 146,59, 146" /> 
<path stroke="rgb(0,0,0)" fill="none" stroke-width="1px" stroke-dasharray="" transform="translate(45,149) rotate(0.000000)"
d="M 1.27840 1.53808 A 2 2 0 1 1 1.27840 -1.53808 " /> 
<polyline id="r0"  stroke="rgb(255,255,0)" fill="rgb(255,255,0)" stroke-width="1px" stroke-dasharray="" points="41, 256,59, 256,69, 262,59, 268,41, 268,41, 256" /> 
<polyline id="r0"  stroke="rgb(0,0,0)" fill="none" stroke-width="1px" stroke-dasharray="" points="41, 256,59, 256,69, 262,59, 268,41, 268,41, 256" /> 
<polyline id="r0"  stroke="rgb(255,255,0)" fill="rgb(255,255,0)" stroke-width="1px" stroke-dasharray="" points="41, 256,59, 256,69, 262,59, 268,41, 268,41, 256" /> 
<polyline id="r0"  stroke="rgb(0,0,0)" fill="none" stroke-width="1px" stroke-dasharray="" points="41, 256,59, 256,69, 262,59, 268,41, 268,41, 256" /> 
<polyline id="r0"  stroke="rgb(0,0,0)" fill="none" stroke-width="1px" stroke-dasharray="" points="59, 266,56, 266,56, 258,52, 258" /> 
<polyline id="r0"  stroke="rgb(0,0,0)" fill="none" stroke-width="1px" stroke-dasharray="" points="44, 260,45, 260" /> 
<polyline id="r0"  stroke="rgb(0,0,0)" fill="none" stroke-width="1px" stroke-dasharray="" points="44, 264,44, 260" /> 
<polyline id="r0"  stroke="rgb(255,255,0)" fill="rgb(255,255,0)" stroke-width="1px" stroke-dasharray="" points="212, 256,231, 256,241, 262,231, 268,212, 268,212, 256" /> 
<polyline id="r0"  stroke="rgb(0,0,0)" fill="none" stroke-width="1px" stroke-dasharray="" points="212, 256,231, 256,241, 262,231, 268,212, 268,212, 256" /> 
<polyline id="r0"  stroke="rgb(255,255,0)" fill="rgb(255,255,0)" stroke-width="1px" stroke-dasharray="" points="212, 256,231, 256,241, 262,231, 268,212, 268,212, 256" /> 
<polyline id="r0"  stroke="rgb(0,0,0)" fill="none" stroke-width="1px" stroke-dasharray="" points="212, 256,231, 256,241, 262,231, 268,212, 268,212, 256" /> 
<polyline id="r0"  stroke="rgb(0,0,0)" fill="none" stroke-width="1px" stroke-dasharray="" points="206, 262,212, 262" /> 
<circle id="r0"  stroke="rgb(255,0,0)" fill="rgb(255,0,0)" stroke-width="1px" stroke-dasharray="" cx="52" cy="199" r="11"/> 
<circle stroke="rgb(0,0,0)" fill="none" stroke-width="1px" stroke-dasharray="" cx="52" cy="199" r="11"/> 
<circle id="r0"  stroke="rgb(255,0,0)" fill="rgb(255,0,0)" stroke-width="1px" stroke-dasharray="" cx="52" cy="199" r="11"/> 
<circle stroke="rgb(0,0,0)" fill="none" stroke-width="1px" stroke-dasharray="" cx="52" cy="199" r="11"/> 
<polyline id="r0"  stroke="rgb(255,255,0)" fill="none" stroke-width="2px" stroke-dasharray="" points="47, 205,57, 194" /> 
<polyline id="r0"  stroke="rgb(255,255,0)" fill="none" stroke-width="2px" stroke-dasharray="" points="57, 205,47, 194" /> 
<polyline id="r0"  stroke="rgb(255,255,0)" fill="rgb(255,255,0)" stroke-width="1px" stroke-dasharray="" points="212, 193,231, 193,241, 199,231, 206,212, 206,212, 193" /> 
<polyline id="r0"  stroke="rgb(0,0,0)" fill="none" stroke-width="1px" stroke-dasharray="" points="212, 193,231, 193,241, 199,231, 206,212, 206,212, 193" /> 
<polyline id="r0"  stroke="rgb(255,255,0)" fill="rgb(255,255,0)" stroke-width="1px" stroke-dasharray="" points="212, 193,231, 193,241, 199,231, 206,212, 206,212, 193" /> 
<polyline id="r0"  stroke="rgb(0,0,0)" fill="none" stroke-width="1px" stroke-dasharray="" points="212, 193,231, 193,241, 199,231, 206,212, 206,212, 193" /> 
<polyline id="r0"  stroke="rgb(0,0,0)" fill="none" stroke-width="1px" stroke-dasharray="" points="206, 199,212, 199" /> 
<rect id="r0"  stroke="rgb(254,254,179)" fill="rgb(254,254,179)" stroke-width="1px" stroke-dasharray="" y="587px" x="450px" width="212px" height="12px" rx="0" ry="0" />
<rect id="r0"  stroke="rgb(0,0,0)" fill="none" stroke-width="1px" stroke-dasharray="" y="587px" x="450px" width="212px" height="12px" rx="0" ry="0" />
<rect id="r0"  stroke="rgb(254,254,179)" fill="rgb(254,254,179)" stroke-width="1px" stroke-dasharray="" y="537px" x="662px" width="50px" height="12px" rx="0" ry="0" />
<rect id="r0"  stroke="rgb(0,0,0)" fill="none" stroke-width="1px" stroke-dasharray="" y="537px" x="662px" width="50px" height="12px" rx="0" ry="0" />
<rect id="r0"  stroke="rgb(254,254,179)" fill="rgb(254,254,179)" stroke-width="1px" stroke-dasharray="" y="562px" x="450px" width="212px" height="12px" rx="0" ry="0" />
<rect id="r0"  stroke="rgb(0,0,0)" fill="none" stroke-width="1px" stroke-dasharray="" y="562px" x="450px" width="212px" height="12px" rx="0" ry="0" />
<rect id="r0"  stroke="rgb(254,254,179)" fill="rgb(254,254,179)" stroke-width="1px" stroke-dasharray="" y="562px" x="400px" width="50px" height="12px" rx="0" ry="0" />
<rect id="r0"  stroke="rgb(0,0,0)" fill="none" stroke-width="1px" stroke-dasharray="" y="562px" x="400px" width="50px" height="12px" rx="0" ry="0" />
<rect id="r0"  stroke="rgb(254,254,179)" fill="rgb(254,254,179)" stroke-width="1px" stroke-dasharray="" y="549px" x="662px" width="250px" height="50px" rx="0" ry="0" />
<rect id="r0"  stroke="rgb(0,0,0)" fill="none" stroke-width="1px" stroke-dasharray="" y="549px" x="662px" width="250px" height="50px" rx="0" ry="0" />
<rect id="r0"  stroke="rgb(254,254,179)" fill="rgb(254,254,179)" stroke-width="1px" stroke-dasharray="" y="537px" x="712px" width="200px" height="12px" rx="0" ry="0" />
<rect id="r0"  stroke="rgb(0,0,0)" fill="none" stroke-width="1px" stroke-dasharray="" y="537px" x="712px" width="200px" height="12px" rx="0" ry="0" />
<rect id="r0"  stroke="rgb(254,254,179)" fill="rgb(254,254,179)" stroke-width="1px" stroke-dasharray="" y="537px" x="400px" width="262px" height="25px" rx="0" ry="0" />
<rect id="r0"  stroke="rgb(0,0,0)" fill="none" stroke-width="1px" stroke-dasharray="" y="537px" x="400px" width="262px" height="25px" rx="0" ry="0" />
<rect id="r0"  stroke="rgb(254,254,179)" fill="rgb(254,254,179)" stroke-width="1px" stroke-dasharray="" y="574px" x="400px" width="50px" height="13px" rx="0" ry="0" />
<rect id="r0"  stroke="rgb(0,0,0)" fill="none" stroke-width="1px" stroke-dasharray="" y="574px" x="400px" width="50px" height="13px" rx="0" ry="0" />
<rect id="r0"  stroke="rgb(254,254,179)" fill="rgb(254,254,179)" stroke-width="1px" stroke-dasharray="" y="587px" x="400px" width="50px" height="12px" rx="0" ry="0" />
<rect id="r0"  stroke="rgb(0,0,0)" fill="none" stroke-width="1px" stroke-dasharray="" y="587px" x="400px" width="50px" height="12px" rx="0" ry="0" />
<rect id="r0"  stroke="rgb(254,254,179)" fill="rgb(254,254,179)" stroke-width="1px" stroke-dasharray="" y="574px" x="450px" width="212px" height="13px" rx="0" ry="0" />
<rect id="r0"  stroke="rgb(0,0,0)" fill="none" stroke-width="1px" stroke-dasharray="" y="574px" x="450px" width="212px" height="13px" rx="0" ry="0" />
<polyline id="r0"  stroke="rgb(0,255,255)" fill="rgb(0,255,255)" stroke-width="1px" stroke-dasharray="" points="650, 244,706, 244,722, 260,722, 316,706, 332,650, 332,634, 316,634, 260,650, 244" /> 
<polyline id="r0"  stroke="rgb(102,102,102)" fill="none" stroke-width="2px" stroke-dasharray="" points="650, 244,706, 244,722, 260,722, 316,706, 332,650, 332,634, 316,634, 260,650, 244" /> 
<circle id="r0"  stroke="rgb(0,255,255)" fill="rgb(0,255,255)" stroke-width="1px" stroke-dasharray="" cx="677" cy="287" r="37"/> 
<circle stroke="rgb(102,102,102)" fill="none" stroke-width="3px" stroke-dasharray="" cx="677" cy="287" r="37"/> 
<circle id="r0"  stroke="rgb(0,255,255)" fill="rgb(0,255,255)" stroke-width="1px" stroke-dasharray="" cx="554" cy="428" r="37"/> 
<circle stroke="rgb(0,127,191)" fill="none" stroke-width="3px" stroke-dasharray="" cx="554" cy="428" r="37"/> 
<circle id="r0"  stroke="rgb(0,255,255)" fill="rgb(0,255,255)" stroke-width="1px" stroke-dasharray="" cx="360" cy="485" r="37"/> 
<circle stroke="rgb(0,127,191)" fill="none" stroke-width="3px" stroke-dasharray="" cx="360" cy="485" r="37"/> 
<polyline id="r0"  stroke="rgb(0,255,255)" fill="rgb(0,255,255)" stroke-width="1px" stroke-dasharray="" points="238, 275,294, 275,310, 291,310, 347,294, 363,238, 363,222, 347,222, 291,238, 275" /> 
<polyline id="r0"  stroke="rgb(102,102,102)" fill="none" stroke-width="2px" stroke-dasharray="" points="238, 275,294, 275,310, 291,310, 347,294, 363,238, 363,222, 347,222, 291,238, 275" /> 
<circle id="r0"  stroke="rgb(0,255,255)" fill="rgb(0,255,255)" stroke-width="1px" stroke-dasharray="" cx="265" cy="318" r="37"/> 
<circle stroke="rgb(102,102,102)" fill="none" stroke-width="3px" stroke-dasharray="" cx="265" cy="318" r="37"/> 
<polyline id="r0"  stroke="rgb(0,0,0)" fill="none" stroke-width="1px" stroke-dasharray="" points="52, 153,56, 153,56, 146,59, 146" /> 
<polyline id="r0"  stroke="rgb(0,0,0)" fill="none" stroke-width="1px" stroke-dasharray="" points="59, 266,56, 266,56, 258,52, 258" /> 
<polyline id="r0"  stroke="rgb(0,0,0)" fill="none" stroke-width="1px" stroke-dasharray="" points="44, 260,45, 260" /> 
<polyline id="r0"  stroke="rgb(0,0,0)" fill="none" stroke-width="1px" stroke-dasharray="" points="44, 264,44, 260" /> 
<polyline id="r0"  stroke="rgb(0,0,0)" fill="none" stroke-width="1px" stroke-dasharray="" points="206, 262,212, 262" /> 
<polyline id="r0"  stroke="rgb(255,255,0)" fill="none" stroke-width="2px" stroke-dasharray="" points="47, 205,57, 194" /> 
<polyline id="r0"  stroke="rgb(255,255,0)" fill="none" stroke-width="2px" stroke-dasharray="" points="57, 205,47, 194" /> 
<polyline id="r0"  stroke="rgb(0,0,0)" fill="none" stroke-width="1px" stroke-dasharray="" points="206, 199,212, 199" /> 
<polyline id="r0"  stroke="rgb(0,0,0)" fill="none" stroke-width="1px" stroke-dasharray="" points="69, 262,206, 262" /> 
<polyline id="r0"  stroke="rgb(0,0,0)" fill="none" stroke-width="1px" stroke-dasharray="" points="63, 199,206, 199" /> 
<polyline id="r0"  stroke="rgb(0,0,0)" fill="none" stroke-width="1px" stroke-dasharray="" points="474, 219,634, 287" /> 
<polyline id="r0"  stroke="rgb(0,0,0)" fill="rgb(0,0,0)" stroke-width="1px" stroke-dasharray="" points="626, 287,629, 282,634, 287" /> 
<polyline id="r0"  stroke="rgb(0,0,0)" fill="none" stroke-width="1px" stroke-dasharray="" points="644, 326,574, 396" /> 
<polyline id="r0"  stroke="rgb(0,0,0)" fill="rgb(0,0,0)" stroke-width="1px" stroke-dasharray="" points="576, 389,581, 394,574, 396" /> 
<polyline id="r0"  stroke="rgb(0,0,0)" fill="none" stroke-width="1px" stroke-dasharray="" points="516, 431,396, 494" /> 
<polyline id="r0"  stroke="rgb(0,0,0)" fill="rgb(0,0,0)" stroke-width="1px" stroke-dasharray="" points="400, 488,403, 493,396, 494" /> 
<polyline id="r0"  stroke="rgb(0,0,0)" fill="none" stroke-width="1px" stroke-dasharray="" points="341, 452,283, 363" /> 
<polyline id="r0"  stroke="rgb(0,0,0)" fill="rgb(0,0,0)" stroke-width="1px" stroke-dasharray="" points="290, 367,284, 371,283, 363" /> 
<polyline id="r0"  stroke="rgb(0,0,0)" fill="none" stroke-width="1px" stroke-dasharray="" points="268, 275,401, 223" /> 
<polyline id="r0"  stroke="rgb(0,0,0)" fill="rgb(0,0,0)" stroke-width="1px" stroke-dasharray="" points="396, 228,394, 222,401, 223" /> 
<polyline id="r0"  stroke="rgb(0,0,0)" fill="none" stroke-width="1px" stroke-dasharray="" points="250, 363,322, 492" /> 
<polyline id="r0"  stroke="rgb(0,0,0)" fill="rgb(0,0,0)" stroke-width="1px" stroke-dasharray="" points="316, 487,322, 484,322, 492" /> 
<rect id="r0"  stroke="rgb(255,255,255)" fill="rgb(255,255,255)" stroke-width="1px" stroke-dasharray="" y="142px" x="69px" width="125px" height="15px" rx="0" ry="0" />
<rect id="r0"  stroke="rgb(0,127,191)" fill="none" stroke-width="1px" stroke-dasharray="" y="142px" x="69px" width="125px" height="15px" rx="0" ry="0" />
<rect id="r0"  stroke="rgb(255,255,255)" fill="rgb(255,255,255)" stroke-width="1px" stroke-dasharray="" y="249px" x="112px" width="50px" height="25px" rx="0" ry="0" />
<rect id="r0"  stroke="rgb(0,127,191)" fill="none" stroke-width="1px" stroke-dasharray="" y="249px" x="112px" width="50px" height="25px" rx="0" ry="0" />
<rect id="r0"  stroke="rgb(255,255,255)" fill="rgb(255,255,255)" stroke-width="1px" stroke-dasharray="" y="247px" x="548px" width="69px" height="25px" rx="0" ry="0" />
<rect id="r0"  stroke="rgb(0,127,191)" fill="none" stroke-width="1px" stroke-dasharray="" y="247px" x="548px" width="69px" height="25px" rx="0" ry="0" />
<rect id="r0"  stroke="rgb(255,255,255)" fill="rgb(255,255,255)" stroke-width="1px" stroke-dasharray="" y="356px" x="603px" width="62px" height="24px" rx="0" ry="0" />
<rect id="r0"  stroke="rgb(0,127,191)" fill="none" stroke-width="3px" stroke-dasharray="" y="356px" x="603px" width="62px" height="24px" rx="0" ry="0" />
<rect id="r0"  stroke="rgb(255,255,255)" fill="rgb(255,255,255)" stroke-width="1px" stroke-dasharray="" y="401px" x="306px" width="69px" height="25px" rx="0" ry="0" />
<rect id="r0"  stroke="rgb(0,127,191)" fill="none" stroke-width="1px" stroke-dasharray="" y="401px" x="306px" width="69px" height="25px" rx="0" ry="0" />
<rect id="r0"  stroke="rgb(255,255,255)" fill="rgb(255,255,255)" stroke-width="1px" stroke-dasharray="" y="243px" x="329px" width="152px" height="24px" rx="0" ry="0" />
<rect id="r0"  stroke="rgb(0,127,191)" fill="none" stroke-width="3px" stroke-dasharray="" y="243px" x="329px" width="152px" height="24px" rx="0" ry="0" />
<circle id="r0"  stroke="rgb(255,255,255)" fill="rgb(255,255,255)" stroke-width="1px" stroke-dasharray="" cx="281" cy="269" r="10"/> 
<circle stroke="rgb(0,0,0)" fill="none" stroke-width="1px" stroke-dasharray="" cx="281" cy="269" r="10"/> 
<rect id="r0"  stroke="rgb(255,255,255)" fill="rgb(255,255,255)" stroke-width="1px" stroke-dasharray="" y="422px" x="281px" width="151px" height="24px" rx="0" ry="0" />
<rect id="r0"  stroke="rgb(0,127,191)" fill="none" stroke-width="3px" stroke-dasharray="" y="422px" x="281px" width="151px" height="24px" rx="0" ry="0" />
<circle id="r0"  stroke="rgb(255,255,255)" fill="rgb(255,255,255)" stroke-width="1px" stroke-dasharray="" cx="257" cy="376" r="10"/> 
<circle stroke="rgb(0,0,0)" fill="none" stroke-width="1px" stroke-dasharray="" cx="257" cy="376" r="10"/> 
<text x="0" y="59" font-family="arial" fill="rgb(0,0,0)" font-weight="800" font-size="10" text-anchor="start">Package List</text>
<text x="0" y="72" font-family="arial" fill="rgb(0,0,0)" font-size="10" text-anchor="start">LIBRARY ieee;</text>
<text x="0" y="84" font-family="arial" fill="rgb(0,0,0)" font-size="10" text-anchor="start">USE ieee.std_logic_1164.all;</text>
<text x="0" y="97" font-family="arial" fill="rgb(0,0,0)" font-size="10" text-anchor="start">USE ieee.std_logic_arith.all;</text>
<text x="276" y="10" font-family="arial" fill="rgb(0,0,0)" font-weight="800" font-size="10" text-anchor="start">Architecture Declarations</text>
<text x="276" y="22" font-family="arial" fill="rgb(0,0,0)" font-weight="800" font-size="10" text-anchor="start">Pre Decls</text>
<text x="276" y="34" font-family="arial" fill="rgb(0,0,0)" font-weight="800" font-size="10" text-anchor="start">Post Decls</text>
<text x="0" y="10" font-family="arial" fill="rgb(0,0,0)" font-weight="800" font-size="10" text-anchor="start">Global Actions</text>
<text x="0" y="22" font-family="arial" fill="rgb(0,0,0)" font-weight="800" font-size="10" text-anchor="start">Pre Actions:</text>
<text x="0" y="34" font-family="arial" fill="rgb(0,0,0)" font-weight="800" font-size="10" text-anchor="start">Post Actions:</text>
<text x="115" y="10" font-family="arial" fill="rgb(0,0,0)" font-weight="800" font-size="10" text-anchor="start">Concurrent Statements</text>
<text x="726" y="10" font-family="arial" fill="rgb(0,0,0)" font-weight="800" font-size="10" text-anchor="start">Process Declarations</text>
<text x="726" y="22" font-family="arial" fill="rgb(0,0,0)" font-weight="800" font-size="10" text-anchor="start">Clocked Process:</text>
<text x="726" y="34" font-family="arial" fill="rgb(0,0,0)" font-weight="800" font-size="10" text-anchor="start">Output Process:</text>
<text x="554" y="10" font-family="arial" fill="rgb(0,0,0)" font-weight="800" font-size="10" text-anchor="start">State Register Statements</text>
<text x="445" y="10" font-family="arial" fill="rgb(0,0,0)" font-weight="800" font-size="10" text-anchor="start">Signal Status</text>
<text x="445" y="19" font-family="Courier New" fill="rgb(0,0,0)" font-size="10" text-anchor="start">SIGNAL        MODE    DEFAULT  RESET  SCHEME COMMENT  </text>
<text x="445" y="29" font-family="Courier New" fill="rgb(0,0,0)" font-size="10" text-anchor="start">btn_filtered  OUT     '0'             COMB            </text>
<text x="34" y="153" font-family="arial" fill="rgb(0,0,0)" font-size="10" text-anchor="end">clk</text>
<text x="70" y="153" font-family="arial" fill="rgb(0,0,0)" font-size="10" text-anchor="start">clk'EVENT AND clk = '1'</text>
<text x="247" y="203" font-family="arial" fill="rgb(0,0,0)" font-weight="800" font-size="10" text-anchor="start">s0</text>
<text x="437" y="217" font-family="arial" fill="rgb(0,0,0)" font-weight="800" font-size="12" text-anchor="middle">s0</text>
<text x="335" y="259" font-family="arial" fill="rgb(0,0,0)" font-size="10" text-anchor="start">TIMEOUT AND (btn_in = '0')</text>
<text x="286" y="437" font-family="arial" fill="rgb(0,0,0)" font-size="10" text-anchor="start">TIMEOUT AND (btn_in = '1')</text>
<text x="41" y="266" font-family="arial" fill="rgb(0,0,0)" font-size="10" text-anchor="end">rst</text>
<text x="247" y="266" font-family="arial" fill="rgb(0,0,0)" font-weight="800" font-size="10" text-anchor="start">s0</text>
<text x="266" y="334" font-family="arial" fill="rgb(0,0,0)" font-weight="800" font-size="12" text-anchor="middle">s4</text>
<text x="243" y="314" font-family="arial" fill="rgb(0,0,128)" font-weight="800" font-size="12" text-anchor="start">wait 9999</text>
<text x="119" y="259" font-family="arial" fill="rgb(0,0,0)" font-size="10" text-anchor="start">rst = '0'</text>
<text x="281" y="273" font-family="arial" fill="rgb(0,0,0)" font-size="10" text-anchor="middle">1</text>
<text x="678" y="303" font-family="arial" fill="rgb(0,0,0)" font-weight="800" font-size="12" text-anchor="middle">s1</text>
<text x="655" y="283" font-family="arial" fill="rgb(0,0,128)" font-weight="800" font-size="12" text-anchor="start">wait 9999</text>
<text x="554" y="263" font-family="arial" fill="rgb(0,0,0)" font-size="10" text-anchor="start">btn_in = '1'</text>
<text x="312" y="418" font-family="arial" fill="rgb(0,0,0)" font-size="10" text-anchor="start">btn_in = '0'</text>
<text x="257" y="380" font-family="arial" fill="rgb(0,0,0)" font-size="10" text-anchor="middle">2</text>
<text x="553" y="433" font-family="arial" fill="rgb(0,0,0)" font-weight="800" font-size="12" text-anchor="middle">s2</text>
<text x="558" y="471" font-family="arial" fill="rgb(0,0,0)" font-size="10" text-anchor="start">btn_filtered &#0060;= '1';</text>
<text x="609" y="371" font-family="arial" fill="rgb(0,0,0)" font-size="10" text-anchor="start">TIMEOUT</text>
<text x="452" y="597" font-family="Arial" fill="rgb(0,0,128)" font-size="10" text-anchor="start">by mfhubu on 01 marras 2019</text>
<text x="665" y="547" font-family="Arial" fill="rgb(0,0,128)" font-size="10" text-anchor="start">Project:</text>
<text x="452" y="572" font-family="Arial" fill="rgb(0,0,128)" font-size="10" text-anchor="start">&#0060;enter diagram title here&#0062;</text>
<text x="402" y="572" font-family="Arial" fill="rgb(0,0,128)" font-size="10" text-anchor="start">Title:</text>
<text x="665" y="562" font-family="Arial" fill="rgb(0,0,128)" font-size="10" text-anchor="start">&#0060;enter comments here&#0062;</text>
<text x="715" y="547" font-family="Arial" fill="rgb(0,0,128)" font-size="10" text-anchor="start">Computer_Exercise_3</text>
<text x="531" y="553" font-family="Arial" fill="rgb(127,0,0)" font-size="10" text-anchor="middle">&#0060;company name&#0062;</text>
<text x="402" y="584" font-family="Arial" fill="rgb(0,0,128)" font-size="10" text-anchor="start">Path:</text>
<text x="402" y="597" font-family="Arial" fill="rgb(0,0,128)" font-size="10" text-anchor="start">Edited:</text>
<text x="452" y="584" font-family="Arial" fill="rgb(0,0,128)" font-size="10" text-anchor="start">Computer_Exercise_3_lib/Button_Filter/fsm</text>
<text x="359" y="490" font-family="arial" fill="rgb(0,0,0)" font-weight="800" font-size="12" text-anchor="middle">s3</text>
<polyline id="r0"  stroke="rgb(0,0,0)" fill="none" stroke-width="1px" stroke-dasharray="" points="119, 267,156, 267" /> 
</g>
</svg>
<!-- Create a "titlebox" group so we can reposition it when the SVG moves -->
<g id="titlebox">
<g id="genTime" class="allText normalText">
  <text class="allText smallText" x="300" y="123">Generated on:  1.11.2019 at:  4:14 ip.</text>
</g>

<rect stroke="none" fill="rgb(200,230,240)" opacity="0.4" y="112" x="0" width="914" height="15" />
<!-- Close the "titlebox" group -->
</g>

</g>
</svg>
