<?xml version="1.0" encoding="UTF-8"?>
<!DOCTYPE svg PUBLIC "-//W3C//DTD SVG 1.1//EN" "http://www.w3.org/Graphics/SVG/1.1/DTD/svg11.dtd">
<!-- Created HDS 2004.1a -->


<svg xmlns="http://www.w3.org/2000/svg" xmlns:xlink="http://www.w3.org/1999/xlink" version="1.1">
<script xlink:href="../../scripts/SVGPan.js" />
<g id="viewport" transform="translate(0,-100)">


<title>SVG Image</title>
<desc></desc>


<defs>
<!-- section for CSS stylesheet definitions -->
<style type="text/css"><![CDATA[
.allText {font-family:Sans-Serif;fill:darkcyan;}
.subTitleText {font-size:20;font-weight:bold;}
.normalText {font-size:15;}
.smallText {font-size:12;}
.boldText {font-weight:bold;}
.rightText {text-anchor:end;}
.centerText {text-anchor:middle;}
.dragRect {fill:darkcyan;stroke:none;opacity:0.4;}
]]></style>
<symbol id="upArrow" overflow="visible" style="stroke:darkcyan;fill:darkcyan;stroke-width:1;" pointer-events="none">
<polygon points="5,0 10,5 0,5 5,0" />
</symbol>
<symbol id="leftArrow" overflow="visible" style="stroke:darkcyan;fill:darkcyan;stroke-width:1;" pointer-events="none">
<polygon points="0,5 5,0 5,10 0,5" />
</symbol>
<symbol id="rightArrow" overflow="visible" style="stroke:darkcyan;fill:darkcyan;stroke-width:1;" pointer-events="none">
<polygon points="5,0 10,5 5,10 5,0" />
</symbol>
<symbol id="downArrow" overflow="visible" style="stroke:darkcyan;fill:darkcyan;stroke-width:1;" pointer-events="none">
<polygon points="0,0 5,5 10,0 0,0" />
</symbol>

</defs>
<svg id="mainMap" x="0" y="150" viewBox="0 0 2383 722" width="912" height="512">


<clipPath id="SVG_Clip">
<rect x="0" y="0" width="2383" height="722" />
</clipPath>
<g id="hds_models" style="clip-path:url(#SVG_Clip)">
<polyline id="r0"  stroke="rgb(102,102,102)" fill="none" stroke-width="3px" stroke-dasharray="" points="137, 167,112, 167" /> 
<polyline id="r0"  stroke="rgb(102,102,102)" fill="none" stroke-width="3px" stroke-dasharray="" points="112, 154,112, 179" /> 
<polyline id="r0"  stroke="rgb(0,0,128)" fill="rgb(0,0,128)" stroke-width="1px" stroke-dasharray="" points="37, 137,50, 137,56, 142,50, 147,37, 147,37, 137" /> 
<polyline id="r0"  stroke="rgb(0,0,0)" fill="none" stroke-width="1px" stroke-dasharray="" points="37, 137,50, 137,56, 142,50, 147,37, 147,37, 137" /> 
<polyline id="r0"  stroke="rgb(0,0,128)" fill="rgb(0,0,128)" stroke-width="1px" stroke-dasharray="" points="37, 137,50, 137,56, 142,50, 147,37, 147,37, 137" /> 
<polyline id="r0"  stroke="rgb(0,0,0)" fill="none" stroke-width="1px" stroke-dasharray="" points="37, 137,50, 137,56, 142,50, 147,37, 147,37, 137" /> 
<polyline id="r0"  stroke="rgb(0,0,0)" fill="none" stroke-width="1px" stroke-dasharray="" points="56, 142,62, 142" /> 
<polyline id="r0"  stroke="rgb(0,0,128)" fill="rgb(0,0,128)" stroke-width="1px" stroke-dasharray="" points="2318, 150,2331, 150,2337, 154,2331, 159,2318, 159,2318, 150" /> 
<polyline id="r0"  stroke="rgb(0,0,0)" fill="none" stroke-width="1px" stroke-dasharray="" points="2318, 150,2331, 150,2337, 154,2331, 159,2318, 159,2318, 150" /> 
<polyline id="r0"  stroke="rgb(0,0,128)" fill="rgb(0,0,128)" stroke-width="1px" stroke-dasharray="" points="2318, 150,2331, 150,2337, 154,2331, 159,2318, 159,2318, 150" /> 
<polyline id="r0"  stroke="rgb(0,0,0)" fill="none" stroke-width="1px" stroke-dasharray="" points="2318, 150,2331, 150,2337, 154,2331, 159,2318, 159,2318, 150" /> 
<polyline id="r0"  stroke="rgb(0,0,0)" fill="none" stroke-width="1px" stroke-dasharray="" points="2312, 154,2318, 154" /> 
<rect id="r0"  stroke="rgb(254,254,179)" fill="rgb(254,254,179)" stroke-width="1px" stroke-dasharray="" y="692px" x="437px" width="212px" height="25px" rx="0" ry="0" />
<rect id="r0"  stroke="rgb(0,0,0)" fill="none" stroke-width="1px" stroke-dasharray="" y="692px" x="437px" width="212px" height="25px" rx="0" ry="0" />
<rect id="r0"  stroke="rgb(254,254,179)" fill="rgb(254,254,179)" stroke-width="1px" stroke-dasharray="" y="592px" x="649px" width="50px" height="25px" rx="0" ry="0" />
<rect id="r0"  stroke="rgb(0,0,0)" fill="none" stroke-width="1px" stroke-dasharray="" y="592px" x="649px" width="50px" height="25px" rx="0" ry="0" />
<rect id="r0"  stroke="rgb(254,254,179)" fill="rgb(254,254,179)" stroke-width="1px" stroke-dasharray="" y="642px" x="437px" width="212px" height="25px" rx="0" ry="0" />
<rect id="r0"  stroke="rgb(0,0,0)" fill="none" stroke-width="1px" stroke-dasharray="" y="642px" x="437px" width="212px" height="25px" rx="0" ry="0" />
<rect id="r0"  stroke="rgb(254,254,179)" fill="rgb(254,254,179)" stroke-width="1px" stroke-dasharray="" y="642px" x="387px" width="50px" height="25px" rx="0" ry="0" />
<rect id="r0"  stroke="rgb(0,0,0)" fill="none" stroke-width="1px" stroke-dasharray="" y="642px" x="387px" width="50px" height="25px" rx="0" ry="0" />
<rect id="r0"  stroke="rgb(254,254,179)" fill="rgb(254,254,179)" stroke-width="1px" stroke-dasharray="" y="617px" x="649px" width="250px" height="100px" rx="0" ry="0" />
<rect id="r0"  stroke="rgb(0,0,0)" fill="none" stroke-width="1px" stroke-dasharray="" y="617px" x="649px" width="250px" height="100px" rx="0" ry="0" />
<rect id="r0"  stroke="rgb(254,254,179)" fill="rgb(254,254,179)" stroke-width="1px" stroke-dasharray="" y="592px" x="699px" width="200px" height="25px" rx="0" ry="0" />
<rect id="r0"  stroke="rgb(0,0,0)" fill="none" stroke-width="1px" stroke-dasharray="" y="592px" x="699px" width="200px" height="25px" rx="0" ry="0" />
<rect id="r0"  stroke="rgb(254,254,179)" fill="rgb(254,254,179)" stroke-width="1px" stroke-dasharray="" y="592px" x="387px" width="262px" height="50px" rx="0" ry="0" />
<rect id="r0"  stroke="rgb(0,0,0)" fill="none" stroke-width="1px" stroke-dasharray="" y="592px" x="387px" width="262px" height="50px" rx="0" ry="0" />
<rect id="r0"  stroke="rgb(254,254,179)" fill="rgb(254,254,179)" stroke-width="1px" stroke-dasharray="" y="667px" x="387px" width="50px" height="25px" rx="0" ry="0" />
<rect id="r0"  stroke="rgb(0,0,0)" fill="none" stroke-width="1px" stroke-dasharray="" y="667px" x="387px" width="50px" height="25px" rx="0" ry="0" />
<rect id="r0"  stroke="rgb(254,254,179)" fill="rgb(254,254,179)" stroke-width="1px" stroke-dasharray="" y="692px" x="387px" width="50px" height="25px" rx="0" ry="0" />
<rect id="r0"  stroke="rgb(0,0,0)" fill="none" stroke-width="1px" stroke-dasharray="" y="692px" x="387px" width="50px" height="25px" rx="0" ry="0" />
<rect id="r0"  stroke="rgb(254,254,179)" fill="rgb(254,254,179)" stroke-width="1px" stroke-dasharray="" y="667px" x="437px" width="212px" height="25px" rx="0" ry="0" />
<rect id="r0"  stroke="rgb(0,0,0)" fill="none" stroke-width="1px" stroke-dasharray="" y="667px" x="437px" width="212px" height="25px" rx="0" ry="0" />
<a xlink:href='javascript:parent.location.href="../../c1_t1_half_adder_struct/c1_t1_half_adder/struct_bd.htm"'>
<rect id="r0"  stroke="rgb(0,255,0)" fill="rgb(0,255,0)" stroke-width="1px" stroke-dasharray="" y="130px" x="263px" width="224px" height="249px" rx="0" ry="0" />
</a>
<rect id="r0"  stroke="rgb(0,128,0)" fill="none" stroke-width="3px" stroke-dasharray="" y="130px" x="263px" width="224px" height="249px" rx="0" ry="0" />
<a xlink:href='javascript:parent.location.href="../../c1_t1_half_adder_struct/c1_t1_half_adder/struct_bd.htm"'>
<image xlink:href="BlockDiagram.png" x="265" y="358" width="19" height="18" />
</a>
<a xlink:href='javascript:parent.location.href="../../c1_t1_half_adder_struct/c1_t1_half_adder/struct_bd.htm"'>
<rect id="r0"  stroke="rgb(0,255,0)" fill="rgb(0,255,0)" stroke-width="1px" stroke-dasharray="" y="130px" x="738px" width="224px" height="249px" rx="0" ry="0" />
</a>
<rect id="r0"  stroke="rgb(0,128,0)" fill="none" stroke-width="3px" stroke-dasharray="" y="130px" x="738px" width="224px" height="249px" rx="0" ry="0" />
<a xlink:href='javascript:parent.location.href="../../c1_t1_half_adder_struct/c1_t1_half_adder/struct_bd.htm"'>
<image xlink:href="BlockDiagram.png" x="740" y="358" width="19" height="18" />
</a>
<a xlink:href='javascript:parent.location.href="../../c1_t1_half_adder_struct/c1_t1_half_adder/struct_bd.htm"'>
<rect id="r0"  stroke="rgb(0,255,0)" fill="rgb(0,255,0)" stroke-width="1px" stroke-dasharray="" y="143px" x="1325px" width="224px" height="249px" rx="0" ry="0" />
</a>
<rect id="r0"  stroke="rgb(0,128,0)" fill="none" stroke-width="3px" stroke-dasharray="" y="143px" x="1325px" width="224px" height="249px" rx="0" ry="0" />
<a xlink:href='javascript:parent.location.href="../../c1_t1_half_adder_struct/c1_t1_half_adder/struct_bd.htm"'>
<image xlink:href="BlockDiagram.png" x="1328" y="370" width="18" height="19" />
</a>
<polyline id="r0"  stroke="rgb(0,0,0)" fill="none" stroke-width="1px" stroke-dasharray="" points="56, 142,62, 142" /> 
<polyline id="r0"  stroke="rgb(0,0,0)" fill="none" stroke-width="1px" stroke-dasharray="" points="2312, 154,2318, 154" /> 
<a xlink:href='javascript:parent.location.href="../../c1_t1_half_adder_struct/c1_t1_half_adder/struct_bd.htm"'>
<polyline id="r0"  stroke="rgb(0,255,0)" fill="rgb(0,255,0)" stroke-width="1px" stroke-dasharray="" points="262, 142,253, 147,253, 137,262, 142" /> 
</a>
<polyline id="r0"  stroke="rgb(0,0,0)" fill="none" stroke-width="1px" stroke-dasharray="" points="262, 142,253, 147,253, 137,262, 142" /> 
<a xlink:href='javascript:parent.location.href="../../c1_t1_half_adder_struct/c1_t1_half_adder/struct_bd.htm"'>
<polyline id="r0"  stroke="rgb(0,255,0)" fill="rgb(0,255,0)" stroke-width="1px" stroke-dasharray="" points="262, 167,253, 172,253, 162,262, 167" /> 
</a>
<polyline id="r0"  stroke="rgb(0,0,0)" fill="none" stroke-width="1px" stroke-dasharray="" points="262, 167,253, 172,253, 162,262, 167" /> 
<a xlink:href='javascript:parent.location.href="../../c1_t1_half_adder_struct/c1_t1_half_adder/struct_bd.htm"'>
<polyline id="r0"  stroke="rgb(0,255,0)" fill="rgb(0,255,0)" stroke-width="1px" stroke-dasharray="" points="496, 142,487, 147,487, 137,496, 142" /> 
</a>
<polyline id="r0"  stroke="rgb(0,0,0)" fill="none" stroke-width="1px" stroke-dasharray="" points="496, 142,487, 147,487, 137,496, 142" /> 
<a xlink:href='javascript:parent.location.href="../../c1_t1_half_adder_struct/c1_t1_half_adder/struct_bd.htm"'>
<polyline id="r0"  stroke="rgb(0,255,0)" fill="rgb(0,255,0)" stroke-width="1px" stroke-dasharray="" points="496, 154,487, 159,487, 150,496, 154" /> 
</a>
<polyline id="r0"  stroke="rgb(0,0,0)" fill="none" stroke-width="1px" stroke-dasharray="" points="496, 154,487, 159,487, 150,496, 154" /> 
<a xlink:href='javascript:parent.location.href="../../c1_t1_half_adder_struct/c1_t1_half_adder/struct_bd.htm"'>
<polyline id="r0"  stroke="rgb(0,255,0)" fill="rgb(0,255,0)" stroke-width="1px" stroke-dasharray="" points="737, 142,728, 147,728, 137,737, 142" /> 
</a>
<polyline id="r0"  stroke="rgb(0,0,0)" fill="none" stroke-width="1px" stroke-dasharray="" points="737, 142,728, 147,728, 137,737, 142" /> 
<a xlink:href='javascript:parent.location.href="../../c1_t1_half_adder_struct/c1_t1_half_adder/struct_bd.htm"'>
<polyline id="r0"  stroke="rgb(0,255,0)" fill="rgb(0,255,0)" stroke-width="1px" stroke-dasharray="" points="737, 154,728, 159,728, 150,737, 154" /> 
</a>
<polyline id="r0"  stroke="rgb(0,0,0)" fill="none" stroke-width="1px" stroke-dasharray="" points="737, 154,728, 159,728, 150,737, 154" /> 
<a xlink:href='javascript:parent.location.href="../../c1_t1_half_adder_struct/c1_t1_half_adder/struct_bd.htm"'>
<polyline id="r0"  stroke="rgb(0,255,0)" fill="rgb(0,255,0)" stroke-width="1px" stroke-dasharray="" points="971, 142,962, 147,962, 137,971, 142" /> 
</a>
<polyline id="r0"  stroke="rgb(0,0,0)" fill="none" stroke-width="1px" stroke-dasharray="" points="971, 142,962, 147,962, 137,971, 142" /> 
<a xlink:href='javascript:parent.location.href="../../c1_t1_half_adder_struct/c1_t1_half_adder/struct_bd.htm"'>
<polyline id="r0"  stroke="rgb(0,255,0)" fill="rgb(0,255,0)" stroke-width="1px" stroke-dasharray="" points="971, 154,962, 159,962, 150,971, 154" /> 
</a>
<polyline id="r0"  stroke="rgb(0,0,0)" fill="none" stroke-width="1px" stroke-dasharray="" points="971, 154,962, 159,962, 150,971, 154" /> 
<a xlink:href='javascript:parent.location.href="../../c1_t1_half_adder_struct/c1_t1_half_adder/struct_bd.htm"'>
<polyline id="r0"  stroke="rgb(0,255,0)" fill="rgb(0,255,0)" stroke-width="1px" stroke-dasharray="" points="1324, 154,1315, 159,1315, 150,1324, 154" /> 
</a>
<polyline id="r0"  stroke="rgb(0,0,0)" fill="none" stroke-width="1px" stroke-dasharray="" points="1324, 154,1315, 159,1315, 150,1324, 154" /> 
<a xlink:href='javascript:parent.location.href="../../c1_t1_half_adder_struct/c1_t1_half_adder/struct_bd.htm"'>
<polyline id="r0"  stroke="rgb(0,255,0)" fill="rgb(0,255,0)" stroke-width="1px" stroke-dasharray="" points="1324, 167,1315, 172,1315, 162,1324, 167" /> 
</a>
<polyline id="r0"  stroke="rgb(0,0,0)" fill="none" stroke-width="1px" stroke-dasharray="" points="1324, 167,1315, 172,1315, 162,1324, 167" /> 
<a xlink:href='javascript:parent.location.href="../../c1_t1_half_adder_struct/c1_t1_half_adder/struct_bd.htm"'>
<polyline id="r0"  stroke="rgb(0,255,0)" fill="rgb(0,255,0)" stroke-width="1px" stroke-dasharray="" points="1559, 154,1549, 159,1549, 150,1559, 154" /> 
</a>
<polyline id="r0"  stroke="rgb(0,0,0)" fill="none" stroke-width="1px" stroke-dasharray="" points="1559, 154,1549, 159,1549, 150,1559, 154" /> 
<a xlink:href='javascript:parent.location.href="../../c1_t1_half_adder_struct/c1_t1_half_adder/struct_bd.htm"'>
<polyline id="r0"  stroke="rgb(0,255,0)" fill="rgb(0,255,0)" stroke-width="1px" stroke-dasharray="" points="1559, 167,1549, 172,1549, 162,1559, 167" /> 
</a>
<polyline id="r0"  stroke="rgb(0,0,0)" fill="none" stroke-width="1px" stroke-dasharray="" points="1559, 167,1549, 172,1549, 162,1559, 167" /> 
<polyline id="r0"  stroke="rgb(0,0,0)" fill="none" stroke-width="1px" stroke-dasharray="" points="137, 167,137, 167" /> 
<circle id="r0"  stroke="rgb(255,255,255)" fill="rgb(255,255,255)" stroke-width="1px" stroke-dasharray="" cx="187" cy="142" r="5"/> 
<circle stroke="rgb(255,0,0)" fill="none" stroke-width="1px" stroke-dasharray="" cx="187" cy="142" r="5"/> 
<line id="r0" stroke="rgb(0,0,0)" x1="174" y1="142" x2="187" y2="129" stroke-width="1px" />
<line id="r0" stroke="rgb(0,0,0)" x1="174" y1="142" x2="162" y2="129" stroke-width="1px" />
<line id="r0" stroke="rgb(0,0,0)" x1="149" y1="142" x2="137" y2="129" stroke-width="1px" />
<circle id="r0"  stroke="rgb(255,255,255)" fill="rgb(255,255,255)" stroke-width="1px" stroke-dasharray="" cx="2187" cy="154" r="5"/> 
<circle stroke="rgb(255,0,0)" fill="none" stroke-width="1px" stroke-dasharray="" cx="2187" cy="154" r="5"/> 
<line id="r0" stroke="rgb(0,0,0)" x1="2249" y1="154" x2="2262" y2="167" stroke-width="1px" />
<line id="r0" stroke="rgb(0,0,0)" x1="2287" y1="154" x2="2299" y2="167" stroke-width="1px" />
<line id="r0" stroke="rgb(0,0,0)" x1="2262" y1="154" x2="2249" y2="167" stroke-width="1px" />
<text x="104" y="203" font-family="arial" fill="rgb(0,0,0)" font-size="10" text-anchor="start">U_3</text>
<text x="337" y="117" font-family="Courier New" fill="rgb(0,0,0)" font-size="10" text-anchor="start">SIGNAL carry1 : std_logic</text>
<text x="62" y="52" font-family="arial" fill="rgb(0,0,0)" font-weight="800" font-size="10" text-anchor="start">Package List</text>
<text x="62" y="64" font-family="arial" fill="rgb(0,0,0)" font-size="10" text-anchor="start">LIBRARY ieee;</text>
<text x="62" y="77" font-family="arial" fill="rgb(0,0,0)" font-size="10" text-anchor="start">USE ieee.std_logic_1164.all;</text>
<text x="62" y="89" font-family="arial" fill="rgb(0,0,0)" font-size="10" text-anchor="start">USE ieee.std_logic_arith.all;</text>
<text x="312" y="52" font-family="arial" fill="rgb(0,0,0)" font-weight="800" font-size="10" text-anchor="start">Declarations</text>
<text x="312" y="64" font-family="arial" fill="rgb(0,0,0)" font-weight="800" font-size="10" text-anchor="start">Ports:</text>
<text x="312" y="97" font-family="arial" fill="rgb(0,0,0)" font-weight="800" font-size="10" text-anchor="start">Diagram Signals:</text>
<text x="337" y="74" font-family="Courier New" fill="rgb(0,0,0)" font-size="10" text-anchor="start">Input  : std_logic_vector(2 DOWNTO 0)</text>
<text x="337" y="84" font-family="Courier New" fill="rgb(0,0,0)" font-size="10" text-anchor="start">Output : std_logic_vector(2 DOWNTO 0)</text>
<text x="337" y="107" font-family="Courier New" fill="rgb(0,0,0)" font-size="10" text-anchor="start">SIGNAL carry  : std_logic</text>
<text x="25" y="146" font-family="arial" fill="rgb(0,0,0)" font-size="10" text-anchor="end">Input</text>
<text x="274" y="146" font-family="arial" fill="rgb(0,0,0)" font-size="10" text-anchor="start">sw0</text>
<text x="274" y="171" font-family="arial" fill="rgb(0,0,0)" font-size="10" text-anchor="start">sw1</text>
<text x="104" y="191" font-family="arial" fill="rgb(0,0,0)" font-size="10" text-anchor="start">constval</text>
<text x="203" y="139" font-family="arial" fill="rgb(0,0,0)" font-size="10" text-anchor="start">Input(0)</text>
<text x="474" y="146" font-family="arial" fill="rgb(0,0,0)" font-size="10" text-anchor="end">carry</text>
<text x="474" y="158" font-family="arial" fill="rgb(0,0,0)" font-size="10" text-anchor="end">sum</text>
<text x="337" y="127" font-family="Courier New" fill="rgb(0,0,0)" font-size="10" text-anchor="start">SIGNAL dout   : std_logic</text>
<text x="521" y="152" font-family="arial" fill="rgb(0,0,0)" font-size="10" text-anchor="start">Output(0)</text>
<text x="521" y="139" font-family="arial" fill="rgb(0,0,0)" font-size="10" text-anchor="start">carry1</text>
<text x="749" y="146" font-family="arial" fill="rgb(0,0,0)" font-size="10" text-anchor="start">sw0</text>
<text x="749" y="158" font-family="arial" fill="rgb(0,0,0)" font-size="10" text-anchor="start">sw1</text>
<text x="949" y="146" font-family="arial" fill="rgb(0,0,0)" font-size="10" text-anchor="end">carry</text>
<text x="949" y="158" font-family="arial" fill="rgb(0,0,0)" font-size="10" text-anchor="end">sum</text>
<text x="678" y="139" font-family="arial" fill="rgb(0,0,0)" font-size="10" text-anchor="start">Input(1)</text>
<text x="999" y="189" font-family="arial" fill="rgb(0,0,0)" font-size="10" text-anchor="start">Output(1)</text>
<text x="996" y="139" font-family="arial" fill="rgb(0,0,0)" font-size="10" text-anchor="start">carry</text>
<text x="302" y="264" font-family="arial" fill="rgb(0,0,0)" font-weight="800" font-size="10" text-anchor="start">c1_t1_half_adder_struct</text>
<text x="302" y="277" font-family="arial" fill="rgb(0,0,0)" font-weight="800" font-size="10" text-anchor="start">c1_t1_half_adder</text>
<text x="302" y="289" font-family="arial" fill="rgb(0,0,0)" font-weight="800" font-size="10" text-anchor="start">U_0</text>
<text x="777" y="264" font-family="arial" fill="rgb(0,0,0)" font-weight="800" font-size="10" text-anchor="start">c1_t1_half_adder_struct</text>
<text x="777" y="277" font-family="arial" fill="rgb(0,0,0)" font-weight="800" font-size="10" text-anchor="start">c1_t1_half_adder</text>
<text x="777" y="289" font-family="arial" fill="rgb(0,0,0)" font-weight="800" font-size="10" text-anchor="start">U_1</text>
<text x="2349" y="158" font-family="arial" fill="rgb(0,0,0)" font-size="10" text-anchor="start">Output</text>
<text x="1364" y="277" font-family="arial" fill="rgb(0,0,0)" font-weight="800" font-size="10" text-anchor="start">c1_t1_half_adder_struct</text>
<text x="1364" y="289" font-family="arial" fill="rgb(0,0,0)" font-weight="800" font-size="10" text-anchor="start">c1_t1_half_adder</text>
<text x="1364" y="302" font-family="arial" fill="rgb(0,0,0)" font-weight="800" font-size="10" text-anchor="start">U_2</text>
<text x="1337" y="158" font-family="arial" fill="rgb(0,0,0)" font-size="10" text-anchor="start">sw0</text>
<text x="1337" y="171" font-family="arial" fill="rgb(0,0,0)" font-size="10" text-anchor="start">sw1</text>
<text x="1537" y="158" font-family="arial" fill="rgb(0,0,0)" font-size="10" text-anchor="end">carry</text>
<text x="1537" y="171" font-family="arial" fill="rgb(0,0,0)" font-size="10" text-anchor="end">sum</text>
<text x="1265" y="152" font-family="arial" fill="rgb(0,0,0)" font-size="10" text-anchor="start">Input(2)</text>
<text x="1584" y="164" font-family="arial" fill="rgb(0,0,0)" font-size="10" text-anchor="start">Output(2)</text>
<text x="439" y="708" font-family="Arial" fill="rgb(0,0,128)" font-size="10" text-anchor="start">by qkrasi on 08 loka 2019</text>
<text x="652" y="608" font-family="Arial" fill="rgb(0,0,128)" font-size="10" text-anchor="start">Project:</text>
<text x="439" y="658" font-family="Arial" fill="rgb(0,0,128)" font-size="10" text-anchor="start">&#0060;enter diagram title here&#0062;</text>
<text x="389" y="658" font-family="Arial" fill="rgb(0,0,128)" font-size="10" text-anchor="start">Title:</text>
<text x="652" y="629" font-family="Arial" fill="rgb(0,0,128)" font-size="10" text-anchor="start">&#0060;enter comments here&#0062;</text>
<text x="702" y="608" font-family="Arial" fill="rgb(0,0,128)" font-size="10" text-anchor="start">Computer_Exerccise_2</text>
<text x="518" y="621" font-family="Arial" fill="rgb(127,0,0)" font-size="10" text-anchor="middle">&#0060;company name&#0062;</text>
<text x="389" y="683" font-family="Arial" fill="rgb(0,0,128)" font-size="10" text-anchor="start">Path:</text>
<text x="389" y="708" font-family="Arial" fill="rgb(0,0,128)" font-size="10" text-anchor="start">Edited:</text>
<text x="439" y="677" font-family="Arial" fill="rgb(0,0,128)" font-size="10" text-anchor="start">Computer_Exerccise_2_lib/</text>
<text x="439" y="689" font-family="Arial" fill="rgb(0,0,128)" font-size="10" text-anchor="start">C2_T1_Incrementer/struct</text>
<g id="Input_net" stroke="rgb(0,0,0)" stroke-width="3px"  >
<polyline id="r0"  fill="none"  stroke-dasharray="" points="62, 142,187, 142" /> 
<polyline id="r0"  fill="none"  stroke-dasharray="" points="253, 142,187, 142,187, 129" /> 
<polyline id="r0"  fill="none"  stroke-dasharray="" points="728, 142,587, 142,587, 104,162, 104,162, 129" /> 
<polyline id="r0"  fill="none"  stroke-dasharray="" points="1315, 154,1162, 154,1162, 5,137, 5,137, 129" /> 
</g>
<g id="Output_net" stroke="rgb(0,0,0)" stroke-width="3px"  >
<polyline id="r0"  fill="none"  stroke-dasharray="" points="2312, 154,2187, 154" /> 
<polyline id="r0"  fill="none"  stroke-dasharray="" points="496, 154,562, 154,562, 429,2262, 429,2262, 167" /> 
<polyline id="r0"  fill="none"  stroke-dasharray="" points="1559, 167,2249, 167" /> 
<polyline id="r0"  fill="none"  stroke-dasharray="" points="971, 154,987, 154,987, 417,2299, 417,2299, 167" /> 
</g>
<g id="carry_net" stroke="rgb(0,0,0)" stroke-width="1px"  >
<polyline id="r0"  fill="none"  stroke-dasharray="" points="971, 142,1037, 142,1037, 167,1315, 167" /> 
</g>
<g id="carry1_net" stroke="rgb(0,0,0)" stroke-width="1px"  >
<polyline id="r0"  fill="none"  stroke-dasharray="" points="496, 142,574, 142,574, 154,728, 154" /> 
</g>
<g id="dout_net" stroke="rgb(0,0,0)" stroke-width="1px"  >
<polyline id="r0"  fill="none"  stroke-dasharray="" points="137, 167,253, 167" /> 
</g>
</g>
</svg>
<!-- Create a "titlebox" group so we can reposition it when the SVG moves -->
<g id="titlebox">
<g id="genTime" class="allText normalText">
  <text class="allText smallText" x="300" y="123">Generated on: 23.10.2019 at: 11:58 ap.</text>
</g>

<rect stroke="none" fill="rgb(200,230,240)" opacity="0.4" y="112" x="0" width="914" height="15" />
<!-- Close the "titlebox" group -->
</g>

</g>
</svg>
