<?xml version="1.0" encoding="UTF-8"?>
<!DOCTYPE svg PUBLIC "-//W3C//DTD SVG 1.1//EN" "http://www.w3.org/Graphics/SVG/1.1/DTD/svg11.dtd">
<!-- Created HDS 2004.1a -->


<svg xmlns="http://www.w3.org/2000/svg" xmlns:xlink="http://www.w3.org/1999/xlink" version="1.1">
<script xlink:href="../../scripts/SVGPan.js" />
<g id="viewport" transform="translate(0,-100)">


<title>SVG Image</title>
<desc></desc>


<defs>
<!-- section for CSS stylesheet definitions -->
<style type="text/css"><![CDATA[
.allText {font-family:Sans-Serif;fill:darkcyan;}
.subTitleText {font-size:20;font-weight:bold;}
.normalText {font-size:15;}
.smallText {font-size:12;}
.boldText {font-weight:bold;}
.rightText {text-anchor:end;}
.centerText {text-anchor:middle;}
.dragRect {fill:darkcyan;stroke:none;opacity:0.4;}
]]></style>
<symbol id="upArrow" overflow="visible" style="stroke:darkcyan;fill:darkcyan;stroke-width:1;" pointer-events="none">
<polygon points="5,0 10,5 0,5 5,0" />
</symbol>
<symbol id="leftArrow" overflow="visible" style="stroke:darkcyan;fill:darkcyan;stroke-width:1;" pointer-events="none">
<polygon points="0,5 5,0 5,10 0,5" />
</symbol>
<symbol id="rightArrow" overflow="visible" style="stroke:darkcyan;fill:darkcyan;stroke-width:1;" pointer-events="none">
<polygon points="5,0 10,5 5,10 5,0" />
</symbol>
<symbol id="downArrow" overflow="visible" style="stroke:darkcyan;fill:darkcyan;stroke-width:1;" pointer-events="none">
<polygon points="0,0 5,5 10,0 0,0" />
</symbol>

</defs>
<svg id="mainMap" x="0" y="150" viewBox="0 0 1585 642" width="912" height="512">


<clipPath id="SVG_Clip">
<rect x="0" y="0" width="1585" height="642" />
</clipPath>
<g id="hds_models" style="clip-path:url(#SVG_Clip)">
<polyline id="r0"  stroke="rgb(102,102,102)" fill="none" stroke-width="3px" stroke-dasharray="" points="255, 287,230, 287" /> 
<polyline id="r0"  stroke="rgb(102,102,102)" fill="none" stroke-width="3px" stroke-dasharray="" points="280, 300,280, 325" /> 
<polyline id="r0"  stroke="rgb(102,102,102)" fill="none" stroke-width="3px" stroke-dasharray="" points="280, 275,280, 250" /> 
<polyline id="r0"  stroke="rgb(102,102,102)" fill="none" stroke-width="3px" stroke-dasharray="" points="1005, 262,1005, 237" /> 
<polyline id="r0"  stroke="rgb(102,102,102)" fill="none" stroke-width="3px" stroke-dasharray="" points="1005, 287,1005, 312" /> 
<polyline id="r0"  stroke="rgb(102,102,102)" fill="none" stroke-width="3px" stroke-dasharray="" points="1030, 275,1055, 275" /> 
<polyline id="r0"  stroke="rgb(192,192,192)" fill="rgb(192,192,192)" stroke-width="1px" stroke-dasharray="" points="1005, 262,1030, 275,1005, 287,1005, 262,1005, 262" /> 
<polyline id="r0"  stroke="rgb(102,102,102)" fill="none" stroke-width="3px" stroke-dasharray="" points="1005, 262,1030, 275,1005, 287,1005, 262,1005, 262" /> 
<polyline id="r0"  stroke="rgb(0,0,128)" fill="rgb(0,0,128)" stroke-width="1px" stroke-dasharray="" points="30, 283,43, 283,49, 287,43, 292,30, 292,30, 283" /> 
<polyline id="r0"  stroke="rgb(0,0,0)" fill="none" stroke-width="1px" stroke-dasharray="" points="30, 283,43, 283,49, 287,43, 292,30, 292,30, 283" /> 
<polyline id="r0"  stroke="rgb(0,0,128)" fill="rgb(0,0,128)" stroke-width="1px" stroke-dasharray="" points="30, 283,43, 283,49, 287,43, 292,30, 292,30, 283" /> 
<polyline id="r0"  stroke="rgb(0,0,0)" fill="none" stroke-width="1px" stroke-dasharray="" points="30, 283,43, 283,49, 287,43, 292,30, 292,30, 283" /> 
<polyline id="r0"  stroke="rgb(0,0,0)" fill="none" stroke-width="1px" stroke-dasharray="" points="49, 287,55, 287" /> 
<polyline id="r0"  stroke="rgb(0,0,128)" fill="rgb(0,0,128)" stroke-width="1px" stroke-dasharray="" points="1211, 270,1224, 270,1230, 275,1224, 280,1211, 280,1211, 270" /> 
<polyline id="r0"  stroke="rgb(0,0,0)" fill="none" stroke-width="1px" stroke-dasharray="" points="1211, 270,1224, 270,1230, 275,1224, 280,1211, 280,1211, 270" /> 
<polyline id="r0"  stroke="rgb(0,0,128)" fill="rgb(0,0,128)" stroke-width="1px" stroke-dasharray="" points="1211, 270,1224, 270,1230, 275,1224, 280,1211, 280,1211, 270" /> 
<polyline id="r0"  stroke="rgb(0,0,0)" fill="none" stroke-width="1px" stroke-dasharray="" points="1211, 270,1224, 270,1230, 275,1224, 280,1211, 280,1211, 270" /> 
<polyline id="r0"  stroke="rgb(0,0,0)" fill="none" stroke-width="1px" stroke-dasharray="" points="1205, 275,1211, 275" /> 
<polyline id="r0"  stroke="rgb(0,0,128)" fill="rgb(0,0,128)" stroke-width="1px" stroke-dasharray="" points="218, 120,230, 120,236, 125,230, 130,218, 130,218, 120" /> 
<polyline id="r0"  stroke="rgb(0,0,0)" fill="none" stroke-width="1px" stroke-dasharray="" points="218, 120,230, 120,236, 125,230, 130,218, 130,218, 120" /> 
<polyline id="r0"  stroke="rgb(0,0,128)" fill="rgb(0,0,128)" stroke-width="1px" stroke-dasharray="" points="218, 120,230, 120,236, 125,230, 130,218, 130,218, 120" /> 
<polyline id="r0"  stroke="rgb(0,0,0)" fill="none" stroke-width="1px" stroke-dasharray="" points="218, 120,230, 120,236, 125,230, 130,218, 130,218, 120" /> 
<polyline id="r0"  stroke="rgb(0,0,0)" fill="none" stroke-width="1px" stroke-dasharray="" points="236, 125,243, 125" /> 
<polyline id="r0"  stroke="rgb(0,0,128)" fill="rgb(0,0,128)" stroke-width="1px" stroke-dasharray="" points="218, 95,230, 95,236, 100,230, 105,218, 105,218, 95" /> 
<polyline id="r0"  stroke="rgb(0,0,0)" fill="none" stroke-width="1px" stroke-dasharray="" points="218, 95,230, 95,236, 100,230, 105,218, 105,218, 95" /> 
<polyline id="r0"  stroke="rgb(0,0,128)" fill="rgb(0,0,128)" stroke-width="1px" stroke-dasharray="" points="218, 95,230, 95,236, 100,230, 105,218, 105,218, 95" /> 
<polyline id="r0"  stroke="rgb(0,0,0)" fill="none" stroke-width="1px" stroke-dasharray="" points="218, 95,230, 95,236, 100,230, 105,218, 105,218, 95" /> 
<polyline id="r0"  stroke="rgb(0,0,0)" fill="none" stroke-width="1px" stroke-dasharray="" points="236, 100,243, 100" /> 
<rect id="r0"  stroke="rgb(254,254,179)" fill="rgb(254,254,179)" stroke-width="1px" stroke-dasharray="" y="625px" x="1117px" width="213px" height="12px" rx="0" ry="0" />
<rect id="r0"  stroke="rgb(0,0,0)" fill="none" stroke-width="1px" stroke-dasharray="" y="625px" x="1117px" width="213px" height="12px" rx="0" ry="0" />
<rect id="r0"  stroke="rgb(254,254,179)" fill="rgb(254,254,179)" stroke-width="1px" stroke-dasharray="" y="575px" x="1330px" width="50px" height="12px" rx="0" ry="0" />
<rect id="r0"  stroke="rgb(0,0,0)" fill="none" stroke-width="1px" stroke-dasharray="" y="575px" x="1330px" width="50px" height="12px" rx="0" ry="0" />
<rect id="r0"  stroke="rgb(254,254,179)" fill="rgb(254,254,179)" stroke-width="1px" stroke-dasharray="" y="600px" x="1117px" width="213px" height="12px" rx="0" ry="0" />
<rect id="r0"  stroke="rgb(0,0,0)" fill="none" stroke-width="1px" stroke-dasharray="" y="600px" x="1117px" width="213px" height="12px" rx="0" ry="0" />
<rect id="r0"  stroke="rgb(254,254,179)" fill="rgb(254,254,179)" stroke-width="1px" stroke-dasharray="" y="600px" x="1067px" width="50px" height="12px" rx="0" ry="0" />
<rect id="r0"  stroke="rgb(0,0,0)" fill="none" stroke-width="1px" stroke-dasharray="" y="600px" x="1067px" width="50px" height="12px" rx="0" ry="0" />
<rect id="r0"  stroke="rgb(254,254,179)" fill="rgb(254,254,179)" stroke-width="1px" stroke-dasharray="" y="587px" x="1330px" width="250px" height="50px" rx="0" ry="0" />
<rect id="r0"  stroke="rgb(0,0,0)" fill="none" stroke-width="1px" stroke-dasharray="" y="587px" x="1330px" width="250px" height="50px" rx="0" ry="0" />
<rect id="r0"  stroke="rgb(254,254,179)" fill="rgb(254,254,179)" stroke-width="1px" stroke-dasharray="" y="575px" x="1380px" width="200px" height="12px" rx="0" ry="0" />
<rect id="r0"  stroke="rgb(0,0,0)" fill="none" stroke-width="1px" stroke-dasharray="" y="575px" x="1380px" width="200px" height="12px" rx="0" ry="0" />
<rect id="r0"  stroke="rgb(254,254,179)" fill="rgb(254,254,179)" stroke-width="1px" stroke-dasharray="" y="575px" x="1067px" width="263px" height="25px" rx="0" ry="0" />
<rect id="r0"  stroke="rgb(0,0,0)" fill="none" stroke-width="1px" stroke-dasharray="" y="575px" x="1067px" width="263px" height="25px" rx="0" ry="0" />
<rect id="r0"  stroke="rgb(254,254,179)" fill="rgb(254,254,179)" stroke-width="1px" stroke-dasharray="" y="612px" x="1067px" width="50px" height="13px" rx="0" ry="0" />
<rect id="r0"  stroke="rgb(0,0,0)" fill="none" stroke-width="1px" stroke-dasharray="" y="612px" x="1067px" width="50px" height="13px" rx="0" ry="0" />
<rect id="r0"  stroke="rgb(254,254,179)" fill="rgb(254,254,179)" stroke-width="1px" stroke-dasharray="" y="625px" x="1067px" width="50px" height="12px" rx="0" ry="0" />
<rect id="r0"  stroke="rgb(0,0,0)" fill="none" stroke-width="1px" stroke-dasharray="" y="625px" x="1067px" width="50px" height="12px" rx="0" ry="0" />
<rect id="r0"  stroke="rgb(254,254,179)" fill="rgb(254,254,179)" stroke-width="1px" stroke-dasharray="" y="612px" x="1117px" width="213px" height="13px" rx="0" ry="0" />
<rect id="r0"  stroke="rgb(0,0,0)" fill="none" stroke-width="1px" stroke-dasharray="" y="612px" x="1117px" width="213px" height="13px" rx="0" ry="0" />
<a xlink:href='javascript:parent.location.href="../../Computer_Exercise_3_lib/@button_@filter/fsm_sm.htm"'>
<rect id="r0"  stroke="rgb(0,255,0)" fill="rgb(0,255,0)" stroke-width="1px" stroke-dasharray="" y="176px" x="431px" width="111px" height="61px" rx="0" ry="0" />
</a>
<rect id="r0"  stroke="rgb(0,128,0)" fill="none" stroke-width="3px" stroke-dasharray="" y="176px" x="431px" width="111px" height="61px" rx="0" ry="0" />
<a xlink:href='javascript:parent.location.href="../../Computer_Exercise_3_lib/@button_@filter/fsm_sm.htm"'>
<image xlink:href="StateMachineViewIcon.png" x="433" y="216" width="19" height="18" />
</a>
<a xlink:href='javascript:parent.location.href="../../Computer_Exercise_3_lib/@button_@filter/fsm_sm.htm"'>
<rect id="r0"  stroke="rgb(0,255,0)" fill="rgb(0,255,0)" stroke-width="1px" stroke-dasharray="" y="263px" x="531px" width="111px" height="62px" rx="0" ry="0" />
</a>
<rect id="r0"  stroke="rgb(0,128,0)" fill="none" stroke-width="3px" stroke-dasharray="" y="263px" x="531px" width="111px" height="62px" rx="0" ry="0" />
<a xlink:href='javascript:parent.location.href="../../Computer_Exercise_3_lib/@button_@filter/fsm_sm.htm"'>
<image xlink:href="StateMachineViewIcon.png" x="533" y="303" width="19" height="19" />
</a>
<a xlink:href='javascript:parent.location.href="../../Computer_Exercise_3_lib/@button_@filter/fsm_sm.htm"'>
<rect id="r0"  stroke="rgb(0,255,0)" fill="rgb(0,255,0)" stroke-width="1px" stroke-dasharray="" y="363px" x="643px" width="112px" height="62px" rx="0" ry="0" />
</a>
<rect id="r0"  stroke="rgb(0,128,0)" fill="none" stroke-width="3px" stroke-dasharray="" y="363px" x="643px" width="112px" height="62px" rx="0" ry="0" />
<a xlink:href='javascript:parent.location.href="../../Computer_Exercise_3_lib/@button_@filter/fsm_sm.htm"'>
<image xlink:href="StateMachineViewIcon.png" x="646" y="403" width="18" height="19" />
</a>
<a xlink:href='javascript:parent.location.href="../../Computer_Exercise_3_lib/@button_@filter/fsm_sm.htm"'>
<rect id="r0"  stroke="rgb(0,255,0)" fill="rgb(0,255,0)" stroke-width="1px" stroke-dasharray="" y="463px" x="743px" width="112px" height="62px" rx="0" ry="0" />
</a>
<rect id="r0"  stroke="rgb(0,128,0)" fill="none" stroke-width="3px" stroke-dasharray="" y="463px" x="743px" width="112px" height="62px" rx="0" ry="0" />
<a xlink:href='javascript:parent.location.href="../../Computer_Exercise_3_lib/@button_@filter/fsm_sm.htm"'>
<image xlink:href="StateMachineViewIcon.png" x="746" y="503" width="18" height="19" />
</a>
<polyline id="r0"  stroke="rgb(0,0,0)" fill="none" stroke-width="1px" stroke-dasharray="" points="49, 287,55, 287" /> 
<polyline id="r0"  stroke="rgb(0,0,0)" fill="none" stroke-width="1px" stroke-dasharray="" points="1205, 275,1211, 275" /> 
<polyline id="r0"  stroke="rgb(0,0,0)" fill="none" stroke-width="1px" stroke-dasharray="" points="236, 125,243, 125" /> 
<polyline id="r0"  stroke="rgb(0,0,0)" fill="none" stroke-width="1px" stroke-dasharray="" points="236, 100,243, 100" /> 
<a xlink:href='javascript:parent.location.href="../../Computer_Exercise_3_lib/@button_@filter/fsm_sm.htm"'>
<polyline id="r0"  stroke="rgb(0,255,0)" fill="rgb(0,255,0)" stroke-width="1px" stroke-dasharray="" points="480, 175,475, 166,485, 166,480, 175" /> 
</a>
<polyline id="r0"  stroke="rgb(0,0,0)" fill="none" stroke-width="1px" stroke-dasharray="" points="480, 175,475, 166,485, 166,480, 175" /> 
<a xlink:href='javascript:parent.location.href="../../Computer_Exercise_3_lib/@button_@filter/fsm_sm.htm"'>
<polyline id="r0"  stroke="rgb(0,255,0)" fill="rgb(0,255,0)" stroke-width="1px" stroke-dasharray="" points="505, 175,500, 166,510, 166,505, 175" /> 
</a>
<polyline id="r0"  stroke="rgb(0,0,0)" fill="none" stroke-width="1px" stroke-dasharray="" points="505, 175,500, 166,510, 166,505, 175" /> 
<a xlink:href='javascript:parent.location.href="../../Computer_Exercise_3_lib/@button_@filter/fsm_sm.htm"'>
<polyline id="r0"  stroke="rgb(0,255,0)" fill="rgb(0,255,0)" stroke-width="1px" stroke-dasharray="" points="430, 187,421, 192,421, 183,430, 187" /> 
</a>
<polyline id="r0"  stroke="rgb(0,0,0)" fill="none" stroke-width="1px" stroke-dasharray="" points="430, 187,421, 192,421, 183,430, 187" /> 
<a xlink:href='javascript:parent.location.href="../../Computer_Exercise_3_lib/@button_@filter/fsm_sm.htm"'>
<polyline id="r0"  stroke="rgb(0,255,0)" fill="rgb(0,255,0)" stroke-width="1px" stroke-dasharray="" points="552, 187,542, 192,542, 183,552, 187" /> 
</a>
<polyline id="r0"  stroke="rgb(0,0,0)" fill="none" stroke-width="1px" stroke-dasharray="" points="552, 187,542, 192,542, 183,552, 187" /> 
<a xlink:href='javascript:parent.location.href="../../Computer_Exercise_3_lib/@button_@filter/fsm_sm.htm"'>
<polyline id="r0"  stroke="rgb(0,255,0)" fill="rgb(0,255,0)" stroke-width="1px" stroke-dasharray="" points="580, 262,575, 253,585, 253,580, 262" /> 
</a>
<polyline id="r0"  stroke="rgb(0,0,0)" fill="none" stroke-width="1px" stroke-dasharray="" points="580, 262,575, 253,585, 253,580, 262" /> 
<a xlink:href='javascript:parent.location.href="../../Computer_Exercise_3_lib/@button_@filter/fsm_sm.htm"'>
<polyline id="r0"  stroke="rgb(0,255,0)" fill="rgb(0,255,0)" stroke-width="1px" stroke-dasharray="" points="605, 262,600, 253,610, 253,605, 262" /> 
</a>
<polyline id="r0"  stroke="rgb(0,0,0)" fill="none" stroke-width="1px" stroke-dasharray="" points="605, 262,600, 253,610, 253,605, 262" /> 
<a xlink:href='javascript:parent.location.href="../../Computer_Exercise_3_lib/@button_@filter/fsm_sm.htm"'>
<polyline id="r0"  stroke="rgb(0,255,0)" fill="rgb(0,255,0)" stroke-width="1px" stroke-dasharray="" points="530, 275,521, 280,521, 270,530, 275" /> 
</a>
<polyline id="r0"  stroke="rgb(0,0,0)" fill="none" stroke-width="1px" stroke-dasharray="" points="530, 275,521, 280,521, 270,530, 275" /> 
<a xlink:href='javascript:parent.location.href="../../Computer_Exercise_3_lib/@button_@filter/fsm_sm.htm"'>
<polyline id="r0"  stroke="rgb(0,255,0)" fill="rgb(0,255,0)" stroke-width="1px" stroke-dasharray="" points="652, 275,642, 280,642, 270,652, 275" /> 
</a>
<polyline id="r0"  stroke="rgb(0,0,0)" fill="none" stroke-width="1px" stroke-dasharray="" points="652, 275,642, 280,642, 270,652, 275" /> 
<a xlink:href='javascript:parent.location.href="../../Computer_Exercise_3_lib/@button_@filter/fsm_sm.htm"'>
<polyline id="r0"  stroke="rgb(0,255,0)" fill="rgb(0,255,0)" stroke-width="1px" stroke-dasharray="" points="692, 362,688, 353,697, 353,692, 362" /> 
</a>
<polyline id="r0"  stroke="rgb(0,0,0)" fill="none" stroke-width="1px" stroke-dasharray="" points="692, 362,688, 353,697, 353,692, 362" /> 
<a xlink:href='javascript:parent.location.href="../../Computer_Exercise_3_lib/@button_@filter/fsm_sm.htm"'>
<polyline id="r0"  stroke="rgb(0,255,0)" fill="rgb(0,255,0)" stroke-width="1px" stroke-dasharray="" points="717, 362,713, 353,722, 353,717, 362" /> 
</a>
<polyline id="r0"  stroke="rgb(0,0,0)" fill="none" stroke-width="1px" stroke-dasharray="" points="717, 362,713, 353,722, 353,717, 362" /> 
<a xlink:href='javascript:parent.location.href="../../Computer_Exercise_3_lib/@button_@filter/fsm_sm.htm"'>
<polyline id="r0"  stroke="rgb(0,255,0)" fill="rgb(0,255,0)" stroke-width="1px" stroke-dasharray="" points="642, 375,633, 380,633, 370,642, 375" /> 
</a>
<polyline id="r0"  stroke="rgb(0,0,0)" fill="none" stroke-width="1px" stroke-dasharray="" points="642, 375,633, 380,633, 370,642, 375" /> 
<a xlink:href='javascript:parent.location.href="../../Computer_Exercise_3_lib/@button_@filter/fsm_sm.htm"'>
<polyline id="r0"  stroke="rgb(0,255,0)" fill="rgb(0,255,0)" stroke-width="1px" stroke-dasharray="" points="764, 375,755, 380,755, 370,764, 375" /> 
</a>
<polyline id="r0"  stroke="rgb(0,0,0)" fill="none" stroke-width="1px" stroke-dasharray="" points="764, 375,755, 380,755, 370,764, 375" /> 
<a xlink:href='javascript:parent.location.href="../../Computer_Exercise_3_lib/@button_@filter/fsm_sm.htm"'>
<polyline id="r0"  stroke="rgb(0,255,0)" fill="rgb(0,255,0)" stroke-width="1px" stroke-dasharray="" points="792, 462,788, 453,797, 453,792, 462" /> 
</a>
<polyline id="r0"  stroke="rgb(0,0,0)" fill="none" stroke-width="1px" stroke-dasharray="" points="792, 462,788, 453,797, 453,792, 462" /> 
<a xlink:href='javascript:parent.location.href="../../Computer_Exercise_3_lib/@button_@filter/fsm_sm.htm"'>
<polyline id="r0"  stroke="rgb(0,255,0)" fill="rgb(0,255,0)" stroke-width="1px" stroke-dasharray="" points="817, 462,813, 453,822, 453,817, 462" /> 
</a>
<polyline id="r0"  stroke="rgb(0,0,0)" fill="none" stroke-width="1px" stroke-dasharray="" points="817, 462,813, 453,822, 453,817, 462" /> 
<a xlink:href='javascript:parent.location.href="../../Computer_Exercise_3_lib/@button_@filter/fsm_sm.htm"'>
<polyline id="r0"  stroke="rgb(0,255,0)" fill="rgb(0,255,0)" stroke-width="1px" stroke-dasharray="" points="742, 475,733, 480,733, 470,742, 475" /> 
</a>
<polyline id="r0"  stroke="rgb(0,0,0)" fill="none" stroke-width="1px" stroke-dasharray="" points="742, 475,733, 480,733, 470,742, 475" /> 
<a xlink:href='javascript:parent.location.href="../../Computer_Exercise_3_lib/@button_@filter/fsm_sm.htm"'>
<polyline id="r0"  stroke="rgb(0,255,0)" fill="rgb(0,255,0)" stroke-width="1px" stroke-dasharray="" points="864, 475,855, 480,855, 470,864, 475" /> 
</a>
<polyline id="r0"  stroke="rgb(0,0,0)" fill="none" stroke-width="1px" stroke-dasharray="" points="864, 475,855, 480,855, 470,864, 475" /> 
<circle id="r0"  stroke="rgb(0,0,0)" fill="rgb(0,0,0)" stroke-width="1px" stroke-dasharray="" cx="692" cy="125" r="5"/> 
<circle stroke="rgb(0,0,0)" fill="none" stroke-width="1px" stroke-dasharray="" cx="692" cy="125" r="5"/> 
<circle id="r0"  stroke="rgb(0,0,0)" fill="rgb(0,0,0)" stroke-width="1px" stroke-dasharray="" cx="580" cy="125" r="5"/> 
<circle stroke="rgb(0,0,0)" fill="none" stroke-width="1px" stroke-dasharray="" cx="580" cy="125" r="5"/> 
<circle id="r0"  stroke="rgb(0,0,0)" fill="rgb(0,0,0)" stroke-width="1px" stroke-dasharray="" cx="480" cy="125" r="5"/> 
<circle stroke="rgb(0,0,0)" fill="none" stroke-width="1px" stroke-dasharray="" cx="480" cy="125" r="5"/> 
<circle id="r0"  stroke="rgb(0,0,0)" fill="rgb(0,0,0)" stroke-width="1px" stroke-dasharray="" cx="717" cy="100" r="5"/> 
<circle stroke="rgb(0,0,0)" fill="none" stroke-width="1px" stroke-dasharray="" cx="717" cy="100" r="5"/> 
<circle id="r0"  stroke="rgb(0,0,0)" fill="rgb(0,0,0)" stroke-width="1px" stroke-dasharray="" cx="605" cy="100" r="5"/> 
<circle stroke="rgb(0,0,0)" fill="none" stroke-width="1px" stroke-dasharray="" cx="605" cy="100" r="5"/> 
<circle id="r0"  stroke="rgb(0,0,0)" fill="rgb(0,0,0)" stroke-width="1px" stroke-dasharray="" cx="492" cy="100" r="5"/> 
<circle stroke="rgb(0,0,0)" fill="none" stroke-width="1px" stroke-dasharray="" cx="492" cy="100" r="5"/> 
<polyline id="r0"  stroke="rgb(192,192,192)" fill="rgb(192,192,192)" stroke-width="1px" stroke-dasharray="" points="255, 287,280, 275,280, 300,255, 287,255, 287" /> 
<polyline id="r0"  stroke="rgb(102,102,102)" fill="none" stroke-width="3px" stroke-dasharray="" points="255, 287,280, 275,280, 300,255, 287,255, 287" /> 
<text x="530" y="32" font-family="Courier New" fill="rgb(0,0,0)" font-size="10" text-anchor="start">btn           : std_logic_vector(3 DOWNTO 0)</text>
<text x="530" y="62" font-family="Courier New" fill="rgb(0,0,0)" font-size="10" text-anchor="start">btn_out       : std_logic_vector(3 DOWNTO 0)</text>
<text x="657" y="447" font-family="arial" fill="rgb(0,0,0)" font-weight="800" font-size="10" text-anchor="start">Computer_Exercise_3_lib</text>
<text x="530" y="145" font-family="Courier New" fill="rgb(0,0,0)" font-size="10" text-anchor="start">SIGNAL dout0         : std_logic</text>
<text x="530" y="115" font-family="Courier New" fill="rgb(0,0,0)" font-size="10" text-anchor="start">SIGNAL btn_in        : std_logic</text>
<text x="530" y="125" font-family="Courier New" fill="rgb(0,0,0)" font-size="10" text-anchor="start">SIGNAL btn_in1       : std_logic</text>
<text x="530" y="155" font-family="Courier New" fill="rgb(0,0,0)" font-size="10" text-anchor="start">SIGNAL dout3         : std_logic</text>
<text x="530" y="85" font-family="Courier New" fill="rgb(0,0,0)" font-size="10" text-anchor="start">SIGNAL btn_filtered  : std_logic</text>
<text x="530" y="95" font-family="Courier New" fill="rgb(0,0,0)" font-size="10" text-anchor="start">SIGNAL btn_filtered1 : std_logic</text>
<text x="530" y="135" font-family="Courier New" fill="rgb(0,0,0)" font-size="10" text-anchor="start">SIGNAL din2          : std_logic</text>
<text x="530" y="105" font-family="Courier New" fill="rgb(0,0,0)" font-size="10" text-anchor="start">SIGNAL btn_filtered2 : std_logic</text>
<text x="255" y="22" font-family="arial" fill="rgb(0,0,0)" font-size="10" text-anchor="start">LIBRARY ieee;</text>
<text x="255" y="35" font-family="arial" fill="rgb(0,0,0)" font-size="10" text-anchor="start">USE ieee.std_logic_1164.all;</text>
<text x="255" y="47" font-family="arial" fill="rgb(0,0,0)" font-size="10" text-anchor="start">USE ieee.std_logic_arith.all;</text>
<text x="0" y="0" font-family="arial" fill="rgb(0,0,0)" transform="translate(492,154) rotate(270)" font-size="10" >rst_n</text>
<text x="0" y="0" font-family="arial" fill="rgb(0,0,0)" transform="translate(467,158) rotate(270)" font-size="10" >clk</text>
<text x="255" y="10" font-family="arial" fill="rgb(0,0,0)" font-weight="800" font-size="10" text-anchor="start">Package List</text>
<text x="205" y="129" font-family="arial" fill="rgb(0,0,0)" font-size="10" text-anchor="end">clk</text>
<text x="205" y="104" font-family="arial" fill="rgb(0,0,0)" font-size="10" text-anchor="end">rst_n</text>
<text x="505" y="10" font-family="arial" fill="rgb(0,0,0)" font-weight="800" font-size="10" text-anchor="start">Declarations</text>
<text x="505" y="22" font-family="arial" fill="rgb(0,0,0)" font-weight="800" font-size="10" text-anchor="start">Ports:</text>
<text x="505" y="75" font-family="arial" fill="rgb(0,0,0)" font-weight="800" font-size="10" text-anchor="start">Diagram Signals:</text>
<text x="530" y="42" font-family="Courier New" fill="rgb(0,0,0)" font-size="10" text-anchor="start">clk           : std_logic</text>
<text x="530" y="52" font-family="Courier New" fill="rgb(0,0,0)" font-size="10" text-anchor="start">rst_n         : std_logic</text>
<text x="18" y="291" font-family="arial" fill="rgb(0,0,0)" font-size="10" text-anchor="end">btn</text>
<text x="250" y="299" font-family="arial" fill="rgb(0,0,0)" font-size="10" text-anchor="middle">msb</text>
<text x="253" y="281" font-family="arial" fill="rgb(0,0,0)" font-size="10" text-anchor="middle">lsb</text>
<text x="445" y="260" font-family="arial" fill="rgb(0,0,0)" font-weight="800" font-size="10" text-anchor="start">Computer_Exercise_3_lib</text>
<text x="445" y="272" font-family="arial" fill="rgb(0,0,0)" font-weight="800" font-size="10" text-anchor="start">Button_Filter</text>
<text x="445" y="285" font-family="arial" fill="rgb(0,0,0)" font-weight="800" font-size="10" text-anchor="start">U_0</text>
<text x="0" y="0" font-family="arial" fill="rgb(0,0,0)" transform="translate(473,199) rotate(270)" font-size="10" >clk</text>
<text x="0" y="0" font-family="arial" fill="rgb(0,0,0)" transform="translate(498,197) rotate(270)" font-size="10" >rst</text>
<text x="442" y="191" font-family="arial" fill="rgb(0,0,0)" font-size="10" text-anchor="start">btn_in</text>
<text x="530" y="191" font-family="arial" fill="rgb(0,0,0)" font-size="10" text-anchor="end">btn_filtered</text>
<text x="0" y="0" font-family="arial" fill="rgb(0,0,0)" transform="translate(573,287) rotate(270)" font-size="10" >clk</text>
<text x="0" y="0" font-family="arial" fill="rgb(0,0,0)" transform="translate(598,285) rotate(270)" font-size="10" >rst</text>
<text x="542" y="279" font-family="arial" fill="rgb(0,0,0)" font-size="10" text-anchor="start">btn_in</text>
<text x="630" y="279" font-family="arial" fill="rgb(0,0,0)" font-size="10" text-anchor="end">btn_filtered</text>
<text x="0" y="0" font-family="arial" fill="rgb(0,0,0)" transform="translate(592,242) rotate(270)" font-size="10" >rst_n</text>
<text x="0" y="0" font-family="arial" fill="rgb(0,0,0)" transform="translate(567,246) rotate(270)" font-size="10" >clk</text>
<text x="483" y="272" font-family="arial" fill="rgb(0,0,0)" font-size="10" text-anchor="start">btn_in</text>
<text x="577" y="185" font-family="arial" fill="rgb(0,0,0)" font-size="10" text-anchor="start">btn_filtered</text>
<text x="677" y="272" font-family="arial" fill="rgb(0,0,0)" font-size="10" text-anchor="start">btn_filtered1</text>
<text x="1242" y="279" font-family="arial" fill="rgb(0,0,0)" font-size="10" text-anchor="start">btn_out</text>
<text x="1035" y="270" font-family="arial" fill="rgb(0,0,0)" font-size="10" text-anchor="middle">lsb</text>
<text x="1035" y="286" font-family="arial" fill="rgb(0,0,0)" font-size="10" text-anchor="middle">msb</text>
<text x="545" y="347" font-family="arial" fill="rgb(0,0,0)" font-weight="800" font-size="10" text-anchor="start">Computer_Exercise_3_lib</text>
<text x="545" y="360" font-family="arial" fill="rgb(0,0,0)" font-weight="800" font-size="10" text-anchor="start">Button_Filter</text>
<text x="545" y="372" font-family="arial" fill="rgb(0,0,0)" font-weight="800" font-size="10" text-anchor="start">U_1</text>
<text x="657" y="460" font-family="arial" fill="rgb(0,0,0)" font-weight="800" font-size="10" text-anchor="start">Button_Filter</text>
<text x="657" y="472" font-family="arial" fill="rgb(0,0,0)" font-weight="800" font-size="10" text-anchor="start">U_2</text>
<text x="0" y="0" font-family="arial" fill="rgb(0,0,0)" transform="translate(685,387) rotate(270)" font-size="10" >clk</text>
<text x="0" y="0" font-family="arial" fill="rgb(0,0,0)" transform="translate(710,385) rotate(270)" font-size="10" >rst</text>
<text x="655" y="379" font-family="arial" fill="rgb(0,0,0)" font-size="10" text-anchor="start">btn_in</text>
<text x="742" y="379" font-family="arial" fill="rgb(0,0,0)" font-size="10" text-anchor="end">btn_filtered</text>
<text x="241" y="347" font-family="arial" fill="rgb(0,0,0)" font-size="10" text-anchor="start">split</text>
<text x="241" y="360" font-family="arial" fill="rgb(0,0,0)" font-size="10" text-anchor="start">U_5</text>
<text x="0" y="0" font-family="arial" fill="rgb(0,0,0)" transform="translate(704,342) rotate(270)" font-size="10" >rst_n</text>
<text x="0" y="0" font-family="arial" fill="rgb(0,0,0)" transform="translate(679,346) rotate(270)" font-size="10" >clk</text>
<text x="583" y="372" font-family="arial" fill="rgb(0,0,0)" font-size="10" text-anchor="start">btn_in1</text>
<text x="1120" y="635" font-family="Arial" fill="rgb(0,0,128)" font-size="10" text-anchor="start">by mfhubu on 01 marras 2019</text>
<text x="1332" y="585" font-family="Arial" fill="rgb(0,0,128)" font-size="10" text-anchor="start">Project:</text>
<text x="1120" y="610" font-family="Arial" fill="rgb(0,0,128)" font-size="10" text-anchor="start">&#0060;enter diagram title here&#0062;</text>
<text x="1070" y="610" font-family="Arial" fill="rgb(0,0,128)" font-size="10" text-anchor="start">Title:</text>
<text x="1332" y="600" font-family="Arial" fill="rgb(0,0,128)" font-size="10" text-anchor="start">&#0060;enter comments here&#0062;</text>
<text x="1382" y="585" font-family="Arial" fill="rgb(0,0,128)" font-size="10" text-anchor="start">Computer_Exercise_3</text>
<text x="1199" y="591" font-family="Arial" fill="rgb(127,0,0)" font-size="10" text-anchor="middle">&#0060;company name&#0062;</text>
<text x="1070" y="622" font-family="Arial" fill="rgb(0,0,128)" font-size="10" text-anchor="start">Path:</text>
<text x="1070" y="635" font-family="Arial" fill="rgb(0,0,128)" font-size="10" text-anchor="start">Edited:</text>
<text x="1120" y="622" font-family="Arial" fill="rgb(0,0,128)" font-size="10" text-anchor="start">  &#0060;&#0060;-- more --&#0062;&#0062;</text>
<text x="757" y="547" font-family="arial" fill="rgb(0,0,0)" font-weight="800" font-size="10" text-anchor="start">Computer_Exercise_3_lib</text>
<text x="757" y="560" font-family="arial" fill="rgb(0,0,0)" font-weight="800" font-size="10" text-anchor="start">Button_Filter</text>
<text x="757" y="572" font-family="arial" fill="rgb(0,0,0)" font-weight="800" font-size="10" text-anchor="start">U_4</text>
<text x="0" y="0" font-family="arial" fill="rgb(0,0,0)" transform="translate(785,487) rotate(270)" font-size="10" >clk</text>
<text x="0" y="0" font-family="arial" fill="rgb(0,0,0)" transform="translate(810,485) rotate(270)" font-size="10" >rst</text>
<text x="755" y="479" font-family="arial" fill="rgb(0,0,0)" font-size="10" text-anchor="start">btn_in</text>
<text x="842" y="479" font-family="arial" fill="rgb(0,0,0)" font-size="10" text-anchor="end">btn_filtered</text>
<text x="1016" y="335" font-family="arial" fill="rgb(0,0,0)" font-size="10" text-anchor="start">merge</text>
<text x="1016" y="347" font-family="arial" fill="rgb(0,0,0)" font-size="10" text-anchor="start">U_6</text>
<text x="889" y="472" font-family="arial" fill="rgb(0,0,0)" font-size="10" text-anchor="start">btn_filtered2</text>
<g id="btn_net" stroke="rgb(0,0,0)" stroke-width="3px"  >
<polyline id="r0"  fill="none"  stroke-dasharray="" points="55, 287,230, 287" /> 
</g>
<g id="btn_filtered_net" stroke="rgb(0,0,0)" stroke-width="1px"  >
<polyline id="r0"  fill="none"  stroke-dasharray="" points="552, 187,942, 187,942, 237,1005, 237" /> 
</g>
<g id="btn_filtered1_net" stroke="rgb(0,0,0)" stroke-width="1px"  >
<polyline id="r0"  fill="none"  stroke-dasharray="" points="652, 275,655, 275,655, 262,1005, 262" /> 
</g>
<g id="btn_filtered2_net" stroke="rgb(0,0,0)" stroke-width="1px"  >
<polyline id="r0"  fill="none"  stroke-dasharray="" points="864, 475,880, 475,880, 312,1005, 312" /> 
</g>
<g id="btn_in_net" stroke="rgb(0,0,0)" stroke-width="1px"  >
<polyline id="r0"  fill="none"  stroke-dasharray="" points="521, 275,280, 275" /> 
</g>
<g id="btn_in1_net" stroke="rgb(0,0,0)" stroke-width="1px"  >
<polyline id="r0"  fill="none"  stroke-dasharray="" points="633, 375,367, 375,367, 300,280, 300" /> 
</g>
<g id="btn_out_net" stroke="rgb(0,0,0)" stroke-width="3px"  >
<polyline id="r0"  fill="none"  stroke-dasharray="" points="1205, 275,1055, 275" /> 
</g>
<g id="clk_net" stroke="rgb(0,0,0)" stroke-width="1px"  >
<polyline id="r0"  fill="none"  stroke-dasharray="" points="243, 125,792, 125,792, 453" /> 
<polyline id="r0"  fill="none"  stroke-dasharray="" points="692, 353,692, 125" /> 
<polyline id="r0"  fill="none"  stroke-dasharray="" points="580, 253,580, 125" /> 
<polyline id="r0"  fill="none"  stroke-dasharray="" points="480, 166,480, 125" /> 
</g>
<g id="din2_net" stroke="rgb(0,0,0)" stroke-width="1px"  >
<polyline id="r0"  fill="none"  stroke-dasharray="" points="1005, 287,780, 287,780, 375,764, 375" /> 
</g>
<g id="dout0_net" stroke="rgb(0,0,0)" stroke-width="1px"  >
<polyline id="r0"  fill="none"  stroke-dasharray="" points="280, 250,305, 250,305, 187,421, 187" /> 
</g>
<g id="dout3_net" stroke="rgb(0,0,0)" stroke-width="1px"  >
<polyline id="r0"  fill="none"  stroke-dasharray="" points="280, 325,317, 325,317, 475,733, 475" /> 
</g>
<g id="rst_n_net" stroke="rgb(0,0,0)" stroke-width="1px"  >
<polyline id="r0"  fill="none"  stroke-dasharray="" points="243, 100,817, 100,817, 453" /> 
<polyline id="r0"  fill="none"  stroke-dasharray="" points="717, 353,717, 100" /> 
<polyline id="r0"  fill="none"  stroke-dasharray="" points="605, 253,605, 100" /> 
<polyline id="r0"  fill="none"  stroke-dasharray="" points="505, 166,505, 100,492, 100" /> 
</g>
</g>
</svg>
<!-- Create a "titlebox" group so we can reposition it when the SVG moves -->
<g id="titlebox">
<g id="genTime" class="allText normalText">
  <text class="allText smallText" x="300" y="123">Generated on:  1.11.2019 at:  4:14 ip.</text>
</g>

<rect stroke="none" fill="rgb(200,230,240)" opacity="0.4" y="112" x="0" width="914" height="15" />
<!-- Close the "titlebox" group -->
</g>

</g>
</svg>
