<?xml version="1.0" encoding="UTF-8"?>
<!DOCTYPE svg PUBLIC "-//W3C//DTD SVG 1.1//EN" "http://www.w3.org/Graphics/SVG/1.1/DTD/svg11.dtd">
<!-- Created HDS 2004.1a -->


<svg xmlns="http://www.w3.org/2000/svg" xmlns:xlink="http://www.w3.org/1999/xlink" version="1.1">
<script xlink:href="../../scripts/SVGPan.js" />
<g id="viewport" transform="translate(0,-100)">


<title>SVG Image</title>
<desc></desc>


<defs>
<!-- section for CSS stylesheet definitions -->
<style type="text/css"><![CDATA[
.allText {font-family:Sans-Serif;fill:darkcyan;}
.subTitleText {font-size:20;font-weight:bold;}
.normalText {font-size:15;}
.smallText {font-size:12;}
.boldText {font-weight:bold;}
.rightText {text-anchor:end;}
.centerText {text-anchor:middle;}
.dragRect {fill:darkcyan;stroke:none;opacity:0.4;}
]]></style>
<symbol id="upArrow" overflow="visible" style="stroke:darkcyan;fill:darkcyan;stroke-width:1;" pointer-events="none">
<polygon points="5,0 10,5 0,5 5,0" />
</symbol>
<symbol id="leftArrow" overflow="visible" style="stroke:darkcyan;fill:darkcyan;stroke-width:1;" pointer-events="none">
<polygon points="0,5 5,0 5,10 0,5" />
</symbol>
<symbol id="rightArrow" overflow="visible" style="stroke:darkcyan;fill:darkcyan;stroke-width:1;" pointer-events="none">
<polygon points="5,0 10,5 5,10 5,0" />
</symbol>
<symbol id="downArrow" overflow="visible" style="stroke:darkcyan;fill:darkcyan;stroke-width:1;" pointer-events="none">
<polygon points="0,0 5,5 10,0 0,0" />
</symbol>

</defs>
<svg id="mainMap" x="0" y="150" viewBox="0 0 2200 1355" width="912" height="512">


<clipPath id="SVG_Clip">
<rect x="0" y="0" width="2200" height="1355" />
</clipPath>
<g id="hds_models" style="clip-path:url(#SVG_Clip)">
<polyline id="r0"  stroke="rgb(0,255,255)" fill="rgb(0,255,255)" stroke-width="1px" stroke-dasharray="" points="895, 537,945, 537,945, 612,895, 612,895, 537,895, 537" /> 
<polyline id="r0"  stroke="rgb(102,102,102)" fill="none" stroke-width="1px" stroke-dasharray="" points="895, 537,945, 537,945, 612,895, 612,895, 537,895, 537" /> 
<polyline id="r0"  stroke="rgb(0,255,255)" fill="rgb(0,255,255)" stroke-width="1px" stroke-dasharray="" points="645, 725,670, 742,670, 758,645, 775,645, 725,645, 725" /> 
<polyline id="r0"  stroke="rgb(102,102,102)" fill="none" stroke-width="1px" stroke-dasharray="" points="645, 725,670, 742,670, 758,645, 775,645, 725,645, 725" /> 
<polyline id="r0"  stroke="rgb(0,0,0)" fill="none" stroke-width="1px" stroke-dasharray="" points="645, 775,645, 787" /> 
<polyline id="r0"  stroke="rgb(0,0,0)" fill="none" stroke-width="1px" stroke-dasharray="" points="645, 725,645, 712" /> 
<a xlink:href='javascript:parent.location.href="../../Computer_Exerccise_2_lib/@c2_@t3_@leftshifter/struct_bd.htm"'>
<rect id="r0"  stroke="rgb(0,255,0)" fill="rgb(0,255,0)" stroke-width="1px" stroke-dasharray="" y="713px" x="146px" width="124px" height="87px" rx="0" ry="0" />
</a>
<rect id="r0"  stroke="rgb(0,128,0)" fill="none" stroke-width="3px" stroke-dasharray="" y="713px" x="146px" width="124px" height="87px" rx="0" ry="0" />
<polyline id="r0"  stroke="rgb(0,0,128)" fill="rgb(0,0,128)" stroke-width="1px" stroke-dasharray="" points="107, 183,120, 183,126, 187,120, 192,107, 192,107, 183" /> 
<polyline id="r0"  stroke="rgb(0,0,0)" fill="none" stroke-width="1px" stroke-dasharray="" points="107, 183,120, 183,126, 187,120, 192,107, 192,107, 183" /> 
<polyline id="r0"  stroke="rgb(0,0,128)" fill="rgb(0,0,128)" stroke-width="1px" stroke-dasharray="" points="107, 183,120, 183,126, 187,120, 192,107, 192,107, 183" /> 
<polyline id="r0"  stroke="rgb(0,0,0)" fill="none" stroke-width="1px" stroke-dasharray="" points="107, 183,120, 183,126, 187,120, 192,107, 192,107, 183" /> 
<polyline id="r0"  stroke="rgb(0,0,0)" fill="none" stroke-width="1px" stroke-dasharray="" points="126, 187,132, 187" /> 
<polyline id="r0"  stroke="rgb(0,0,128)" fill="rgb(0,0,128)" stroke-width="1px" stroke-dasharray="" points="45, 433,58, 433,64, 437,58, 442,45, 442,45, 433" /> 
<polyline id="r0"  stroke="rgb(0,0,0)" fill="none" stroke-width="1px" stroke-dasharray="" points="45, 433,58, 433,64, 437,58, 442,45, 442,45, 433" /> 
<polyline id="r0"  stroke="rgb(0,0,128)" fill="rgb(0,0,128)" stroke-width="1px" stroke-dasharray="" points="45, 433,58, 433,64, 437,58, 442,45, 442,45, 433" /> 
<polyline id="r0"  stroke="rgb(0,0,0)" fill="none" stroke-width="1px" stroke-dasharray="" points="45, 433,58, 433,64, 437,58, 442,45, 442,45, 433" /> 
<polyline id="r0"  stroke="rgb(0,0,0)" fill="none" stroke-width="1px" stroke-dasharray="" points="64, 437,70, 437" /> 
<polyline id="r0"  stroke="rgb(0,0,128)" fill="rgb(0,0,128)" stroke-width="1px" stroke-dasharray="" points="107, 208,120, 208,126, 212,120, 217,107, 217,107, 208" /> 
<polyline id="r0"  stroke="rgb(0,0,0)" fill="none" stroke-width="1px" stroke-dasharray="" points="107, 208,120, 208,126, 212,120, 217,107, 217,107, 208" /> 
<polyline id="r0"  stroke="rgb(0,0,128)" fill="rgb(0,0,128)" stroke-width="1px" stroke-dasharray="" points="107, 208,120, 208,126, 212,120, 217,107, 217,107, 208" /> 
<polyline id="r0"  stroke="rgb(0,0,0)" fill="none" stroke-width="1px" stroke-dasharray="" points="107, 208,120, 208,126, 212,120, 217,107, 217,107, 208" /> 
<polyline id="r0"  stroke="rgb(0,0,0)" fill="none" stroke-width="1px" stroke-dasharray="" points="126, 212,132, 212" /> 
<a xlink:href='javascript:parent.location.href="../../Computer_Exerccise_2_lib/@basic_@alien_@direction/struct_bd.htm"'>
<rect id="r0"  stroke="rgb(0,255,0)" fill="rgb(0,255,0)" stroke-width="1px" stroke-dasharray="" y="426px" x="321px" width="224px" height="149px" rx="0" ry="0" />
</a>
<rect id="r0"  stroke="rgb(0,128,0)" fill="none" stroke-width="3px" stroke-dasharray="" y="426px" x="321px" width="224px" height="149px" rx="0" ry="0" />
<a xlink:href='javascript:parent.location.href="../../Computer_Exerccise_2_lib/@basic_@alien_@direction/struct_bd.htm"'>
<image xlink:href="BlockDiagram.png" x="323" y="553" width="19" height="19" />
</a>
<polyline id="r0"  stroke="rgb(0,0,128)" fill="rgb(0,0,128)" stroke-width="1px" stroke-dasharray="" points="1426, 183,1439, 183,1445, 187,1439, 192,1426, 192,1426, 183" /> 
<polyline id="r0"  stroke="rgb(0,0,0)" fill="none" stroke-width="1px" stroke-dasharray="" points="1426, 183,1439, 183,1445, 187,1439, 192,1426, 192,1426, 183" /> 
<polyline id="r0"  stroke="rgb(0,0,128)" fill="rgb(0,0,128)" stroke-width="1px" stroke-dasharray="" points="1426, 183,1439, 183,1445, 187,1439, 192,1426, 192,1426, 183" /> 
<polyline id="r0"  stroke="rgb(0,0,0)" fill="none" stroke-width="1px" stroke-dasharray="" points="1426, 183,1439, 183,1445, 187,1439, 192,1426, 192,1426, 183" /> 
<polyline id="r0"  stroke="rgb(0,0,0)" fill="none" stroke-width="1px" stroke-dasharray="" points="1420, 187,1426, 187" /> 
<polyline id="r0"  stroke="rgb(0,0,128)" fill="rgb(0,0,128)" stroke-width="1px" stroke-dasharray="" points="1276, 445,1289, 445,1295, 450,1289, 455,1276, 455,1276, 445" /> 
<polyline id="r0"  stroke="rgb(0,0,0)" fill="none" stroke-width="1px" stroke-dasharray="" points="1276, 445,1289, 445,1295, 450,1289, 455,1276, 455,1276, 445" /> 
<polyline id="r0"  stroke="rgb(0,0,128)" fill="rgb(0,0,128)" stroke-width="1px" stroke-dasharray="" points="1276, 445,1289, 445,1295, 450,1289, 455,1276, 455,1276, 445" /> 
<polyline id="r0"  stroke="rgb(0,0,0)" fill="none" stroke-width="1px" stroke-dasharray="" points="1276, 445,1289, 445,1295, 450,1289, 455,1276, 455,1276, 445" /> 
<polyline id="r0"  stroke="rgb(0,0,0)" fill="none" stroke-width="1px" stroke-dasharray="" points="1270, 450,1276, 450" /> 
<a xlink:href='javascript:parent.location.href="../../Computer_Exerccise_2_lib/@basic_@alien_y_coord/struct_bd.htm"'>
<rect id="r0"  stroke="rgb(0,255,0)" fill="rgb(0,255,0)" stroke-width="1px" stroke-dasharray="" y="176px" x="1171px" width="124px" height="111px" rx="0" ry="0" />
</a>
<rect id="r0"  stroke="rgb(0,128,0)" fill="none" stroke-width="3px" stroke-dasharray="" y="176px" x="1171px" width="124px" height="111px" rx="0" ry="0" />
<a xlink:href='javascript:parent.location.href="../../Computer_Exerccise_2_lib/@basic_@alien_y_coord/struct_bd.htm"'>
<image xlink:href="BlockDiagram.png" x="1173" y="266" width="19" height="18" />
</a>
<polyline id="r0"  stroke="rgb(0,0,128)" fill="rgb(0,0,128)" stroke-width="1px" stroke-dasharray="" points="245, 1033,258, 1033,264, 1037,258, 1042,245, 1042,245, 1033" /> 
<polyline id="r0"  stroke="rgb(0,0,0)" fill="none" stroke-width="1px" stroke-dasharray="" points="245, 1033,258, 1033,264, 1037,258, 1042,245, 1042,245, 1033" /> 
<polyline id="r0"  stroke="rgb(0,0,128)" fill="rgb(0,0,128)" stroke-width="1px" stroke-dasharray="" points="245, 1033,258, 1033,264, 1037,258, 1042,245, 1042,245, 1033" /> 
<polyline id="r0"  stroke="rgb(0,0,0)" fill="none" stroke-width="1px" stroke-dasharray="" points="245, 1033,258, 1033,264, 1037,258, 1042,245, 1042,245, 1033" /> 
<polyline id="r0"  stroke="rgb(0,0,0)" fill="none" stroke-width="1px" stroke-dasharray="" points="264, 1037,270, 1037" /> 
<a xlink:href='javascript:parent.location.href="../../Computer_Exerccise_2_lib/@c2_@t4_@rightshifter/struct_bd.htm"'>
<rect id="r0"  stroke="rgb(0,255,0)" fill="rgb(0,255,0)" stroke-width="1px" stroke-dasharray="" y="813px" x="146px" width="124px" height="87px" rx="0" ry="0" />
</a>
<rect id="r0"  stroke="rgb(0,128,0)" fill="none" stroke-width="3px" stroke-dasharray="" y="813px" x="146px" width="124px" height="87px" rx="0" ry="0" />
<a xlink:href='javascript:parent.location.href="../../Computer_Exerccise_2_lib/@c2_@t4_@rightshifter/struct_bd.htm"'>
<image xlink:href="BlockDiagram.png" x="148" y="878" width="19" height="19" />
</a>
<a xlink:href='javascript:parent.location.href="../../Computer_Exerccise_2_lib/@c2_@t3_@leftshifter/struct_bd.htm"'>
<image xlink:href="BlockDiagram.png" x="148" y="778" width="19" height="19" />
</a>
<a xlink:href='javascript:parent.location.href="../../Computer_Exerccise_2_lib/@basic_@alien_color/struct_bd.htm"'>
<rect id="r0"  stroke="rgb(0,255,0)" fill="rgb(0,255,0)" stroke-width="1px" stroke-dasharray="" y="1013px" x="721px" width="224px" height="112px" rx="0" ry="0" />
</a>
<rect id="r0"  stroke="rgb(0,128,0)" fill="none" stroke-width="3px" stroke-dasharray="" y="1013px" x="721px" width="224px" height="112px" rx="0" ry="0" />
<a xlink:href='javascript:parent.location.href="../../Computer_Exerccise_2_lib/@basic_@alien_color/struct_bd.htm"'>
<image xlink:href="BlockDiagram.png" x="723" y="1103" width="19" height="19" />
</a>
<rect id="r0"  stroke="rgb(254,254,179)" fill="rgb(254,254,179)" stroke-width="1px" stroke-dasharray="" y="1337px" x="1732px" width="213px" height="13px" rx="0" ry="0" />
<rect id="r0"  stroke="rgb(0,0,0)" fill="none" stroke-width="1px" stroke-dasharray="" y="1337px" x="1732px" width="213px" height="13px" rx="0" ry="0" />
<rect id="r0"  stroke="rgb(254,254,179)" fill="rgb(254,254,179)" stroke-width="1px" stroke-dasharray="" y="1287px" x="1945px" width="50px" height="13px" rx="0" ry="0" />
<rect id="r0"  stroke="rgb(0,0,0)" fill="none" stroke-width="1px" stroke-dasharray="" y="1287px" x="1945px" width="50px" height="13px" rx="0" ry="0" />
<rect id="r0"  stroke="rgb(254,254,179)" fill="rgb(254,254,179)" stroke-width="1px" stroke-dasharray="" y="1312px" x="1732px" width="213px" height="13px" rx="0" ry="0" />
<rect id="r0"  stroke="rgb(0,0,0)" fill="none" stroke-width="1px" stroke-dasharray="" y="1312px" x="1732px" width="213px" height="13px" rx="0" ry="0" />
<rect id="r0"  stroke="rgb(254,254,179)" fill="rgb(254,254,179)" stroke-width="1px" stroke-dasharray="" y="1312px" x="1682px" width="50px" height="13px" rx="0" ry="0" />
<rect id="r0"  stroke="rgb(0,0,0)" fill="none" stroke-width="1px" stroke-dasharray="" y="1312px" x="1682px" width="50px" height="13px" rx="0" ry="0" />
<rect id="r0"  stroke="rgb(254,254,179)" fill="rgb(254,254,179)" stroke-width="1px" stroke-dasharray="" y="1300px" x="1945px" width="250px" height="50px" rx="0" ry="0" />
<rect id="r0"  stroke="rgb(0,0,0)" fill="none" stroke-width="1px" stroke-dasharray="" y="1300px" x="1945px" width="250px" height="50px" rx="0" ry="0" />
<rect id="r0"  stroke="rgb(254,254,179)" fill="rgb(254,254,179)" stroke-width="1px" stroke-dasharray="" y="1287px" x="1995px" width="200px" height="13px" rx="0" ry="0" />
<rect id="r0"  stroke="rgb(0,0,0)" fill="none" stroke-width="1px" stroke-dasharray="" y="1287px" x="1995px" width="200px" height="13px" rx="0" ry="0" />
<rect id="r0"  stroke="rgb(254,254,179)" fill="rgb(254,254,179)" stroke-width="1px" stroke-dasharray="" y="1287px" x="1682px" width="263px" height="25px" rx="0" ry="0" />
<rect id="r0"  stroke="rgb(0,0,0)" fill="none" stroke-width="1px" stroke-dasharray="" y="1287px" x="1682px" width="263px" height="25px" rx="0" ry="0" />
<rect id="r0"  stroke="rgb(254,254,179)" fill="rgb(254,254,179)" stroke-width="1px" stroke-dasharray="" y="1325px" x="1682px" width="50px" height="12px" rx="0" ry="0" />
<rect id="r0"  stroke="rgb(0,0,0)" fill="none" stroke-width="1px" stroke-dasharray="" y="1325px" x="1682px" width="50px" height="12px" rx="0" ry="0" />
<rect id="r0"  stroke="rgb(254,254,179)" fill="rgb(254,254,179)" stroke-width="1px" stroke-dasharray="" y="1337px" x="1682px" width="50px" height="13px" rx="0" ry="0" />
<rect id="r0"  stroke="rgb(0,0,0)" fill="none" stroke-width="1px" stroke-dasharray="" y="1337px" x="1682px" width="50px" height="13px" rx="0" ry="0" />
<rect id="r0"  stroke="rgb(254,254,179)" fill="rgb(254,254,179)" stroke-width="1px" stroke-dasharray="" y="1325px" x="1732px" width="213px" height="12px" rx="0" ry="0" />
<rect id="r0"  stroke="rgb(0,0,0)" fill="none" stroke-width="1px" stroke-dasharray="" y="1325px" x="1732px" width="213px" height="12px" rx="0" ry="0" />
<polyline id="r0"  stroke="rgb(0,0,128)" fill="rgb(0,0,128)" stroke-width="1px" stroke-dasharray="" points="1314, 1020,1326, 1020,1332, 1025,1326, 1030,1314, 1030,1314, 1020" /> 
<polyline id="r0"  stroke="rgb(0,0,0)" fill="none" stroke-width="1px" stroke-dasharray="" points="1314, 1020,1326, 1020,1332, 1025,1326, 1030,1314, 1030,1314, 1020" /> 
<polyline id="r0"  stroke="rgb(0,0,128)" fill="rgb(0,0,128)" stroke-width="1px" stroke-dasharray="" points="1314, 1020,1326, 1020,1332, 1025,1326, 1030,1314, 1030,1314, 1020" /> 
<polyline id="r0"  stroke="rgb(0,0,0)" fill="none" stroke-width="1px" stroke-dasharray="" points="1314, 1020,1326, 1020,1332, 1025,1326, 1030,1314, 1030,1314, 1020" /> 
<polyline id="r0"  stroke="rgb(0,0,0)" fill="none" stroke-width="1px" stroke-dasharray="" points="1307, 1025,1314, 1025" /> 
<polyline id="r0"  stroke="rgb(0,0,0)" fill="none" stroke-width="1px" stroke-dasharray="" points="126, 187,132, 187" /> 
<polyline id="r0"  stroke="rgb(0,0,0)" fill="none" stroke-width="1px" stroke-dasharray="" points="64, 437,70, 437" /> 
<polyline id="r0"  stroke="rgb(0,0,0)" fill="none" stroke-width="1px" stroke-dasharray="" points="264, 1037,270, 1037" /> 
<polyline id="r0"  stroke="rgb(0,0,0)" fill="none" stroke-width="1px" stroke-dasharray="" points="1307, 1025,1314, 1025" /> 
<polyline id="r0"  stroke="rgb(0,0,0)" fill="none" stroke-width="1px" stroke-dasharray="" points="1420, 187,1426, 187" /> 
<polyline id="r0"  stroke="rgb(0,0,0)" fill="none" stroke-width="1px" stroke-dasharray="" points="1270, 450,1276, 450" /> 
<polyline id="r0"  stroke="rgb(0,0,0)" fill="none" stroke-width="1px" stroke-dasharray="" points="126, 212,132, 212" /> 
<polyline id="r0"  stroke="rgb(0,0,0)" fill="none" stroke-width="3px" stroke-dasharray="" points="682, 750,670, 750" /> 
<a xlink:href='javascript:parent.location.href="../../Computer_Exerccise_2_lib/@basic_@alien_@direction/struct_bd.htm"'>
<polyline id="r0"  stroke="rgb(0,255,0)" fill="rgb(0,255,0)" stroke-width="1px" stroke-dasharray="" points="320, 437,311, 442,311, 433,320, 437" /> 
</a>
<polyline id="r0"  stroke="rgb(0,0,0)" fill="none" stroke-width="1px" stroke-dasharray="" points="320, 437,311, 442,311, 433,320, 437" /> 
<a xlink:href='javascript:parent.location.href="../../Computer_Exerccise_2_lib/@basic_@alien_@direction/struct_bd.htm"'>
<polyline id="r0"  stroke="rgb(0,255,0)" fill="rgb(0,255,0)" stroke-width="1px" stroke-dasharray="" points="457, 425,453, 416,462, 416,457, 425" /> 
</a>
<polyline id="r0"  stroke="rgb(0,0,0)" fill="none" stroke-width="1px" stroke-dasharray="" points="457, 425,453, 416,462, 416,457, 425" /> 
<a xlink:href='javascript:parent.location.href="../../Computer_Exerccise_2_lib/@basic_@alien_@direction/struct_bd.htm"'>
<polyline id="r0"  stroke="rgb(0,255,0)" fill="rgb(0,255,0)" stroke-width="1px" stroke-dasharray="" points="420, 425,415, 416,425, 416,420, 425" /> 
</a>
<polyline id="r0"  stroke="rgb(0,0,0)" fill="none" stroke-width="1px" stroke-dasharray="" points="420, 425,415, 416,425, 416,420, 425" /> 
<a xlink:href='javascript:parent.location.href="../../Computer_Exerccise_2_lib/@basic_@alien_@direction/struct_bd.htm"'>
<polyline id="r0"  stroke="rgb(0,255,0)" fill="rgb(0,255,0)" stroke-width="1px" stroke-dasharray="" points="554, 437,545, 442,545, 433,554, 437" /> 
</a>
<polyline id="r0"  stroke="rgb(0,0,0)" fill="none" stroke-width="1px" stroke-dasharray="" points="554, 437,545, 442,545, 433,554, 437" /> 
<a xlink:href='javascript:parent.location.href="../../Computer_Exerccise_2_lib/@basic_@alien_@direction/struct_bd.htm"'>
<polyline id="r0"  stroke="rgb(0,255,0)" fill="rgb(0,255,0)" stroke-width="1px" stroke-dasharray="" points="357, 425,353, 416,362, 416,357, 425" /> 
</a>
<polyline id="r0"  stroke="rgb(0,0,0)" fill="none" stroke-width="1px" stroke-dasharray="" points="357, 425,353, 416,362, 416,357, 425" /> 
<a xlink:href='javascript:parent.location.href="../../Computer_Exerccise_2_lib/@basic_@alien_@direction/struct_bd.htm"'>
<polyline id="r0"  stroke="rgb(0,255,0)" fill="rgb(0,255,0)" stroke-width="1px" stroke-dasharray="" points="382, 425,378, 416,387, 416,382, 425" /> 
</a>
<polyline id="r0"  stroke="rgb(0,0,0)" fill="none" stroke-width="1px" stroke-dasharray="" points="382, 425,378, 416,387, 416,382, 425" /> 
<circle id="r0"  stroke="rgb(0,0,0)" fill="rgb(0,0,0)" stroke-width="1px" stroke-dasharray="" cx="382" cy="187" r="5"/> 
<circle stroke="rgb(0,0,0)" fill="none" stroke-width="1px" stroke-dasharray="" cx="382" cy="187" r="5"/> 
<circle id="r0"  stroke="rgb(0,0,0)" fill="rgb(0,0,0)" stroke-width="1px" stroke-dasharray="" cx="320" cy="212" r="5"/> 
<circle stroke="rgb(0,0,0)" fill="none" stroke-width="1px" stroke-dasharray="" cx="320" cy="212" r="5"/> 
<polyline id="r0"  stroke="rgb(0,0,0)" fill="none" stroke-width="3px" stroke-dasharray="" points="882, 550,895, 550" /> 
<polyline id="r0"  stroke="rgb(0,0,0)" fill="none" stroke-width="3px" stroke-dasharray="" points="957, 550,945, 550" /> 
<polyline id="r0"  stroke="rgb(0,0,0)" fill="none" stroke-width="1px" stroke-dasharray="" points="920, 525,920, 526" /> 
<circle id="r0"  stroke="rgb(255,255,255)" fill="rgb(255,255,255)" stroke-width="1px" stroke-dasharray="" cx="920" cy="531" r="6"/> 
<circle stroke="rgb(102,102,102)" fill="none" stroke-width="1px" stroke-dasharray="" cx="920" cy="531" r="6"/> 
<a xlink:href='javascript:parent.location.href="../../Computer_Exerccise_2_lib/@basic_@alien_y_coord/struct_bd.htm"'>
<polyline id="r0"  stroke="rgb(0,255,0)" fill="rgb(0,255,0)" stroke-width="1px" stroke-dasharray="" points="1170, 187,1161, 192,1161, 183,1170, 187" /> 
</a>
<polyline id="r0"  stroke="rgb(0,0,0)" fill="none" stroke-width="1px" stroke-dasharray="" points="1170, 187,1161, 192,1161, 183,1170, 187" /> 
<a xlink:href='javascript:parent.location.href="../../Computer_Exerccise_2_lib/@basic_@alien_y_coord/struct_bd.htm"'>
<polyline id="r0"  stroke="rgb(0,255,0)" fill="rgb(0,255,0)" stroke-width="1px" stroke-dasharray="" points="1304, 187,1295, 192,1295, 183,1304, 187" /> 
</a>
<polyline id="r0"  stroke="rgb(0,0,0)" fill="none" stroke-width="1px" stroke-dasharray="" points="1304, 187,1295, 192,1295, 183,1304, 187" /> 
<a xlink:href='javascript:parent.location.href="../../Computer_Exerccise_2_lib/@basic_@alien_y_coord/struct_bd.htm"'>
<polyline id="r0"  stroke="rgb(0,255,0)" fill="rgb(0,255,0)" stroke-width="1px" stroke-dasharray="" points="1170, 200,1161, 205,1161, 195,1170, 200" /> 
</a>
<polyline id="r0"  stroke="rgb(0,0,0)" fill="none" stroke-width="1px" stroke-dasharray="" points="1170, 200,1161, 205,1161, 195,1170, 200" /> 
<circle id="r0"  stroke="rgb(0,0,0)" fill="rgb(0,0,0)" stroke-width="1px" stroke-dasharray="" cx="807" cy="187" r="5"/> 
<circle stroke="rgb(0,0,0)" fill="none" stroke-width="1px" stroke-dasharray="" cx="807" cy="187" r="5"/> 
<circle id="r0"  stroke="rgb(0,0,0)" fill="rgb(0,0,0)" stroke-width="1px" stroke-dasharray="" cx="920" cy="187" r="5"/> 
<circle stroke="rgb(0,0,0)" fill="none" stroke-width="1px" stroke-dasharray="" cx="920" cy="187" r="5"/> 
<circle id="r0"  stroke="rgb(0,0,0)" fill="rgb(0,0,0)" stroke-width="1px" stroke-dasharray="" cx="1195" cy="450" r="5"/> 
<circle stroke="rgb(0,0,0)" fill="none" stroke-width="1px" stroke-dasharray="" cx="1195" cy="450" r="5"/> 
<line id="r0" stroke="rgb(0,0,0)" x1="1157" y1="450" x2="1145" y2="437" stroke-width="1px" />
<line id="r0" stroke="rgb(0,0,0)" x1="1132" y1="450" x2="1120" y2="437" stroke-width="1px" />
<circle id="r0"  stroke="rgb(255,255,255)" fill="rgb(255,255,255)" stroke-width="1px" stroke-dasharray="" cx="1095" cy="187" r="5"/> 
<circle stroke="rgb(255,0,0)" fill="none" stroke-width="1px" stroke-dasharray="" cx="1095" cy="187" r="5"/> 
<circle id="r0"  stroke="rgb(0,0,0)" fill="rgb(0,0,0)" stroke-width="1px" stroke-dasharray="" cx="1095" cy="187" r="5"/> 
<circle stroke="rgb(0,0,0)" fill="none" stroke-width="1px" stroke-dasharray="" cx="1095" cy="187" r="5"/> 
<circle id="r0"  stroke="rgb(0,0,0)" fill="rgb(0,0,0)" stroke-width="1px" stroke-dasharray="" cx="770" cy="212" r="5"/> 
<circle stroke="rgb(0,0,0)" fill="none" stroke-width="1px" stroke-dasharray="" cx="770" cy="212" r="5"/> 
<a xlink:href='javascript:parent.location.href="../../Computer_Exerccise_2_lib/@c2_@t4_@rightshifter/struct_bd.htm"'>
<polyline id="r0"  stroke="rgb(0,255,0)" fill="rgb(0,255,0)" stroke-width="1px" stroke-dasharray="" points="145, 825,136, 830,136, 820,145, 825" /> 
</a>
<polyline id="r0"  stroke="rgb(0,0,0)" fill="none" stroke-width="1px" stroke-dasharray="" points="145, 825,136, 830,136, 820,145, 825" /> 
<a xlink:href='javascript:parent.location.href="../../Computer_Exerccise_2_lib/@c2_@t4_@rightshifter/struct_bd.htm"'>
<polyline id="r0"  stroke="rgb(0,255,0)" fill="rgb(0,255,0)" stroke-width="1px" stroke-dasharray="" points="279, 825,270, 830,270, 820,279, 825" /> 
</a>
<polyline id="r0"  stroke="rgb(0,0,0)" fill="none" stroke-width="1px" stroke-dasharray="" points="279, 825,270, 830,270, 820,279, 825" /> 
<a xlink:href='javascript:parent.location.href="../../Computer_Exerccise_2_lib/@c2_@t3_@leftshifter/struct_bd.htm"'>
<polyline id="r0"  stroke="rgb(0,255,0)" fill="rgb(0,255,0)" stroke-width="1px" stroke-dasharray="" points="145, 725,136, 730,136, 720,145, 725" /> 
</a>
<polyline id="r0"  stroke="rgb(0,0,0)" fill="none" stroke-width="1px" stroke-dasharray="" points="145, 725,136, 730,136, 720,145, 725" /> 
<a xlink:href='javascript:parent.location.href="../../Computer_Exerccise_2_lib/@c2_@t3_@leftshifter/struct_bd.htm"'>
<polyline id="r0"  stroke="rgb(0,255,0)" fill="rgb(0,255,0)" stroke-width="1px" stroke-dasharray="" points="279, 725,270, 730,270, 720,279, 725" /> 
</a>
<polyline id="r0"  stroke="rgb(0,0,0)" fill="none" stroke-width="1px" stroke-dasharray="" points="279, 725,270, 730,270, 720,279, 725" /> 
<polyline id="r0"  stroke="rgb(0,0,0)" fill="none" stroke-width="3px" stroke-dasharray="" points="657, 700,657, 733" /> 
<polyline id="r0"  stroke="rgb(0,0,0)" fill="none" stroke-width="3px" stroke-dasharray="" points="632, 712,645, 712" /> 
<polyline id="r0"  stroke="rgb(0,0,0)" fill="none" stroke-width="3px" stroke-dasharray="" points="632, 737,645, 737" /> 
<polyline id="r0"  stroke="rgb(0,0,0)" fill="none" stroke-width="3px" stroke-dasharray="" points="632, 762,645, 762" /> 
<polyline id="r0"  stroke="rgb(0,0,0)" fill="none" stroke-width="3px" stroke-dasharray="" points="632, 787,645, 787" /> 
<circle id="r0"  stroke="rgb(0,0,0)" fill="rgb(0,0,0)" stroke-width="1px" stroke-dasharray="" cx="95" cy="937" r="5"/> 
<circle stroke="rgb(0,0,0)" fill="none" stroke-width="1px" stroke-dasharray="" cx="95" cy="937" r="5"/> 
<circle id="r0"  stroke="rgb(0,0,0)" fill="rgb(0,0,0)" stroke-width="1px" stroke-dasharray="" cx="595" cy="937" r="5"/> 
<circle stroke="rgb(0,0,0)" fill="none" stroke-width="1px" stroke-dasharray="" cx="595" cy="937" r="5"/> 
<circle id="r0"  stroke="rgb(0,0,0)" fill="rgb(0,0,0)" stroke-width="1px" stroke-dasharray="" cx="95" cy="737" r="5"/> 
<circle stroke="rgb(0,0,0)" fill="none" stroke-width="1px" stroke-dasharray="" cx="95" cy="737" r="5"/> 
<polyline id="r0"  stroke="rgb(0,0,0)" fill="none" stroke-width="1px" stroke-dasharray="" points="882, 600,895, 600" /> 
<polyline id="r0"  stroke="rgb(255,255,255)" fill="rgb(255,255,255)" stroke-width="1px" stroke-dasharray="" points="904, 600,895, 605,895, 595,904, 600" /> 
<polyline id="r0"  stroke="rgb(102,102,102)" fill="none" stroke-width="1px" stroke-dasharray="" points="904, 600,895, 605,895, 595,904, 600" /> 
<polyline id="r0"  stroke="rgb(0,255,255)" fill="rgb(0,255,255)" stroke-width="1px" stroke-dasharray="" points="967, 600,957, 605,957, 595,967, 600" /> 
<polyline id="r0"  stroke="rgb(0,0,0)" fill="none" stroke-width="1px" stroke-dasharray="" points="967, 600,957, 605,957, 595,967, 600" /> 
<polyline id="r0"  stroke="rgb(0,0,0)" fill="none" stroke-width="1px" stroke-dasharray="" points="957, 600,954, 600" /> 
<circle id="r0"  stroke="rgb(255,255,255)" fill="rgb(255,255,255)" stroke-width="1px" stroke-dasharray="" cx="949" cy="600" r="4"/> 
<circle stroke="rgb(102,102,102)" fill="none" stroke-width="1px" stroke-dasharray="" cx="949" cy="600" r="4"/> 
<a xlink:href='javascript:parent.location.href="../../Computer_Exerccise_2_lib/@basic_@alien_color/struct_bd.htm"'>
<polyline id="r0"  stroke="rgb(0,255,0)" fill="rgb(0,255,0)" stroke-width="1px" stroke-dasharray="" points="807, 1012,803, 1003,812, 1003,807, 1012" /> 
</a>
<polyline id="r0"  stroke="rgb(0,0,0)" fill="none" stroke-width="1px" stroke-dasharray="" points="807, 1012,803, 1003,812, 1003,807, 1012" /> 
<a xlink:href='javascript:parent.location.href="../../Computer_Exerccise_2_lib/@basic_@alien_color/struct_bd.htm"'>
<polyline id="r0"  stroke="rgb(0,255,0)" fill="rgb(0,255,0)" stroke-width="1px" stroke-dasharray="" points="720, 1037,711, 1042,711, 1033,720, 1037" /> 
</a>
<polyline id="r0"  stroke="rgb(0,0,0)" fill="none" stroke-width="1px" stroke-dasharray="" points="720, 1037,711, 1042,711, 1033,720, 1037" /> 
<a xlink:href='javascript:parent.location.href="../../Computer_Exerccise_2_lib/@basic_@alien_color/struct_bd.htm"'>
<polyline id="r0"  stroke="rgb(0,255,0)" fill="rgb(0,255,0)" stroke-width="1px" stroke-dasharray="" points="954, 1025,945, 1030,945, 1020,954, 1025" /> 
</a>
<polyline id="r0"  stroke="rgb(0,0,0)" fill="none" stroke-width="1px" stroke-dasharray="" points="954, 1025,945, 1030,945, 1020,954, 1025" /> 
<a xlink:href='javascript:parent.location.href="../../Computer_Exerccise_2_lib/@basic_@alien_color/struct_bd.htm"'>
<polyline id="r0"  stroke="rgb(0,255,0)" fill="rgb(0,255,0)" stroke-width="1px" stroke-dasharray="" points="770, 1012,765, 1003,775, 1003,770, 1012" /> 
</a>
<polyline id="r0"  stroke="rgb(0,0,0)" fill="none" stroke-width="1px" stroke-dasharray="" points="770, 1012,765, 1003,775, 1003,770, 1012" /> 
<circle id="r0"  stroke="rgb(0,0,0)" fill="rgb(0,0,0)" stroke-width="1px" stroke-dasharray="" cx="770" cy="600" r="5"/> 
<circle stroke="rgb(0,0,0)" fill="none" stroke-width="1px" stroke-dasharray="" cx="770" cy="600" r="5"/> 
<text x="345" y="83" font-family="Courier New" fill="rgb(0,0,0)" font-size="10" text-anchor="start">x_coord   : std_logic_vector(7 DOWNTO 0)</text>
<text x="345" y="73" font-family="Courier New" fill="rgb(0,0,0)" font-size="10" text-anchor="start">alien_col : std_logic_vector(23 DOWNTO 0)</text>
<text x="345" y="93" font-family="Courier New" fill="rgb(0,0,0)" font-size="10" text-anchor="start">y_coord   : std_logic_vector(7 DOWNTO 0)</text>
<text x="345" y="115" font-family="Courier New" fill="rgb(0,0,0)" font-size="10" text-anchor="start">SIGNAL data_out  : std_logic_vector(7 DOWNTO 0)</text>
<text x="345" y="135" font-family="Courier New" fill="rgb(0,0,0)" font-size="10" text-anchor="start">SIGNAL dout3     : std_logic_vector(7 DOWNTO 0)</text>
<text x="345" y="145" font-family="Courier New" fill="rgb(0,0,0)" font-size="10" text-anchor="start">SIGNAL dout6     : std_logic_vector(1 DOWNTO 0)</text>
<text x="532" y="441" font-family="arial" fill="rgb(0,0,0)" font-size="10" text-anchor="end">direction : (1:0)</text>
<text x="345" y="125" font-family="Courier New" fill="rgb(0,0,0)" font-size="10" text-anchor="start">SIGNAL din2      : std_logic_vector(7 DOWNTO 0)</text>
<text x="95" y="35" font-family="arial" fill="rgb(0,0,0)" font-weight="800" font-size="10" text-anchor="start">Package List</text>
<text x="95" y="48" font-family="arial" fill="rgb(0,0,0)" font-size="10" text-anchor="start">LIBRARY ieee;</text>
<text x="95" y="60" font-family="arial" fill="rgb(0,0,0)" font-size="10" text-anchor="start">USE ieee.std_logic_1164.all;</text>
<text x="95" y="73" font-family="arial" fill="rgb(0,0,0)" font-size="10" text-anchor="start">USE ieee.std_logic_arith.all;</text>
<text x="320" y="10" font-family="arial" fill="rgb(0,0,0)" font-weight="800" font-size="10" text-anchor="start">Declarations</text>
<text x="320" y="23" font-family="arial" fill="rgb(0,0,0)" font-weight="800" font-size="10" text-anchor="start">Ports:</text>
<text x="320" y="105" font-family="arial" fill="rgb(0,0,0)" font-weight="800" font-size="10" text-anchor="start">Diagram Signals:</text>
<text x="95" y="191" font-family="arial" fill="rgb(0,0,0)" font-size="10" text-anchor="end">rst_n</text>
<text x="345" y="63" font-family="Courier New" fill="rgb(0,0,0)" font-size="10" text-anchor="start">rst_n     : std_logic</text>
<text x="345" y="33" font-family="Courier New" fill="rgb(0,0,0)" font-size="10" text-anchor="start">clk       : std_logic</text>
<text x="345" y="43" font-family="Courier New" fill="rgb(0,0,0)" font-size="10" text-anchor="start">enable    : std_logic</text>
<text x="345" y="53" font-family="Courier New" fill="rgb(0,0,0)" font-size="10" text-anchor="start">hit       : std_logic</text>
<text x="95" y="216" font-family="arial" fill="rgb(0,0,0)" font-size="10" text-anchor="end">clk</text>
<text x="33" y="441" font-family="arial" fill="rgb(0,0,0)" font-size="10" text-anchor="end">enable</text>
<text x="385" y="560" font-family="arial" fill="rgb(0,0,0)" font-weight="800" font-size="10" text-anchor="start">Computer_Exerccise_2_lib</text>
<text x="385" y="572" font-family="arial" fill="rgb(0,0,0)" font-weight="800" font-size="10" text-anchor="start">Basic_Alien_Direction</text>
<text x="385" y="585" font-family="arial" fill="rgb(0,0,0)" font-weight="800" font-size="10" text-anchor="start">U_2</text>
<text x="332" y="441" font-family="arial" fill="rgb(0,0,0)" font-size="10" text-anchor="start">enable</text>
<text x="0" y="0" font-family="arial" fill="rgb(0,0,0)" transform="translate(450,454) rotate(270)" font-size="10" >x_7</text>
<text x="0" y="0" font-family="arial" fill="rgb(0,0,0)" transform="translate(413,454) rotate(270)" font-size="10" >x_0</text>
<text x="0" y="0" font-family="arial" fill="rgb(0,0,0)" transform="translate(350,449) rotate(270)" font-size="10" >clk</text>
<text x="0" y="0" font-family="arial" fill="rgb(0,0,0)" transform="translate(375,459) rotate(270)" font-size="10" >rst_n</text>
<text x="0" y="0" font-family="arial" fill="rgb(0,0,0)" transform="translate(407,397) rotate(270)" font-size="10" >x_coord(0)</text>
<text x="0" y="0" font-family="arial" fill="rgb(0,0,0)" transform="translate(444,397) rotate(270)" font-size="10" >x_coord(7)</text>
<text x="0" y="0" font-family="arial" fill="rgb(0,0,0)" transform="translate(369,404) rotate(270)" font-size="10" >rst_n</text>
<text x="0" y="0" font-family="arial" fill="rgb(0,0,0)" transform="translate(344,408) rotate(270)" font-size="10" >clk</text>
<text x="937" y="624" font-family="arial" fill="rgb(0,0,0)" font-size="10" text-anchor="start">adff</text>
<text x="937" y="636" font-family="arial" fill="rgb(0,0,0)" font-size="10" text-anchor="start">U_1</text>
<text x="896" y="554" font-family="arial" fill="rgb(0,0,0)" font-size="10" text-anchor="start">d</text>
<text x="944" y="554" font-family="arial" fill="rgb(0,0,0)" font-size="10" text-anchor="end">q</text>
<text x="906" y="599" font-family="arial" fill="rgb(0,0,0)" font-size="10" text-anchor="start">clk</text>
<text x="944" y="604" font-family="arial" fill="rgb(0,0,0)" font-size="10" text-anchor="end">qb</text>
<text x="912" y="549" font-family="arial" fill="rgb(0,0,0)" font-size="10" text-anchor="start">rst</text>
<text x="1457" y="191" font-family="arial" fill="rgb(0,0,0)" font-size="10" text-anchor="start">y_coord</text>
<text x="1307" y="454" font-family="arial" fill="rgb(0,0,0)" font-size="10" text-anchor="start">x_coord</text>
<text x="1160" y="222" font-family="arial" fill="rgb(0,0,0)" font-weight="800" font-size="10" text-anchor="start">Computer_Exerccise_2_lib</text>
<text x="1160" y="235" font-family="arial" fill="rgb(0,0,0)" font-weight="800" font-size="10" text-anchor="start">Basic_Alien_y_coord</text>
<text x="1160" y="247" font-family="arial" fill="rgb(0,0,0)" font-weight="800" font-size="10" text-anchor="start">U_4</text>
<text x="1182" y="191" font-family="arial" fill="rgb(0,0,0)" font-size="10" text-anchor="start">rst_n</text>
<text x="1282" y="191" font-family="arial" fill="rgb(0,0,0)" font-size="10" text-anchor="end">y_coord : (7:0)</text>
<text x="1182" y="204" font-family="arial" fill="rgb(0,0,0)" font-size="10" text-anchor="start">clk</text>
<text x="1123" y="185" font-family="arial" fill="rgb(0,0,0)" font-size="10" text-anchor="start">rst_n</text>
<text x="1057" y="185" font-family="arial" fill="rgb(0,0,0)" font-size="10" text-anchor="start">rst_n</text>
<text x="1136" y="197" font-family="arial" fill="rgb(0,0,0)" font-size="10" text-anchor="start">clk</text>
<text x="160" y="860" font-family="arial" fill="rgb(0,0,0)" font-weight="800" font-size="10" text-anchor="start">Computer_Exerccise_2_lib</text>
<text x="160" y="872" font-family="arial" fill="rgb(0,0,0)" font-weight="800" font-size="10" text-anchor="start">C2_T4_Rightshifter</text>
<text x="160" y="885" font-family="arial" fill="rgb(0,0,0)" font-weight="800" font-size="10" text-anchor="start">U_7</text>
<text x="157" y="829" font-family="arial" fill="rgb(0,0,0)" font-size="10" text-anchor="start">x : (7:0)</text>
<text x="257" y="829" font-family="arial" fill="rgb(0,0,0)" font-size="10" text-anchor="end">y : (7:0)</text>
<text x="160" y="760" font-family="arial" fill="rgb(0,0,0)" font-weight="800" font-size="10" text-anchor="start">Computer_Exerccise_2_lib</text>
<text x="160" y="772" font-family="arial" fill="rgb(0,0,0)" font-weight="800" font-size="10" text-anchor="start">C2_T3_Leftshifter</text>
<text x="160" y="785" font-family="arial" fill="rgb(0,0,0)" font-weight="800" font-size="10" text-anchor="start">U_8</text>
<text x="157" y="729" font-family="arial" fill="rgb(0,0,0)" font-size="10" text-anchor="start">data_in : (7:0)</text>
<text x="257" y="729" font-family="arial" fill="rgb(0,0,0)" font-size="10" text-anchor="end">data_out : (7:0)</text>
<text x="304" y="722" font-family="arial" fill="rgb(0,0,0)" font-size="10" text-anchor="start">data_out : (7:0)</text>
<text x="33" y="822" font-family="arial" fill="rgb(0,0,0)" font-size="10" text-anchor="start">x_coord</text>
<text x="45" y="722" font-family="arial" fill="rgb(0,0,0)" font-size="10" text-anchor="start">x_coord</text>
<text x="662" y="811" font-family="arial" fill="rgb(0,0,0)" font-size="10" text-anchor="start">mux</text>
<text x="662" y="824" font-family="arial" fill="rgb(0,0,0)" font-size="10" text-anchor="start">U_16</text>
<text x="647" y="744" font-family="arial" fill="rgb(0,0,0)" font-size="10" text-anchor="start">Lo</text>
<text x="648" y="768" font-family="arial" fill="rgb(0,0,0)" font-size="10" text-anchor="start">Hi</text>
<text x="649" y="756" font-family="arial" fill="rgb(0,0,0)" font-size="10" text-anchor="start">mux</text>
<text x="0" y="0" font-family="arial" fill="rgb(0,0,0)" transform="translate(757,996) rotate(270)" font-size="10" >clk</text>
<text x="0" y="0" font-family="arial" fill="rgb(0,0,0)" transform="translate(794,992) rotate(270)" font-size="10" >rst_n</text>
<text x="582" y="710" font-family="arial" fill="rgb(0,0,0)" font-size="10" text-anchor="start">x_coord</text>
<text x="582" y="785" font-family="arial" fill="rgb(0,0,0)" font-size="10" text-anchor="start">x_coord</text>
<text x="232" y="1041" font-family="arial" fill="rgb(0,0,0)" font-size="10" text-anchor="end">hit</text>
<text x="810" y="1135" font-family="arial" fill="rgb(0,0,0)" font-weight="800" font-size="10" text-anchor="start">Computer_Exerccise_2_lib</text>
<text x="810" y="1147" font-family="arial" fill="rgb(0,0,0)" font-weight="800" font-size="10" text-anchor="start">Basic_Alien_color</text>
<text x="810" y="1160" font-family="arial" fill="rgb(0,0,0)" font-weight="800" font-size="10" text-anchor="start">U_0</text>
<text x="0" y="0" font-family="arial" fill="rgb(0,0,0)" transform="translate(800,1047) rotate(270)" font-size="10" >rst_n</text>
<text x="732" y="1041" font-family="arial" fill="rgb(0,0,0)" font-size="10" text-anchor="start">hit</text>
<text x="932" y="1029" font-family="arial" fill="rgb(0,0,0)" font-size="10" text-anchor="end">alien_col : (23:0)</text>
<text x="0" y="0" font-family="arial" fill="rgb(0,0,0)" transform="translate(763,1037) rotate(270)" font-size="10" >clk</text>
<text x="1735" y="1347" font-family="Arial" fill="rgb(0,0,128)" font-size="10" text-anchor="start">by mfhubu on 23 loka 2019</text>
<text x="1947" y="1297" font-family="Arial" fill="rgb(0,0,128)" font-size="10" text-anchor="start">Project:</text>
<text x="1735" y="1322" font-family="Arial" fill="rgb(0,0,128)" font-size="10" text-anchor="start">&#0060;enter diagram title here&#0062;</text>
<text x="1685" y="1322" font-family="Arial" fill="rgb(0,0,128)" font-size="10" text-anchor="start">Title:</text>
<text x="1947" y="1312" font-family="Arial" fill="rgb(0,0,128)" font-size="10" text-anchor="start">&#0060;enter comments here&#0062;</text>
<text x="1997" y="1297" font-family="Arial" fill="rgb(0,0,128)" font-size="10" text-anchor="start">Computer_Exerccise_2</text>
<text x="1814" y="1304" font-family="Arial" fill="rgb(127,0,0)" font-size="10" text-anchor="middle">&#0060;company name&#0062;</text>
<text x="1685" y="1335" font-family="Arial" fill="rgb(0,0,128)" font-size="10" text-anchor="start">Path:</text>
<text x="1685" y="1347" font-family="Arial" fill="rgb(0,0,128)" font-size="10" text-anchor="start">Edited:</text>
<text x="1735" y="1335" font-family="Arial" fill="rgb(0,0,128)" font-size="10" text-anchor="start">  &#0060;&#0060;-- more --&#0062;&#0062;</text>
<text x="1345" y="1029" font-family="arial" fill="rgb(0,0,0)" font-size="10" text-anchor="start">alien_col</text>
<g id="alien_col_net" stroke="rgb(0,0,0)" stroke-width="3px"  >
<polyline id="r0"  fill="none"  stroke-dasharray="" points="954, 1025,1307, 1025" /> 
</g>
<g id="clk_net" stroke="rgb(0,0,0)" stroke-width="1px"  >
<polyline id="r0"  fill="none"  stroke-dasharray="" points="132, 212,770, 212,770, 600,882, 600" /> 
<polyline id="r0"  fill="none"  stroke-dasharray="" points="770, 1003,770, 600" /> 
<polyline id="r0"  fill="none"  stroke-dasharray="" points="1161, 200,1145, 200,1145, 212,770, 212" /> 
<polyline id="r0"  fill="none"  stroke-dasharray="" points="357, 416,357, 212,320, 212" /> 
</g>
<g id="data_out_net" stroke="rgb(0,0,0)" stroke-width="3px"  >
<polyline id="r0"  fill="none"  stroke-dasharray="" points="279, 725,545, 725,545, 737,632, 737" /> 
</g>
<g id="din2_net" stroke="rgb(0,0,0)" stroke-width="3px"  >
<polyline id="r0"  fill="none"  stroke-dasharray="" points="632, 762,332, 762,332, 825,279, 825" /> 
</g>
<g id="dout3_net" stroke="rgb(0,0,0)" stroke-width="3px"  >
<polyline id="r0"  fill="none"  stroke-dasharray="" points="682, 750,682, 550,882, 550" /> 
</g>
<g id="dout6_net" stroke="rgb(0,0,0)" stroke-width="3px"  >
<polyline id="r0"  fill="none"  stroke-dasharray="" points="554, 437,657, 437,657, 700" /> 
</g>
<g id="enable_net" stroke="rgb(0,0,0)" stroke-width="1px"  >
<polyline id="r0"  fill="none"  stroke-dasharray="" points="70, 437,311, 437" /> 
</g>
<g id="hit_net" stroke="rgb(0,0,0)" stroke-width="1px"  >
<polyline id="r0"  fill="none"  stroke-dasharray="" points="270, 1037,711, 1037" /> 
</g>
<g id="rst_n_net" stroke="rgb(0,0,0)" stroke-width="1px"  >
<polyline id="r0"  fill="none"  stroke-dasharray="" points="132, 187,920, 187,920, 525" /> 
<polyline id="r0"  fill="none"  stroke-dasharray="" points="1161, 187,1095, 187" /> 
<polyline id="r0"  fill="none"  stroke-dasharray="" points="807, 1003,807, 187" /> 
<polyline id="r0"  fill="none"  stroke-dasharray="" points="920, 187,1095, 187" /> 
<polyline id="r0"  fill="none"  stroke-dasharray="" points="382, 416,382, 187" /> 
</g>
<g id="x_coord_net" stroke="rgb(0,0,0)" stroke-width="3px"  >
<polyline id="r0"  fill="none"  stroke-dasharray="" points="1195, 450,1195, 937,95, 937,95, 825,136, 825" /> 
<polyline id="r0"  fill="none"  stroke-dasharray="" points="136, 725,95, 725,95, 937" /> 
<polyline id="r0"  fill="none"  stroke-dasharray="" points="1270, 450,1120, 450,1120, 550,957, 550" /> 
<polyline id="r0"  fill="none"  stroke-dasharray="" points="420, 416,420, 250,1145, 250,1145, 437" /> 
<polyline id="r0"  fill="none"  stroke-dasharray="" points="632, 712,595, 712,595, 687,95, 687,95, 737" /> 
<polyline id="r0"  fill="none"  stroke-dasharray="" points="632, 787,595, 787,595, 937" /> 
<polyline id="r0"  fill="none"  stroke-dasharray="" points="1120, 437,1120, 300,457, 300,457, 416" /> 
</g>
<g id="y_coord_net" stroke="rgb(0,0,0)" stroke-width="3px"  >
<polyline id="r0"  fill="none"  stroke-dasharray="" points="1304, 187,1420, 187" /> 
</g>
</g>
</svg>
<!-- Create a "titlebox" group so we can reposition it when the SVG moves -->
<g id="titlebox">
<g id="genTime" class="allText normalText">
  <text class="allText smallText" x="300" y="123">Generated on: 23.10.2019 at: 11:58 ap.</text>
</g>

<rect stroke="none" fill="rgb(200,230,240)" opacity="0.4" y="112" x="0" width="914" height="15" />
<!-- Close the "titlebox" group -->
</g>

</g>
</svg>
