<?xml version="1.0" encoding="UTF-8"?>
<!DOCTYPE svg PUBLIC "-//W3C//DTD SVG 1.1//EN" "http://www.w3.org/Graphics/SVG/1.1/DTD/svg11.dtd">
<!-- Created HDS 2004.1a -->


<svg xmlns="http://www.w3.org/2000/svg" xmlns:xlink="http://www.w3.org/1999/xlink" version="1.1">
<script xlink:href="../../scripts/SVGPan.js" />
<g id="viewport" transform="translate(0,-100)">


<title>SVG Image</title>
<desc></desc>


<defs>
<!-- section for CSS stylesheet definitions -->
<style type="text/css"><![CDATA[
.allText {font-family:Sans-Serif;fill:darkcyan;}
.subTitleText {font-size:20;font-weight:bold;}
.normalText {font-size:15;}
.smallText {font-size:12;}
.boldText {font-weight:bold;}
.rightText {text-anchor:end;}
.centerText {text-anchor:middle;}
.dragRect {fill:darkcyan;stroke:none;opacity:0.4;}
]]></style>
<symbol id="upArrow" overflow="visible" style="stroke:darkcyan;fill:darkcyan;stroke-width:1;" pointer-events="none">
<polygon points="5,0 10,5 0,5 5,0" />
</symbol>
<symbol id="leftArrow" overflow="visible" style="stroke:darkcyan;fill:darkcyan;stroke-width:1;" pointer-events="none">
<polygon points="0,5 5,0 5,10 0,5" />
</symbol>
<symbol id="rightArrow" overflow="visible" style="stroke:darkcyan;fill:darkcyan;stroke-width:1;" pointer-events="none">
<polygon points="5,0 10,5 5,10 5,0" />
</symbol>
<symbol id="downArrow" overflow="visible" style="stroke:darkcyan;fill:darkcyan;stroke-width:1;" pointer-events="none">
<polygon points="0,0 5,5 10,0 0,0" />
</symbol>

</defs>
<svg id="mainMap" x="0" y="150" viewBox="0 0 1987 1040" width="912" height="512">


<clipPath id="SVG_Clip">
<rect x="0" y="0" width="1987" height="1040" />
</clipPath>
<g id="hds_models" style="clip-path:url(#SVG_Clip)">
<polyline id="r0"  stroke="rgb(0,255,255)" fill="rgb(0,255,255)" stroke-width="1px" stroke-dasharray="" points="1007, 450,1057, 450,1057, 525,1007, 525,1007, 450,1007, 450" /> 
<polyline id="r0"  stroke="rgb(102,102,102)" fill="none" stroke-width="1px" stroke-dasharray="" points="1007, 450,1057, 450,1057, 525,1007, 525,1007, 450,1007, 450" /> 
<polyline id="r0"  stroke="rgb(0,255,255)" fill="rgb(0,255,255)" stroke-width="1px" stroke-dasharray="" points="445, 437,470, 454,470, 471,445, 487,445, 437,445, 437" /> 
<polyline id="r0"  stroke="rgb(102,102,102)" fill="none" stroke-width="1px" stroke-dasharray="" points="445, 437,470, 454,470, 471,445, 487,445, 437,445, 437" /> 
<polyline id="r0"  stroke="rgb(0,0,0)" fill="none" stroke-width="1px" stroke-dasharray="" points="445, 487,445, 487" /> 
<polyline id="r0"  stroke="rgb(0,0,0)" fill="none" stroke-width="1px" stroke-dasharray="" points="445, 437,445, 437" /> 
<polyline id="r0"  stroke="rgb(0,255,255)" fill="rgb(0,255,255)" stroke-width="1px" stroke-dasharray="" points="420, 662,445, 679,445, 696,420, 712,420, 662,420, 662" /> 
<polyline id="r0"  stroke="rgb(102,102,102)" fill="none" stroke-width="1px" stroke-dasharray="" points="420, 662,445, 679,445, 696,420, 712,420, 662,420, 662" /> 
<polyline id="r0"  stroke="rgb(0,0,0)" fill="none" stroke-width="1px" stroke-dasharray="" points="420, 712,420, 712" /> 
<polyline id="r0"  stroke="rgb(0,0,0)" fill="none" stroke-width="1px" stroke-dasharray="" points="420, 662,420, 662" /> 
<polyline id="r0"  stroke="rgb(0,255,255)" fill="rgb(0,255,255)" stroke-width="1px" stroke-dasharray="" points="695, 687,745, 687,745, 762,695, 762,695, 687,695, 687" /> 
<polyline id="r0"  stroke="rgb(102,102,102)" fill="none" stroke-width="1px" stroke-dasharray="" points="695, 687,745, 687,745, 762,695, 762,695, 687,695, 687" /> 
<polyline id="r0"  stroke="rgb(0,255,255)" fill="rgb(0,255,255)" stroke-width="1px" stroke-dasharray="" points="520, 675,545, 692,545, 708,520, 725,520, 675,520, 675" /> 
<polyline id="r0"  stroke="rgb(102,102,102)" fill="none" stroke-width="1px" stroke-dasharray="" points="520, 675,545, 692,545, 708,520, 725,520, 675,520, 675" /> 
<polyline id="r0"  stroke="rgb(0,0,0)" fill="none" stroke-width="1px" stroke-dasharray="" points="520, 725,520, 725" /> 
<polyline id="r0"  stroke="rgb(0,0,0)" fill="none" stroke-width="1px" stroke-dasharray="" points="520, 675,520, 675" /> 
<polyline id="r0"  stroke="rgb(0,0,0)" fill="none" stroke-width="1px" stroke-dasharray="" points="670, 537,670, 537" /> 
<polyline id="r0"  stroke="rgb(0,0,0)" fill="none" stroke-width="1px" stroke-dasharray="" points="670, 587,670, 587" /> 
<polyline id="r0"  stroke="rgb(0,255,255)" fill="rgb(0,255,255)" stroke-width="1px" stroke-dasharray="" points="645, 537,670, 537,670, 587,645, 587,645, 537" /> 
<polyline id="r0"  stroke="rgb(102,102,102)" fill="none" stroke-width="1px" stroke-dasharray="" points="645, 537,670, 537,670, 587,645, 587" /> 
<path stroke="rgb(0,255,255)" fill="rgb(0,255,255)" stroke-width="1px" stroke-dasharray="" transform="translate(645,562) rotate(0.000000)"
d="M -0.00000 25.00000 A 25 25 0 0 1 0.00000 -25.00000 " /> 
<path stroke="rgb(102,102,102)" fill="none" stroke-width="1px" stroke-dasharray="" transform="translate(645,562) rotate(0.000000)"
d="M -0.00000 25.00000 A 25 25 0 0 1 0.00000 -25.00000 " /> 
<polyline id="r0"  stroke="rgb(102,102,102)" fill="none" stroke-width="3px" stroke-dasharray="" points="1145, 575,1170, 575" /> 
<polyline id="r0"  stroke="rgb(102,102,102)" fill="none" stroke-width="3px" stroke-dasharray="" points="1170, 587,1170, 562" /> 
<polyline id="r0"  stroke="rgb(102,102,102)" fill="none" stroke-width="3px" stroke-dasharray="" points="495, 712,470, 712" /> 
<polyline id="r0"  stroke="rgb(102,102,102)" fill="none" stroke-width="3px" stroke-dasharray="" points="470, 700,470, 725" /> 
<polyline id="r0"  stroke="rgb(0,0,0)" fill="none" stroke-width="1px" stroke-dasharray="" points="982, 562,982, 562" /> 
<polyline id="r0"  stroke="rgb(0,0,0)" fill="none" stroke-width="1px" stroke-dasharray="" points="982, 612,982, 612" /> 
<polyline id="r0"  stroke="rgb(0,255,255)" fill="rgb(0,255,255)" stroke-width="1px" stroke-dasharray="" points="957, 562,982, 562,982, 612,957, 612,957, 562" /> 
<polyline id="r0"  stroke="rgb(102,102,102)" fill="none" stroke-width="1px" stroke-dasharray="" points="957, 562,982, 562,982, 612,957, 612" /> 
<path stroke="rgb(0,255,255)" fill="rgb(0,255,255)" stroke-width="1px" stroke-dasharray="" transform="translate(957,587) rotate(0.000000)"
d="M -0.00000 25.00000 A 25 25 0 0 1 0.00000 -25.00000 " /> 
<path stroke="rgb(102,102,102)" fill="none" stroke-width="1px" stroke-dasharray="" transform="translate(957,587) rotate(0.000000)"
d="M -0.00000 25.00000 A 25 25 0 0 1 0.00000 -25.00000 " /> 
<polyline id="r0"  stroke="rgb(0,255,255)" fill="rgb(0,255,255)" stroke-width="1px" stroke-dasharray="" points="845, 937,895, 937,895, 1012,845, 1012,845, 937,845, 937" /> 
<polyline id="r0"  stroke="rgb(102,102,102)" fill="none" stroke-width="1px" stroke-dasharray="" points="845, 937,895, 937,895, 1012,845, 1012,845, 937,845, 937" /> 
<polyline id="r0"  stroke="rgb(102,102,102)" fill="none" stroke-width="3px" stroke-dasharray="" points="670, 950,645, 950" /> 
<polyline id="r0"  stroke="rgb(102,102,102)" fill="none" stroke-width="3px" stroke-dasharray="" points="645, 937,645, 962" /> 
<polyline id="r0"  stroke="rgb(0,0,128)" fill="rgb(0,0,128)" stroke-width="1px" stroke-dasharray="" points="82, 470,95, 470,101, 475,95, 480,82, 480,82, 470" /> 
<polyline id="r0"  stroke="rgb(0,0,0)" fill="none" stroke-width="1px" stroke-dasharray="" points="82, 470,95, 470,101, 475,95, 480,82, 480,82, 470" /> 
<polyline id="r0"  stroke="rgb(0,0,128)" fill="rgb(0,0,128)" stroke-width="1px" stroke-dasharray="" points="82, 470,95, 470,101, 475,95, 480,82, 480,82, 470" /> 
<polyline id="r0"  stroke="rgb(0,0,0)" fill="none" stroke-width="1px" stroke-dasharray="" points="82, 470,95, 470,101, 475,95, 480,82, 480,82, 470" /> 
<polyline id="r0"  stroke="rgb(0,0,0)" fill="none" stroke-width="1px" stroke-dasharray="" points="101, 475,107, 475" /> 
<polyline id="r0"  stroke="rgb(0,0,128)" fill="rgb(0,0,128)" stroke-width="1px" stroke-dasharray="" points="57, 358,70, 358,76, 362,70, 367,57, 367,57, 358" /> 
<polyline id="r0"  stroke="rgb(0,0,0)" fill="none" stroke-width="1px" stroke-dasharray="" points="57, 358,70, 358,76, 362,70, 367,57, 367,57, 358" /> 
<polyline id="r0"  stroke="rgb(0,0,128)" fill="rgb(0,0,128)" stroke-width="1px" stroke-dasharray="" points="57, 358,70, 358,76, 362,70, 367,57, 367,57, 358" /> 
<polyline id="r0"  stroke="rgb(0,0,0)" fill="none" stroke-width="1px" stroke-dasharray="" points="57, 358,70, 358,76, 362,70, 367,57, 367,57, 358" /> 
<polyline id="r0"  stroke="rgb(0,0,0)" fill="none" stroke-width="1px" stroke-dasharray="" points="76, 362,82, 362" /> 
<polyline id="r0"  stroke="rgb(0,0,128)" fill="rgb(0,0,128)" stroke-width="1px" stroke-dasharray="" points="82, 245,95, 245,101, 250,95, 255,82, 255,82, 245" /> 
<polyline id="r0"  stroke="rgb(0,0,0)" fill="none" stroke-width="1px" stroke-dasharray="" points="82, 245,95, 245,101, 250,95, 255,82, 255,82, 245" /> 
<polyline id="r0"  stroke="rgb(0,0,128)" fill="rgb(0,0,128)" stroke-width="1px" stroke-dasharray="" points="82, 245,95, 245,101, 250,95, 255,82, 255,82, 245" /> 
<polyline id="r0"  stroke="rgb(0,0,0)" fill="none" stroke-width="1px" stroke-dasharray="" points="82, 245,95, 245,101, 250,95, 255,82, 255,82, 245" /> 
<polyline id="r0"  stroke="rgb(0,0,0)" fill="none" stroke-width="1px" stroke-dasharray="" points="101, 250,107, 250" /> 
<polyline id="r0"  stroke="rgb(0,0,128)" fill="rgb(0,0,128)" stroke-width="1px" stroke-dasharray="" points="82, 270,95, 270,101, 275,95, 280,82, 280,82, 270" /> 
<polyline id="r0"  stroke="rgb(0,0,0)" fill="none" stroke-width="1px" stroke-dasharray="" points="82, 270,95, 270,101, 275,95, 280,82, 280,82, 270" /> 
<polyline id="r0"  stroke="rgb(0,0,128)" fill="rgb(0,0,128)" stroke-width="1px" stroke-dasharray="" points="82, 270,95, 270,101, 275,95, 280,82, 280,82, 270" /> 
<polyline id="r0"  stroke="rgb(0,0,0)" fill="none" stroke-width="1px" stroke-dasharray="" points="82, 270,95, 270,101, 275,95, 280,82, 280,82, 270" /> 
<polyline id="r0"  stroke="rgb(0,0,0)" fill="none" stroke-width="1px" stroke-dasharray="" points="101, 275,107, 275" /> 
<rect id="r0"  stroke="rgb(254,254,179)" fill="rgb(254,254,179)" stroke-width="1px" stroke-dasharray="" y="287px" x="1520px" width="212px" height="13px" rx="0" ry="0" />
<rect id="r0"  stroke="rgb(0,0,0)" fill="none" stroke-width="1px" stroke-dasharray="" y="287px" x="1520px" width="212px" height="13px" rx="0" ry="0" />
<rect id="r0"  stroke="rgb(254,254,179)" fill="rgb(254,254,179)" stroke-width="1px" stroke-dasharray="" y="237px" x="1732px" width="50px" height="13px" rx="0" ry="0" />
<rect id="r0"  stroke="rgb(0,0,0)" fill="none" stroke-width="1px" stroke-dasharray="" y="237px" x="1732px" width="50px" height="13px" rx="0" ry="0" />
<rect id="r0"  stroke="rgb(254,254,179)" fill="rgb(254,254,179)" stroke-width="1px" stroke-dasharray="" y="262px" x="1520px" width="212px" height="13px" rx="0" ry="0" />
<rect id="r0"  stroke="rgb(0,0,0)" fill="none" stroke-width="1px" stroke-dasharray="" y="262px" x="1520px" width="212px" height="13px" rx="0" ry="0" />
<rect id="r0"  stroke="rgb(254,254,179)" fill="rgb(254,254,179)" stroke-width="1px" stroke-dasharray="" y="262px" x="1470px" width="50px" height="13px" rx="0" ry="0" />
<rect id="r0"  stroke="rgb(0,0,0)" fill="none" stroke-width="1px" stroke-dasharray="" y="262px" x="1470px" width="50px" height="13px" rx="0" ry="0" />
<rect id="r0"  stroke="rgb(254,254,179)" fill="rgb(254,254,179)" stroke-width="1px" stroke-dasharray="" y="250px" x="1732px" width="250px" height="50px" rx="0" ry="0" />
<rect id="r0"  stroke="rgb(0,0,0)" fill="none" stroke-width="1px" stroke-dasharray="" y="250px" x="1732px" width="250px" height="50px" rx="0" ry="0" />
<rect id="r0"  stroke="rgb(254,254,179)" fill="rgb(254,254,179)" stroke-width="1px" stroke-dasharray="" y="237px" x="1782px" width="200px" height="13px" rx="0" ry="0" />
<rect id="r0"  stroke="rgb(0,0,0)" fill="none" stroke-width="1px" stroke-dasharray="" y="237px" x="1782px" width="200px" height="13px" rx="0" ry="0" />
<rect id="r0"  stroke="rgb(254,254,179)" fill="rgb(254,254,179)" stroke-width="1px" stroke-dasharray="" y="237px" x="1470px" width="262px" height="25px" rx="0" ry="0" />
<rect id="r0"  stroke="rgb(0,0,0)" fill="none" stroke-width="1px" stroke-dasharray="" y="237px" x="1470px" width="262px" height="25px" rx="0" ry="0" />
<rect id="r0"  stroke="rgb(254,254,179)" fill="rgb(254,254,179)" stroke-width="1px" stroke-dasharray="" y="275px" x="1470px" width="50px" height="12px" rx="0" ry="0" />
<rect id="r0"  stroke="rgb(0,0,0)" fill="none" stroke-width="1px" stroke-dasharray="" y="275px" x="1470px" width="50px" height="12px" rx="0" ry="0" />
<rect id="r0"  stroke="rgb(254,254,179)" fill="rgb(254,254,179)" stroke-width="1px" stroke-dasharray="" y="287px" x="1470px" width="50px" height="13px" rx="0" ry="0" />
<rect id="r0"  stroke="rgb(0,0,0)" fill="none" stroke-width="1px" stroke-dasharray="" y="287px" x="1470px" width="50px" height="13px" rx="0" ry="0" />
<rect id="r0"  stroke="rgb(254,254,179)" fill="rgb(254,254,179)" stroke-width="1px" stroke-dasharray="" y="275px" x="1520px" width="212px" height="12px" rx="0" ry="0" />
<rect id="r0"  stroke="rgb(0,0,0)" fill="none" stroke-width="1px" stroke-dasharray="" y="275px" x="1520px" width="212px" height="12px" rx="0" ry="0" />
<polyline id="r0"  stroke="rgb(0,0,128)" fill="rgb(0,0,128)" stroke-width="1px" stroke-dasharray="" points="1276, 458,1289, 458,1295, 462,1289, 467,1276, 467,1276, 458" /> 
<polyline id="r0"  stroke="rgb(0,0,0)" fill="none" stroke-width="1px" stroke-dasharray="" points="1276, 458,1289, 458,1295, 462,1289, 467,1276, 467,1276, 458" /> 
<polyline id="r0"  stroke="rgb(0,0,128)" fill="rgb(0,0,128)" stroke-width="1px" stroke-dasharray="" points="1276, 458,1289, 458,1295, 462,1289, 467,1276, 467,1276, 458" /> 
<polyline id="r0"  stroke="rgb(0,0,0)" fill="none" stroke-width="1px" stroke-dasharray="" points="1276, 458,1289, 458,1295, 462,1289, 467,1276, 467,1276, 458" /> 
<polyline id="r0"  stroke="rgb(0,0,0)" fill="none" stroke-width="1px" stroke-dasharray="" points="1270, 462,1276, 462" /> 
<polyline id="r0"  stroke="rgb(0,0,128)" fill="rgb(0,0,128)" stroke-width="1px" stroke-dasharray="" points="45, 620,58, 620,64, 625,58, 630,45, 630,45, 620" /> 
<polyline id="r0"  stroke="rgb(0,0,0)" fill="none" stroke-width="1px" stroke-dasharray="" points="45, 620,58, 620,64, 625,58, 630,45, 630,45, 620" /> 
<polyline id="r0"  stroke="rgb(0,0,128)" fill="rgb(0,0,128)" stroke-width="1px" stroke-dasharray="" points="45, 620,58, 620,64, 625,58, 630,45, 630,45, 620" /> 
<polyline id="r0"  stroke="rgb(0,0,0)" fill="none" stroke-width="1px" stroke-dasharray="" points="45, 620,58, 620,64, 625,58, 630,45, 630,45, 620" /> 
<polyline id="r0"  stroke="rgb(0,0,0)" fill="none" stroke-width="1px" stroke-dasharray="" points="64, 625,70, 625" /> 
<a xlink:href='javascript:parent.location.href="../../Computer_Exerccise_2_lib/@c2_@t4_@rightshifter/struct_bd.htm"'>
<rect id="r0"  stroke="rgb(0,255,0)" fill="rgb(0,255,0)" stroke-width="1px" stroke-dasharray="" y="688px" x="171px" width="174px" height="74px" rx="0" ry="0" />
</a>
<rect id="r0"  stroke="rgb(0,128,0)" fill="none" stroke-width="3px" stroke-dasharray="" y="688px" x="171px" width="174px" height="74px" rx="0" ry="0" />
<a xlink:href='javascript:parent.location.href="../../Computer_Exerccise_2_lib/@c2_@t4_@rightshifter/struct_bd.htm"'>
<image xlink:href="BlockDiagram.png" x="173" y="741" width="19" height="18" />
</a>
<polyline id="r0"  stroke="rgb(0,0,128)" fill="rgb(0,0,128)" stroke-width="1px" stroke-dasharray="" points="1176, 945,1189, 945,1195, 950,1189, 955,1176, 955,1176, 945" /> 
<polyline id="r0"  stroke="rgb(0,0,0)" fill="none" stroke-width="1px" stroke-dasharray="" points="1176, 945,1189, 945,1195, 950,1189, 955,1176, 955,1176, 945" /> 
<polyline id="r0"  stroke="rgb(0,0,128)" fill="rgb(0,0,128)" stroke-width="1px" stroke-dasharray="" points="1176, 945,1189, 945,1195, 950,1189, 955,1176, 955,1176, 945" /> 
<polyline id="r0"  stroke="rgb(0,0,0)" fill="none" stroke-width="1px" stroke-dasharray="" points="1176, 945,1189, 945,1195, 950,1189, 955,1176, 955,1176, 945" /> 
<polyline id="r0"  stroke="rgb(0,0,0)" fill="none" stroke-width="1px" stroke-dasharray="" points="1170, 950,1176, 950" /> 
<polyline id="r0"  stroke="rgb(0,0,128)" fill="rgb(0,0,128)" stroke-width="1px" stroke-dasharray="" points="1176, 695,1189, 695,1195, 700,1189, 705,1176, 705,1176, 695" /> 
<polyline id="r0"  stroke="rgb(0,0,0)" fill="none" stroke-width="1px" stroke-dasharray="" points="1176, 695,1189, 695,1195, 700,1189, 705,1176, 705,1176, 695" /> 
<polyline id="r0"  stroke="rgb(0,0,128)" fill="rgb(0,0,128)" stroke-width="1px" stroke-dasharray="" points="1176, 695,1189, 695,1195, 700,1189, 705,1176, 705,1176, 695" /> 
<polyline id="r0"  stroke="rgb(0,0,0)" fill="none" stroke-width="1px" stroke-dasharray="" points="1176, 695,1189, 695,1195, 700,1189, 705,1176, 705,1176, 695" /> 
<polyline id="r0"  stroke="rgb(0,0,0)" fill="none" stroke-width="1px" stroke-dasharray="" points="1170, 700,1176, 700" /> 
<polyline id="r0"  stroke="rgb(0,0,0)" fill="none" stroke-width="1px" stroke-dasharray="" points="101, 475,107, 475" /> 
<polyline id="r0"  stroke="rgb(0,0,0)" fill="none" stroke-width="1px" stroke-dasharray="" points="76, 362,82, 362" /> 
<polyline id="r0"  stroke="rgb(0,0,0)" fill="none" stroke-width="1px" stroke-dasharray="" points="101, 250,107, 250" /> 
<polyline id="r0"  stroke="rgb(0,0,0)" fill="none" stroke-width="1px" stroke-dasharray="" points="101, 275,107, 275" /> 
<polyline id="r0"  stroke="rgb(0,0,0)" fill="none" stroke-width="1px" stroke-dasharray="" points="1270, 462,1276, 462" /> 
<polyline id="r0"  stroke="rgb(0,0,0)" fill="none" stroke-width="1px" stroke-dasharray="" points="64, 625,70, 625" /> 
<polyline id="r0"  stroke="rgb(0,0,0)" fill="none" stroke-width="1px" stroke-dasharray="" points="1170, 950,1176, 950" /> 
<polyline id="r0"  stroke="rgb(0,0,0)" fill="none" stroke-width="1px" stroke-dasharray="" points="1170, 700,1176, 700" /> 
<polyline id="r0"  stroke="rgb(0,0,0)" fill="none" stroke-width="3px" stroke-dasharray="" points="507, 712,520, 712" /> 
<polyline id="r0"  stroke="rgb(0,0,0)" fill="none" stroke-width="3px" stroke-dasharray="" points="495, 712,495, 712" /> 
<polyline id="r0"  stroke="rgb(0,0,0)" fill="none" stroke-width="1px" stroke-dasharray="" points="457, 425,457, 446" /> 
<polyline id="r0"  stroke="rgb(0,0,0)" fill="none" stroke-width="3px" stroke-dasharray="" points="557, 700,545, 700" /> 
<circle id="r0"  stroke="rgb(255,255,255)" fill="rgb(255,255,255)" stroke-width="1px" stroke-dasharray="" cx="136" cy="362" r="5"/> 
<circle stroke="rgb(255,0,0)" fill="none" stroke-width="1px" stroke-dasharray="" cx="136" cy="362" r="5"/> 
<line id="r0" stroke="rgb(0,0,0)" x1="120" y1="362" x2="132" y2="375" stroke-width="1px" />
<circle id="r0"  stroke="rgb(0,0,0)" fill="rgb(0,0,0)" stroke-width="1px" stroke-dasharray="" cx="457" cy="387" r="5"/> 
<circle stroke="rgb(0,0,0)" fill="none" stroke-width="1px" stroke-dasharray="" cx="457" cy="387" r="5"/> 
<circle id="r0"  stroke="rgb(0,0,0)" fill="rgb(0,0,0)" stroke-width="1px" stroke-dasharray="" cx="720" cy="250" r="5"/> 
<circle stroke="rgb(0,0,0)" fill="none" stroke-width="1px" stroke-dasharray="" cx="720" cy="250" r="5"/> 
<circle id="r0"  stroke="rgb(0,0,0)" fill="rgb(0,0,0)" stroke-width="1px" stroke-dasharray="" cx="870" cy="250" r="5"/> 
<circle stroke="rgb(0,0,0)" fill="none" stroke-width="1px" stroke-dasharray="" cx="870" cy="250" r="5"/> 
<circle id="r0"  stroke="rgb(0,0,0)" fill="rgb(0,0,0)" stroke-width="1px" stroke-dasharray="" cx="782" cy="250" r="5"/> 
<circle stroke="rgb(0,0,0)" fill="none" stroke-width="1px" stroke-dasharray="" cx="782" cy="250" r="5"/> 
<circle id="r0"  stroke="rgb(0,0,0)" fill="rgb(0,0,0)" stroke-width="1px" stroke-dasharray="" cx="645" cy="275" r="5"/> 
<circle stroke="rgb(0,0,0)" fill="none" stroke-width="1px" stroke-dasharray="" cx="645" cy="275" r="5"/> 
<polyline id="r0"  stroke="rgb(0,0,0)" fill="none" stroke-width="3px" stroke-dasharray="" points="432, 450,445, 450" /> 
<polyline id="r0"  stroke="rgb(0,0,0)" fill="none" stroke-width="3px" stroke-dasharray="" points="482, 462,470, 462" /> 
<polyline id="r0"  stroke="rgb(0,0,0)" fill="none" stroke-width="3px" stroke-dasharray="" points="432, 475,445, 475" /> 
<a xlink:href='javascript:parent.location.href="../../Computer_Exerccise_2_lib/@c2_@t4_@rightshifter/struct_bd.htm"'>
<polyline id="r0"  stroke="rgb(0,255,0)" fill="rgb(0,255,0)" stroke-width="1px" stroke-dasharray="" points="170, 700,161, 705,161, 695,170, 700" /> 
</a>
<polyline id="r0"  stroke="rgb(0,0,0)" fill="none" stroke-width="1px" stroke-dasharray="" points="170, 700,161, 705,161, 695,170, 700" /> 
<a xlink:href='javascript:parent.location.href="../../Computer_Exerccise_2_lib/@c2_@t4_@rightshifter/struct_bd.htm"'>
<polyline id="r0"  stroke="rgb(0,255,0)" fill="rgb(0,255,0)" stroke-width="1px" stroke-dasharray="" points="354, 700,345, 705,345, 695,354, 700" /> 
</a>
<polyline id="r0"  stroke="rgb(0,0,0)" fill="none" stroke-width="1px" stroke-dasharray="" points="354, 700,345, 705,345, 695,354, 700" /> 
<polyline id="r0"  stroke="rgb(0,0,0)" fill="none" stroke-width="3px" stroke-dasharray="" points="407, 675,420, 675" /> 
<polyline id="r0"  stroke="rgb(0,0,0)" fill="none" stroke-width="3px" stroke-dasharray="" points="457, 687,445, 687" /> 
<polyline id="r0"  stroke="rgb(0,0,0)" fill="none" stroke-width="3px" stroke-dasharray="" points="407, 700,420, 700" /> 
<polyline id="r0"  stroke="rgb(0,0,0)" fill="none" stroke-width="1px" stroke-dasharray="" points="432, 650,432, 671" /> 
<polyline id="r0"  stroke="rgb(0,0,0)" fill="none" stroke-width="3px" stroke-dasharray="" points="507, 687,520, 687" /> 
<polyline id="r0"  stroke="rgb(0,0,0)" fill="none" stroke-width="1px" stroke-dasharray="" points="532, 662,532, 683" /> 
<circle id="r0"  stroke="rgb(0,0,0)" fill="rgb(0,0,0)" stroke-width="1px" stroke-dasharray="" cx="132" cy="700" r="5"/> 
<circle stroke="rgb(0,0,0)" fill="none" stroke-width="1px" stroke-dasharray="" cx="132" cy="700" r="5"/> 
<polyline id="r0"  stroke="rgb(0,0,0)" fill="none" stroke-width="1px" stroke-dasharray="" points="607, 562,620, 562" /> 
<polyline id="r0"  stroke="rgb(0,0,0)" fill="none" stroke-width="1px" stroke-dasharray="" points="682, 575,670, 575" /> 
<polyline id="r0"  stroke="rgb(0,0,0)" fill="none" stroke-width="3px" stroke-dasharray="" points="995, 575,994, 575" /> 
<circle id="r0"  stroke="rgb(255,255,255)" fill="rgb(255,255,255)" stroke-width="1px" stroke-dasharray="" cx="988" cy="575" r="6"/> 
<circle stroke="rgb(0,0,0)" fill="none" stroke-width="1px" stroke-dasharray="" cx="988" cy="575" r="6"/> 
<polyline id="r0"  stroke="rgb(0,0,0)" fill="none" stroke-width="1px" stroke-dasharray="" points="682, 550,670, 550" /> 
<polyline id="r0"  stroke="rgb(0,0,0)" fill="none" stroke-width="3px" stroke-dasharray="" points="995, 462,1007, 462" /> 
<polyline id="r0"  stroke="rgb(0,0,0)" fill="none" stroke-width="3px" stroke-dasharray="" points="1070, 462,1057, 462" /> 
<polyline id="r0"  stroke="rgb(0,0,0)" fill="none" stroke-width="1px" stroke-dasharray="" points="995, 512,1007, 512" /> 
<polyline id="r0"  stroke="rgb(255,255,255)" fill="rgb(255,255,255)" stroke-width="1px" stroke-dasharray="" points="1017, 512,1007, 517,1007, 508,1017, 512" /> 
<polyline id="r0"  stroke="rgb(102,102,102)" fill="none" stroke-width="1px" stroke-dasharray="" points="1017, 512,1007, 517,1007, 508,1017, 512" /> 
<polyline id="r0"  stroke="rgb(0,255,255)" fill="rgb(0,255,255)" stroke-width="1px" stroke-dasharray="" points="1079, 512,1070, 517,1070, 508,1079, 512" /> 
<polyline id="r0"  stroke="rgb(0,0,0)" fill="none" stroke-width="1px" stroke-dasharray="" points="1079, 512,1070, 517,1070, 508,1079, 512" /> 
<polyline id="r0"  stroke="rgb(0,0,0)" fill="none" stroke-width="1px" stroke-dasharray="" points="1070, 512,1067, 512" /> 
<circle id="r0"  stroke="rgb(255,255,255)" fill="rgb(255,255,255)" stroke-width="1px" stroke-dasharray="" cx="1062" cy="512" r="5"/> 
<circle stroke="rgb(102,102,102)" fill="none" stroke-width="1px" stroke-dasharray="" cx="1062" cy="512" r="5"/> 
<polyline id="r0"  stroke="rgb(0,0,0)" fill="none" stroke-width="1px" stroke-dasharray="" points="1032, 437,1032, 439" /> 
<circle id="r0"  stroke="rgb(255,255,255)" fill="rgb(255,255,255)" stroke-width="1px" stroke-dasharray="" cx="1032" cy="444" r="5"/> 
<circle stroke="rgb(102,102,102)" fill="none" stroke-width="1px" stroke-dasharray="" cx="1032" cy="444" r="5"/> 
<circle id="r0"  stroke="rgb(0,0,0)" fill="rgb(0,0,0)" stroke-width="1px" stroke-dasharray="" cx="1070" cy="462" r="5"/> 
<circle stroke="rgb(0,0,0)" fill="none" stroke-width="1px" stroke-dasharray="" cx="1070" cy="462" r="5"/> 
<polyline id="r0"  stroke="rgb(0,0,0)" fill="none" stroke-width="3px" stroke-dasharray="" points="682, 700,695, 700" /> 
<polyline id="r0"  stroke="rgb(0,0,0)" fill="none" stroke-width="3px" stroke-dasharray="" points="757, 700,745, 700" /> 
<polyline id="r0"  stroke="rgb(0,0,0)" fill="none" stroke-width="1px" stroke-dasharray="" points="720, 675,720, 676" /> 
<circle id="r0"  stroke="rgb(255,255,255)" fill="rgb(255,255,255)" stroke-width="1px" stroke-dasharray="" cx="720" cy="681" r="6"/> 
<circle stroke="rgb(102,102,102)" fill="none" stroke-width="1px" stroke-dasharray="" cx="720" cy="681" r="6"/> 
<polyline id="r0"  stroke="rgb(0,0,0)" fill="none" stroke-width="1px" stroke-dasharray="" points="920, 587,932, 587" /> 
<polyline id="r0"  stroke="rgb(0,0,0)" fill="none" stroke-width="3px" stroke-dasharray="" points="995, 600,994, 600" /> 
<circle id="r0"  stroke="rgb(255,255,255)" fill="rgb(255,255,255)" stroke-width="1px" stroke-dasharray="" cx="988" cy="600" r="6"/> 
<circle stroke="rgb(0,0,0)" fill="none" stroke-width="1px" stroke-dasharray="" cx="988" cy="600" r="6"/> 
<polyline id="r0"  stroke="rgb(0,0,0)" fill="none" stroke-width="3px" stroke-dasharray="" points="1145, 575,1145, 575" /> 
<circle id="r0"  stroke="rgb(0,0,0)" fill="rgb(0,0,0)" stroke-width="1px" stroke-dasharray="" cx="1132" cy="700" r="5"/> 
<circle stroke="rgb(0,0,0)" fill="none" stroke-width="1px" stroke-dasharray="" cx="1132" cy="700" r="5"/> 
<circle id="r0"  stroke="rgb(0,0,0)" fill="rgb(0,0,0)" stroke-width="1px" stroke-dasharray="" cx="1132" cy="700" r="5"/> 
<circle stroke="rgb(0,0,0)" fill="none" stroke-width="1px" stroke-dasharray="" cx="1132" cy="700" r="5"/> 
<polyline id="r0"  stroke="rgb(0,0,0)" fill="none" stroke-width="1px" stroke-dasharray="" points="682, 750,695, 750" /> 
<polyline id="r0"  stroke="rgb(255,255,255)" fill="rgb(255,255,255)" stroke-width="1px" stroke-dasharray="" points="704, 750,695, 755,695, 745,704, 750" /> 
<polyline id="r0"  stroke="rgb(102,102,102)" fill="none" stroke-width="1px" stroke-dasharray="" points="704, 750,695, 755,695, 745,704, 750" /> 
<polyline id="r0"  stroke="rgb(0,255,255)" fill="rgb(0,255,255)" stroke-width="1px" stroke-dasharray="" points="767, 750,757, 755,757, 745,767, 750" /> 
<polyline id="r0"  stroke="rgb(0,0,0)" fill="none" stroke-width="1px" stroke-dasharray="" points="767, 750,757, 755,757, 745,767, 750" /> 
<polyline id="r0"  stroke="rgb(0,0,0)" fill="none" stroke-width="1px" stroke-dasharray="" points="757, 750,754, 750" /> 
<circle id="r0"  stroke="rgb(255,255,255)" fill="rgb(255,255,255)" stroke-width="1px" stroke-dasharray="" cx="749" cy="750" r="4"/> 
<circle stroke="rgb(102,102,102)" fill="none" stroke-width="1px" stroke-dasharray="" cx="749" cy="750" r="4"/> 
<polyline id="r0"  stroke="rgb(0,0,0)" fill="none" stroke-width="3px" stroke-dasharray="" points="832, 950,845, 950" /> 
<polyline id="r0"  stroke="rgb(0,0,0)" fill="none" stroke-width="3px" stroke-dasharray="" points="907, 950,895, 950" /> 
<polyline id="r0"  stroke="rgb(0,0,0)" fill="none" stroke-width="1px" stroke-dasharray="" points="832, 1000,845, 1000" /> 
<polyline id="r0"  stroke="rgb(255,255,255)" fill="rgb(255,255,255)" stroke-width="1px" stroke-dasharray="" points="854, 1000,845, 1005,845, 995,854, 1000" /> 
<polyline id="r0"  stroke="rgb(102,102,102)" fill="none" stroke-width="1px" stroke-dasharray="" points="854, 1000,845, 1005,845, 995,854, 1000" /> 
<polyline id="r0"  stroke="rgb(0,255,255)" fill="rgb(0,255,255)" stroke-width="1px" stroke-dasharray="" points="917, 1000,907, 1005,907, 995,917, 1000" /> 
<polyline id="r0"  stroke="rgb(0,0,0)" fill="none" stroke-width="1px" stroke-dasharray="" points="917, 1000,907, 1005,907, 995,917, 1000" /> 
<polyline id="r0"  stroke="rgb(0,0,0)" fill="none" stroke-width="1px" stroke-dasharray="" points="907, 1000,904, 1000" /> 
<circle id="r0"  stroke="rgb(255,255,255)" fill="rgb(255,255,255)" stroke-width="1px" stroke-dasharray="" cx="899" cy="1000" r="4"/> 
<circle stroke="rgb(102,102,102)" fill="none" stroke-width="1px" stroke-dasharray="" cx="899" cy="1000" r="4"/> 
<polyline id="r0"  stroke="rgb(0,0,0)" fill="none" stroke-width="1px" stroke-dasharray="" points="870, 925,870, 926" /> 
<circle id="r0"  stroke="rgb(255,255,255)" fill="rgb(255,255,255)" stroke-width="1px" stroke-dasharray="" cx="870" cy="931" r="6"/> 
<circle stroke="rgb(102,102,102)" fill="none" stroke-width="1px" stroke-dasharray="" cx="870" cy="931" r="6"/> 
<polyline id="r0"  stroke="rgb(0,0,0)" fill="none" stroke-width="3px" stroke-dasharray="" points="670, 950,670, 950" /> 
<text x="345" y="63" font-family="Courier New" fill="rgb(0,0,0)" font-size="10" text-anchor="start">gun_x_coord    : std_logic_vector(7 DOWNTO 0)</text>
<text x="345" y="33" font-family="Courier New" fill="rgb(0,0,0)" font-size="10" text-anchor="start">btn            : std_logic_vector(3 DOWNTO 0)</text>
<text x="345" y="73" font-family="Courier New" fill="rgb(0,0,0)" font-size="10" text-anchor="start">rst_n          : std_logic</text>
<text x="345" y="43" font-family="Courier New" fill="rgb(0,0,0)" font-size="10" text-anchor="start">clk            : std_logic</text>
<text x="345" y="53" font-family="Courier New" fill="rgb(0,0,0)" font-size="10" text-anchor="start">enable         : std_logic</text>
<text x="345" y="93" font-family="Courier New" fill="rgb(0,0,0)" font-size="10" text-anchor="start">bullet_x_coord : std_logic_vector(7 DOWNTO 0)</text>
<text x="345" y="103" font-family="Courier New" fill="rgb(0,0,0)" font-size="10" text-anchor="start">bullet_y_coord : std_logic_vector(7 DOWNTO 0)</text>
<text x="345" y="83" font-family="Courier New" fill="rgb(0,0,0)" font-size="10" text-anchor="start">bullet_color   : std_logic_vector(23 DOWNTO 0)</text>
<text x="345" y="145" font-family="Courier New" fill="rgb(0,0,0)" font-size="10" text-anchor="start">SIGNAL dout           : std_logic_vector(7 DOWNTO 0)</text>
<text x="345" y="205" font-family="Courier New" fill="rgb(0,0,0)" font-size="10" text-anchor="start">SIGNAL y              : std_logic_vector(7 DOWNTO 0)</text>
<text x="345" y="155" font-family="Courier New" fill="rgb(0,0,0)" font-size="10" text-anchor="start">SIGNAL dout1          : std_logic</text>
<text x="345" y="165" font-family="Courier New" fill="rgb(0,0,0)" font-size="10" text-anchor="start">SIGNAL dout2          : std_logic</text>
<text x="345" y="175" font-family="Courier New" fill="rgb(0,0,0)" font-size="10" text-anchor="start">SIGNAL dout3          : std_logic_vector(7 DOWNTO 0)</text>
<text x="345" y="135" font-family="Courier New" fill="rgb(0,0,0)" font-size="10" text-anchor="start">SIGNAL din2           : std_logic_vector(7 DOWNTO 0)</text>
<text x="345" y="185" font-family="Courier New" fill="rgb(0,0,0)" font-size="10" text-anchor="start">SIGNAL dout4          : std_logic_vector(7 DOWNTO 0)</text>
<text x="345" y="195" font-family="Courier New" fill="rgb(0,0,0)" font-size="10" text-anchor="start">SIGNAL dout5          : std_logic_vector(7 DOWNTO 0)</text>
<text x="345" y="125" font-family="Courier New" fill="rgb(0,0,0)" font-size="10" text-anchor="start">SIGNAL d              : std_logic_vector(23 DOWNTO 0)</text>
<text x="82" y="23" font-family="arial" fill="rgb(0,0,0)" font-weight="800" font-size="10" text-anchor="start">Package List</text>
<text x="82" y="35" font-family="arial" fill="rgb(0,0,0)" font-size="10" text-anchor="start">LIBRARY ieee;</text>
<text x="82" y="48" font-family="arial" fill="rgb(0,0,0)" font-size="10" text-anchor="start">USE ieee.std_logic_1164.all;</text>
<text x="82" y="60" font-family="arial" fill="rgb(0,0,0)" font-size="10" text-anchor="start">USE ieee.std_logic_arith.all;</text>
<text x="320" y="10" font-family="arial" fill="rgb(0,0,0)" font-weight="800" font-size="10" text-anchor="start">Declarations</text>
<text x="320" y="23" font-family="arial" fill="rgb(0,0,0)" font-weight="800" font-size="10" text-anchor="start">Ports:</text>
<text x="320" y="115" font-family="arial" fill="rgb(0,0,0)" font-weight="800" font-size="10" text-anchor="start">Diagram Signals:</text>
<text x="70" y="254" font-family="arial" fill="rgb(0,0,0)" font-size="10" text-anchor="end">rst_n</text>
<text x="70" y="279" font-family="arial" fill="rgb(0,0,0)" font-size="10" text-anchor="end">clk</text>
<text x="1522" y="297" font-family="Arial" fill="rgb(0,0,128)" font-size="10" text-anchor="start">by mfhubu on 01 marras 2019</text>
<text x="1735" y="247" font-family="Arial" fill="rgb(0,0,128)" font-size="10" text-anchor="start">Project:</text>
<text x="1522" y="272" font-family="Arial" fill="rgb(0,0,128)" font-size="10" text-anchor="start">&#0060;enter diagram title here&#0062;</text>
<text x="1472" y="272" font-family="Arial" fill="rgb(0,0,128)" font-size="10" text-anchor="start">Title:</text>
<text x="1735" y="262" font-family="Arial" fill="rgb(0,0,128)" font-size="10" text-anchor="start">&#0060;enter comments here&#0062;</text>
<text x="1785" y="247" font-family="Arial" fill="rgb(0,0,128)" font-size="10" text-anchor="start">Computer_Exercise_3</text>
<text x="1601" y="254" font-family="Arial" fill="rgb(127,0,0)" font-size="10" text-anchor="middle">&#0060;company name&#0062;</text>
<text x="1472" y="285" font-family="Arial" fill="rgb(0,0,128)" font-size="10" text-anchor="start">Path:</text>
<text x="1472" y="297" font-family="Arial" fill="rgb(0,0,128)" font-size="10" text-anchor="start">Edited:</text>
<text x="1522" y="285" font-family="Arial" fill="rgb(0,0,128)" font-size="10" text-anchor="start">  &#0060;&#0060;-- more --&#0062;&#0062;</text>
<text x="70" y="479" font-family="arial" fill="rgb(0,0,0)" font-size="10" text-anchor="end">gun_x_coord</text>
<text x="462" y="511" font-family="arial" fill="rgb(0,0,0)" font-size="10" text-anchor="start">mux</text>
<text x="462" y="524" font-family="arial" fill="rgb(0,0,0)" font-size="10" text-anchor="start">U_1</text>
<text x="448" y="481" font-family="arial" fill="rgb(0,0,0)" font-size="10" text-anchor="start">Hi</text>
<text x="449" y="469" font-family="arial" fill="rgb(0,0,0)" font-size="10" text-anchor="start">mux</text>
<text x="45" y="366" font-family="arial" fill="rgb(0,0,0)" font-size="10" text-anchor="end">btn</text>
<text x="447" y="456" font-family="arial" fill="rgb(0,0,0)" font-size="10" text-anchor="start">Lo</text>
<text x="345" y="447" font-family="arial" fill="rgb(0,0,0)" font-size="10" text-anchor="start">bullet_x_coord</text>
<text x="0" y="0" font-family="arial" fill="rgb(0,0,0)" transform="translate(444,417) rotate(270)" font-size="10" >btn(0)</text>
<text x="33" y="629" font-family="arial" fill="rgb(0,0,0)" font-size="10" text-anchor="end">enable</text>
<text x="626" y="591" font-family="arial" fill="rgb(0,0,0)" font-size="10" text-anchor="start">and</text>
<text x="626" y="604" font-family="arial" fill="rgb(0,0,0)" font-size="10" text-anchor="start">U_7</text>
<text x="914" y="616" font-family="arial" fill="rgb(0,0,0)" font-size="10" text-anchor="start">sand</text>
<text x="914" y="629" font-family="arial" fill="rgb(0,0,0)" font-size="10" text-anchor="start">U_8</text>
<text x="707" y="547" font-family="arial" fill="rgb(0,0,0)" font-size="10" text-anchor="start">btn(0)</text>
<text x="1307" y="466" font-family="arial" fill="rgb(0,0,0)" font-size="10" text-anchor="start">bullet_x_coord</text>
<text x="1009" y="467" font-family="arial" fill="rgb(0,0,0)" font-size="10" text-anchor="start">d</text>
<text x="1056" y="467" font-family="arial" fill="rgb(0,0,0)" font-size="10" text-anchor="end">q</text>
<text x="1019" y="512" font-family="arial" fill="rgb(0,0,0)" font-size="10" text-anchor="start">clk</text>
<text x="1056" y="516" font-family="arial" fill="rgb(0,0,0)" font-size="10" text-anchor="end">qb</text>
<text x="1025" y="461" font-family="arial" fill="rgb(0,0,0)" font-size="10" text-anchor="start">rst</text>
<text x="1137" y="599" font-family="arial" fill="rgb(0,0,0)" font-size="10" text-anchor="start">constval</text>
<text x="1137" y="611" font-family="arial" fill="rgb(0,0,0)" font-size="10" text-anchor="start">U_9</text>
<text x="1207" y="954" font-family="arial" fill="rgb(0,0,0)" font-size="10" text-anchor="start">bullet_color</text>
<text x="937" y="836" font-family="arial" fill="rgb(0,0,0)" font-size="10" text-anchor="start">adff</text>
<text x="937" y="849" font-family="arial" fill="rgb(0,0,0)" font-size="10" text-anchor="start">U_0</text>
<text x="846" y="954" font-family="arial" fill="rgb(0,0,0)" font-size="10" text-anchor="start">d</text>
<text x="894" y="954" font-family="arial" fill="rgb(0,0,0)" font-size="10" text-anchor="end">q</text>
<text x="862" y="949" font-family="arial" fill="rgb(0,0,0)" font-size="10" text-anchor="start">rst</text>
<text x="807" y="947" font-family="arial" fill="rgb(0,0,0)" font-size="10" text-anchor="start">d</text>
<text x="462" y="736" font-family="arial" fill="rgb(0,0,0)" font-size="10" text-anchor="start">constval</text>
<text x="462" y="749" font-family="arial" fill="rgb(0,0,0)" font-size="10" text-anchor="start">U_10</text>
<text x="197" y="722" font-family="arial" fill="rgb(0,0,0)" font-weight="800" font-size="10" text-anchor="start">Computer_Exerccise_2_lib</text>
<text x="197" y="735" font-family="arial" fill="rgb(0,0,0)" font-weight="800" font-size="10" text-anchor="start">C2_T4_Rightshifter</text>
<text x="197" y="747" font-family="arial" fill="rgb(0,0,0)" font-weight="800" font-size="10" text-anchor="start">U_3</text>
<text x="182" y="704" font-family="arial" fill="rgb(0,0,0)" font-size="10" text-anchor="start">x : (7:0)</text>
<text x="332" y="704" font-family="arial" fill="rgb(0,0,0)" font-size="10" text-anchor="end">y : (7:0)</text>
<text x="437" y="736" font-family="arial" fill="rgb(0,0,0)" font-size="10" text-anchor="start">mux</text>
<text x="437" y="749" font-family="arial" fill="rgb(0,0,0)" font-size="10" text-anchor="start">U_4</text>
<text x="422" y="681" font-family="arial" fill="rgb(0,0,0)" font-size="10" text-anchor="start">Lo</text>
<text x="423" y="706" font-family="arial" fill="rgb(0,0,0)" font-size="10" text-anchor="start">Hi</text>
<text x="424" y="694" font-family="arial" fill="rgb(0,0,0)" font-size="10" text-anchor="start">mux</text>
<text x="379" y="697" font-family="arial" fill="rgb(0,0,0)" font-size="10" text-anchor="start">y : (7:0)</text>
<text x="73" y="697" font-family="arial" fill="rgb(0,0,0)" font-size="10" text-anchor="start">bullet_y_coord</text>
<text x="320" y="672" font-family="arial" fill="rgb(0,0,0)" font-size="10" text-anchor="start">bullet_y_coord</text>
<text x="737" y="774" font-family="arial" fill="rgb(0,0,0)" font-size="10" text-anchor="start">adff</text>
<text x="737" y="786" font-family="arial" fill="rgb(0,0,0)" font-size="10" text-anchor="start">U_5</text>
<text x="696" y="704" font-family="arial" fill="rgb(0,0,0)" font-size="10" text-anchor="start">d</text>
<text x="744" y="704" font-family="arial" fill="rgb(0,0,0)" font-size="10" text-anchor="end">q</text>
<text x="706" y="749" font-family="arial" fill="rgb(0,0,0)" font-size="10" text-anchor="start">clk</text>
<text x="744" y="754" font-family="arial" fill="rgb(0,0,0)" font-size="10" text-anchor="end">qb</text>
<text x="712" y="699" font-family="arial" fill="rgb(0,0,0)" font-size="10" text-anchor="start">rst</text>
<text x="537" y="749" font-family="arial" fill="rgb(0,0,0)" font-size="10" text-anchor="start">mux</text>
<text x="537" y="761" font-family="arial" fill="rgb(0,0,0)" font-size="10" text-anchor="start">U_6</text>
<text x="522" y="694" font-family="arial" fill="rgb(0,0,0)" font-size="10" text-anchor="start">Lo</text>
<text x="523" y="718" font-family="arial" fill="rgb(0,0,0)" font-size="10" text-anchor="start">Hi</text>
<text x="524" y="706" font-family="arial" fill="rgb(0,0,0)" font-size="10" text-anchor="start">mux</text>
<text x="682" y="672" font-family="arial" fill="rgb(0,0,0)" font-size="10" text-anchor="start">rst_n</text>
<text x="657" y="747" font-family="arial" fill="rgb(0,0,0)" font-size="10" text-anchor="start">clk</text>
<text x="845" y="922" font-family="arial" fill="rgb(0,0,0)" font-size="10" text-anchor="start">rst_n</text>
<text x="1207" y="704" font-family="arial" fill="rgb(0,0,0)" font-size="10" text-anchor="start">bullet_y_coord</text>
<text x="995" y="647" font-family="arial" fill="rgb(0,0,0)" font-size="10" text-anchor="start">bullet_y_coord</text>
<text x="887" y="1024" font-family="arial" fill="rgb(0,0,0)" font-size="10" text-anchor="start">adff</text>
<text x="887" y="1036" font-family="arial" fill="rgb(0,0,0)" font-size="10" text-anchor="start">U_11</text>
<text x="856" y="999" font-family="arial" fill="rgb(0,0,0)" font-size="10" text-anchor="start">clk</text>
<text x="894" y="1004" font-family="arial" fill="rgb(0,0,0)" font-size="10" text-anchor="end">qb</text>
<text x="637" y="974" font-family="arial" fill="rgb(0,0,0)" font-size="10" text-anchor="start">constval</text>
<text x="637" y="986" font-family="arial" fill="rgb(0,0,0)" font-size="10" text-anchor="start">U_12</text>
<text x="795" y="997" font-family="arial" fill="rgb(0,0,0)" font-size="10" text-anchor="start">rst_n</text>
<g id="btn_net" stroke="rgb(0,0,0)" stroke-width="1px"  >
<polyline id="r0"  fill="none"  stroke-dasharray="" points="457, 387,695, 387,695, 550,682, 550" /> 
<polyline id="r0"  fill="none"  stroke-dasharray="" points="82, 362,136, 362" /> 
<polyline id="r0"  fill="none"  stroke-dasharray="" points="132, 375,132, 387,457, 387,457, 425" /> 
</g>
<g id="bullet_color_net" stroke="rgb(0,0,0)" stroke-width="3px"  >
<polyline id="r0"  fill="none"  stroke-dasharray="" points="1170, 950,907, 950" /> 
</g>
<g id="bullet_x_coord_net" stroke="rgb(0,0,0)" stroke-width="3px"  >
<polyline id="r0"  fill="none"  stroke-dasharray="" points="432, 450,382, 450,382, 412,1070, 412,1070, 462" /> 
<polyline id="r0"  fill="none"  stroke-dasharray="" points="1270, 462,1070, 462" /> 
</g>
<g id="bullet_y_coord_net" stroke="rgb(0,0,0)" stroke-width="3px"  >
<polyline id="r0"  fill="none"  stroke-dasharray="" points="161, 700,132, 700,132, 812,1132, 812,1132, 700" /> 
<polyline id="r0"  fill="none"  stroke-dasharray="" points="407, 675,132, 675,132, 700" /> 
<polyline id="r0"  fill="none"  stroke-dasharray="" points="1170, 700,757, 700" /> 
<polyline id="r0"  fill="none"  stroke-dasharray="" points="1132, 700,1132, 600,995, 600" /> 
</g>
<g id="clk_net" stroke="rgb(0,0,0)" stroke-width="1px"  >
<polyline id="r0"  fill="none"  stroke-dasharray="" points="107, 275,945, 275,945, 512,995, 512" /> 
<polyline id="r0"  fill="none"  stroke-dasharray="" points="682, 750,645, 750,645, 275" /> 
</g>
<g id="d_net" stroke="rgb(0,0,0)" stroke-width="3px"  >
<polyline id="r0"  fill="none"  stroke-dasharray="" points="832, 950,670, 950" /> 
</g>
<g id="din2_net" stroke="rgb(0,0,0)" stroke-width="3px"  >
<polyline id="r0"  fill="none"  stroke-dasharray="" points="995, 575,1145, 575" /> 
</g>
<g id="dout_net" stroke="rgb(0,0,0)" stroke-width="3px"  >
<polyline id="r0"  fill="none"  stroke-dasharray="" points="482, 462,995, 462" /> 
</g>
<g id="dout1_net" stroke="rgb(0,0,0)" stroke-width="1px"  >
<polyline id="r0"  fill="none"  stroke-dasharray="" points="920, 587,920, 575,682, 575" /> 
</g>
<g id="dout2_net" stroke="rgb(0,0,0)" stroke-width="1px"  >
<polyline id="r0"  fill="none"  stroke-dasharray="" points="607, 562,532, 562,532, 662" /> 
</g>
<g id="dout3_net" stroke="rgb(0,0,0)" stroke-width="3px"  >
<polyline id="r0"  fill="none"  stroke-dasharray="" points="557, 700,682, 700" /> 
</g>
<g id="dout4_net" stroke="rgb(0,0,0)" stroke-width="3px"  >
<polyline id="r0"  fill="none"  stroke-dasharray="" points="457, 687,507, 687" /> 
</g>
<g id="dout5_net" stroke="rgb(0,0,0)" stroke-width="3px"  >
<polyline id="r0"  fill="none"  stroke-dasharray="" points="495, 712,507, 712" /> 
</g>
<g id="enable_net" stroke="rgb(0,0,0)" stroke-width="1px"  >
<polyline id="r0"  fill="none"  stroke-dasharray="" points="70, 625,432, 625,432, 650" /> 
</g>
<g id="gun_x_coord_net" stroke="rgb(0,0,0)" stroke-width="3px"  >
<polyline id="r0"  fill="none"  stroke-dasharray="" points="107, 475,432, 475" /> 
</g>
<g id="rst_n_net" stroke="rgb(0,0,0)" stroke-width="1px"  >
<polyline id="r0"  fill="none"  stroke-dasharray="" points="107, 250,1032, 250,1032, 437" /> 
<polyline id="r0"  fill="none"  stroke-dasharray="" points="720, 675,720, 250" /> 
<polyline id="r0"  fill="none"  stroke-dasharray="" points="870, 925,870, 250,870, 250" /> 
<polyline id="r0"  fill="none"  stroke-dasharray="" points="832, 1000,782, 1000,782, 250" /> 
</g>
<g id="y_net" stroke="rgb(0,0,0)" stroke-width="3px"  >
<polyline id="r0"  fill="none"  stroke-dasharray="" points="354, 700,407, 700" /> 
</g>
</g>
</svg>
<!-- Create a "titlebox" group so we can reposition it when the SVG moves -->
<g id="titlebox">
<g id="genTime" class="allText normalText">
  <text class="allText smallText" x="300" y="123">Generated on:  1.11.2019 at:  4:14 ip.</text>
</g>

<rect stroke="none" fill="rgb(200,230,240)" opacity="0.4" y="112" x="0" width="914" height="15" />
<!-- Close the "titlebox" group -->
</g>

</g>
</svg>
