<?xml version="1.0" encoding="UTF-8"?>
<!DOCTYPE svg PUBLIC "-//W3C//DTD SVG 1.1//EN" "http://www.w3.org/Graphics/SVG/1.1/DTD/svg11.dtd">
<!-- Created HDS 2004.1a -->


<svg xmlns="http://www.w3.org/2000/svg" xmlns:xlink="http://www.w3.org/1999/xlink" version="1.1">
<script xlink:href="../../scripts/SVGPan.js" />
<g id="viewport" transform="translate(0,-100)">


<title>SVG Image</title>
<desc></desc>


<defs>
<!-- section for CSS stylesheet definitions -->
<style type="text/css"><![CDATA[
.allText {font-family:Sans-Serif;fill:darkcyan;}
.subTitleText {font-size:20;font-weight:bold;}
.normalText {font-size:15;}
.smallText {font-size:12;}
.boldText {font-weight:bold;}
.rightText {text-anchor:end;}
.centerText {text-anchor:middle;}
.dragRect {fill:darkcyan;stroke:none;opacity:0.4;}
]]></style>
<symbol id="upArrow" overflow="visible" style="stroke:darkcyan;fill:darkcyan;stroke-width:1;" pointer-events="none">
<polygon points="5,0 10,5 0,5 5,0" />
</symbol>
<symbol id="leftArrow" overflow="visible" style="stroke:darkcyan;fill:darkcyan;stroke-width:1;" pointer-events="none">
<polygon points="0,5 5,0 5,10 0,5" />
</symbol>
<symbol id="rightArrow" overflow="visible" style="stroke:darkcyan;fill:darkcyan;stroke-width:1;" pointer-events="none">
<polygon points="5,0 10,5 5,10 5,0" />
</symbol>
<symbol id="downArrow" overflow="visible" style="stroke:darkcyan;fill:darkcyan;stroke-width:1;" pointer-events="none">
<polygon points="0,0 5,5 10,0 0,0" />
</symbol>

</defs>
<svg id="mainMap" x="0" y="150" viewBox="0 0 926 617" width="912" height="512">


<clipPath id="SVG_Clip">
<rect x="0" y="0" width="926" height="617" />
</clipPath>
<g id="hds_models" style="clip-path:url(#SVG_Clip)">
<rect id="r0"  stroke="rgb(0,255,0)" fill="rgb(0,255,0)" stroke-width="1px" stroke-dasharray="" y="76px" x="188px" width="249px" height="249px" rx="0" ry="0" />
<rect id="r0"  stroke="rgb(0,128,0)" fill="none" stroke-width="3px" stroke-dasharray="" y="76px" x="188px" width="249px" height="249px" rx="0" ry="0" />
<rect id="r0"  stroke="rgb(254,254,179)" fill="rgb(254,254,179)" stroke-width="1px" stroke-dasharray="" y="600px" x="450px" width="212px" height="12px" rx="0" ry="0" />
<rect id="r0"  stroke="rgb(0,0,0)" fill="none" stroke-width="1px" stroke-dasharray="" y="600px" x="450px" width="212px" height="12px" rx="0" ry="0" />
<rect id="r0"  stroke="rgb(254,254,179)" fill="rgb(254,254,179)" stroke-width="1px" stroke-dasharray="" y="550px" x="662px" width="50px" height="12px" rx="0" ry="0" />
<rect id="r0"  stroke="rgb(0,0,0)" fill="none" stroke-width="1px" stroke-dasharray="" y="550px" x="662px" width="50px" height="12px" rx="0" ry="0" />
<rect id="r0"  stroke="rgb(254,254,179)" fill="rgb(254,254,179)" stroke-width="1px" stroke-dasharray="" y="575px" x="450px" width="212px" height="12px" rx="0" ry="0" />
<rect id="r0"  stroke="rgb(0,0,0)" fill="none" stroke-width="1px" stroke-dasharray="" y="575px" x="450px" width="212px" height="12px" rx="0" ry="0" />
<rect id="r0"  stroke="rgb(254,254,179)" fill="rgb(254,254,179)" stroke-width="1px" stroke-dasharray="" y="575px" x="400px" width="50px" height="12px" rx="0" ry="0" />
<rect id="r0"  stroke="rgb(0,0,0)" fill="none" stroke-width="1px" stroke-dasharray="" y="575px" x="400px" width="50px" height="12px" rx="0" ry="0" />
<rect id="r0"  stroke="rgb(254,254,179)" fill="rgb(254,254,179)" stroke-width="1px" stroke-dasharray="" y="562px" x="662px" width="250px" height="50px" rx="0" ry="0" />
<rect id="r0"  stroke="rgb(0,0,0)" fill="none" stroke-width="1px" stroke-dasharray="" y="562px" x="662px" width="250px" height="50px" rx="0" ry="0" />
<rect id="r0"  stroke="rgb(254,254,179)" fill="rgb(254,254,179)" stroke-width="1px" stroke-dasharray="" y="550px" x="712px" width="200px" height="12px" rx="0" ry="0" />
<rect id="r0"  stroke="rgb(0,0,0)" fill="none" stroke-width="1px" stroke-dasharray="" y="550px" x="712px" width="200px" height="12px" rx="0" ry="0" />
<rect id="r0"  stroke="rgb(254,254,179)" fill="rgb(254,254,179)" stroke-width="1px" stroke-dasharray="" y="550px" x="400px" width="262px" height="25px" rx="0" ry="0" />
<rect id="r0"  stroke="rgb(0,0,0)" fill="none" stroke-width="1px" stroke-dasharray="" y="550px" x="400px" width="262px" height="25px" rx="0" ry="0" />
<rect id="r0"  stroke="rgb(254,254,179)" fill="rgb(254,254,179)" stroke-width="1px" stroke-dasharray="" y="587px" x="400px" width="50px" height="13px" rx="0" ry="0" />
<rect id="r0"  stroke="rgb(0,0,0)" fill="none" stroke-width="1px" stroke-dasharray="" y="587px" x="400px" width="50px" height="13px" rx="0" ry="0" />
<rect id="r0"  stroke="rgb(254,254,179)" fill="rgb(254,254,179)" stroke-width="1px" stroke-dasharray="" y="600px" x="400px" width="50px" height="12px" rx="0" ry="0" />
<rect id="r0"  stroke="rgb(0,0,0)" fill="none" stroke-width="1px" stroke-dasharray="" y="600px" x="400px" width="50px" height="12px" rx="0" ry="0" />
<rect id="r0"  stroke="rgb(254,254,179)" fill="rgb(254,254,179)" stroke-width="1px" stroke-dasharray="" y="587px" x="450px" width="212px" height="13px" rx="0" ry="0" />
<rect id="r0"  stroke="rgb(0,0,0)" fill="none" stroke-width="1px" stroke-dasharray="" y="587px" x="450px" width="212px" height="13px" rx="0" ry="0" />
<polyline id="r0"  stroke="rgb(0,255,0)" fill="rgb(0,255,0)" stroke-width="1px" stroke-dasharray="" points="187, 87,178, 92,178, 83,187, 87" /> 
<polyline id="r0"  stroke="rgb(0,0,0)" fill="none" stroke-width="1px" stroke-dasharray="" points="187, 87,178, 92,178, 83,187, 87" /> 
<polyline id="r0"  stroke="rgb(0,255,0)" fill="rgb(0,255,0)" stroke-width="1px" stroke-dasharray="" points="187, 100,178, 105,178, 95,187, 100" /> 
<polyline id="r0"  stroke="rgb(0,0,0)" fill="none" stroke-width="1px" stroke-dasharray="" points="187, 100,178, 105,178, 95,187, 100" /> 
<polyline id="r0"  stroke="rgb(0,255,0)" fill="rgb(0,255,0)" stroke-width="1px" stroke-dasharray="" points="187, 112,178, 117,178, 108,187, 112" /> 
<polyline id="r0"  stroke="rgb(0,0,0)" fill="none" stroke-width="1px" stroke-dasharray="" points="187, 112,178, 117,178, 108,187, 112" /> 
<polyline id="r0"  stroke="rgb(0,255,0)" fill="rgb(0,255,0)" stroke-width="1px" stroke-dasharray="" points="187, 125,178, 130,178, 120,187, 125" /> 
<polyline id="r0"  stroke="rgb(0,0,0)" fill="none" stroke-width="1px" stroke-dasharray="" points="187, 125,178, 130,178, 120,187, 125" /> 
<polyline id="r0"  stroke="rgb(0,255,0)" fill="rgb(0,255,0)" stroke-width="1px" stroke-dasharray="" points="187, 137,178, 142,178, 133,187, 137" /> 
<polyline id="r0"  stroke="rgb(0,0,0)" fill="none" stroke-width="1px" stroke-dasharray="" points="187, 137,178, 142,178, 133,187, 137" /> 
<polyline id="r0"  stroke="rgb(0,255,0)" fill="rgb(0,255,0)" stroke-width="1px" stroke-dasharray="" points="447, 87,437, 92,437, 83,447, 87" /> 
<polyline id="r0"  stroke="rgb(0,0,0)" fill="none" stroke-width="1px" stroke-dasharray="" points="447, 87,437, 92,437, 83,447, 87" /> 
<polyline id="r0"  stroke="rgb(0,255,0)" fill="rgb(0,255,0)" stroke-width="1px" stroke-dasharray="" points="447, 100,437, 105,437, 95,447, 100" /> 
<polyline id="r0"  stroke="rgb(0,0,0)" fill="none" stroke-width="1px" stroke-dasharray="" points="447, 100,437, 105,437, 95,447, 100" /> 
<polyline id="r0"  stroke="rgb(0,255,0)" fill="rgb(0,255,0)" stroke-width="1px" stroke-dasharray="" points="447, 112,437, 117,437, 108,447, 112" /> 
<polyline id="r0"  stroke="rgb(0,0,0)" fill="none" stroke-width="1px" stroke-dasharray="" points="447, 112,437, 117,437, 108,447, 112" /> 
<text x="452" y="610" font-family="Arial" fill="rgb(0,0,128)" font-size="10" text-anchor="start">by mfhubu on 01 marras 2019</text>
<text x="452" y="585" font-family="Arial" fill="rgb(0,0,128)" font-size="10" text-anchor="start">&#0060;enter diagram title here&#0062;</text>
<text x="452" y="597" font-family="Arial" fill="rgb(0,0,128)" font-size="10" text-anchor="start">  &#0060;&#0060;-- more --&#0062;&#0062;</text>
<text x="0" y="10" font-family="arial" fill="rgb(0,0,0)" font-weight="800" font-size="10" text-anchor="start">Package List</text>
<text x="0" y="22" font-family="arial" fill="rgb(0,0,0)" font-size="10" text-anchor="start">LIBRARY ieee;</text>
<text x="0" y="35" font-family="arial" fill="rgb(0,0,0)" font-size="10" text-anchor="start">USE ieee.std_logic_1164.all;</text>
<text x="0" y="47" font-family="arial" fill="rgb(0,0,0)" font-size="10" text-anchor="start">USE ieee.std_logic_arith.all;</text>
<text x="277" y="197" font-family="arial" fill="rgb(0,0,0)" font-weight="800" font-size="10" text-anchor="start">Computer_Exercise_3_lib</text>
<text x="277" y="210" font-family="arial" fill="rgb(0,0,0)" font-weight="800" font-size="10" text-anchor="start">C3_T4_Bullet</text>
<text x="0" y="157" font-family="Courier New" fill="rgb(0,0,0)" font-size="10" text-anchor="start">Generic Declarations</text>
<text x="200" y="91" font-family="arial" fill="rgb(0,0,0)" font-size="10" text-anchor="start">gun_x_coord : (7:0)</text>
<text x="200" y="104" font-family="arial" fill="rgb(0,0,0)" font-size="10" text-anchor="start">btn : (3:0)</text>
<text x="200" y="116" font-family="arial" fill="rgb(0,0,0)" font-size="10" text-anchor="start">rst_n</text>
<text x="200" y="129" font-family="arial" fill="rgb(0,0,0)" font-size="10" text-anchor="start">clk</text>
<text x="200" y="141" font-family="arial" fill="rgb(0,0,0)" font-size="10" text-anchor="start">enable</text>
<text x="425" y="91" font-family="arial" fill="rgb(0,0,0)" font-size="10" text-anchor="end">bullet_x_coord : (7:0)</text>
<text x="425" y="104" font-family="arial" fill="rgb(0,0,0)" font-size="10" text-anchor="end">bullet_y_coord : (7:0)</text>
<text x="425" y="116" font-family="arial" fill="rgb(0,0,0)" font-size="10" text-anchor="end">bullet_color : (23:0)</text>
<text x="525" y="10" font-family="arial" fill="rgb(0,0,0)" font-weight="800" font-size="10" text-anchor="start">Declarations</text>
<text x="525" y="22" font-family="arial" fill="rgb(0,0,0)" font-weight="800" font-size="10" text-anchor="start">Ports:</text>
<text x="525" y="115" font-family="arial" fill="rgb(0,0,0)" font-weight="800" font-size="10" text-anchor="start">User:</text>
<text x="550" y="62" font-family="Courier New" fill="rgb(0,0,0)" font-size="10" text-anchor="start">gun_x_coord    : IN     std_logic_vector (7 DOWNTO 0) ;</text>
<text x="550" y="32" font-family="Courier New" fill="rgb(0,0,0)" font-size="10" text-anchor="start">btn            : IN     std_logic_vector (3 DOWNTO 0) ;</text>
<text x="550" y="72" font-family="Courier New" fill="rgb(0,0,0)" font-size="10" text-anchor="start">rst_n          : IN     std_logic  ;</text>
<text x="550" y="42" font-family="Courier New" fill="rgb(0,0,0)" font-size="10" text-anchor="start">clk            : IN     std_logic  ;</text>
<text x="550" y="52" font-family="Courier New" fill="rgb(0,0,0)" font-size="10" text-anchor="start">enable         : IN     std_logic  ;</text>
<text x="550" y="92" font-family="Courier New" fill="rgb(0,0,0)" font-size="10" text-anchor="start">bullet_x_coord : OUT    std_logic_vector (7 DOWNTO 0) ;</text>
<text x="550" y="102" font-family="Courier New" fill="rgb(0,0,0)" font-size="10" text-anchor="start">bullet_y_coord : OUT    std_logic_vector (7 DOWNTO 0)</text>
<text x="550" y="82" font-family="Courier New" fill="rgb(0,0,0)" font-size="10" text-anchor="start">bullet_color   : OUT    std_logic_vector (23 DOWNTO 0) ;</text>
<text x="402" y="585" font-family="Arial" fill="rgb(0,0,128)" font-size="10" text-anchor="start">Title:</text>
<text x="402" y="597" font-family="Arial" fill="rgb(0,0,128)" font-size="10" text-anchor="start">Path:</text>
<text x="402" y="610" font-family="Arial" fill="rgb(0,0,128)" font-size="10" text-anchor="start">Edited:</text>
<text x="665" y="560" font-family="Arial" fill="rgb(0,0,128)" font-size="10" text-anchor="start">Project:</text>
<text x="665" y="575" font-family="Arial" fill="rgb(0,0,128)" font-size="10" text-anchor="start">&#0060;enter comments here&#0062;</text>
<text x="715" y="560" font-family="Arial" fill="rgb(0,0,128)" font-size="10" text-anchor="start">Computer_Exercise_3</text>
<text x="531" y="566" font-family="Arial" fill="rgb(127,0,0)" font-size="10" text-anchor="middle">&#0060;company name&#0062;</text>
</g>
</svg>
<!-- Create a "titlebox" group so we can reposition it when the SVG moves -->
<g id="titlebox">
<g id="genTime" class="allText normalText">
  <text class="allText smallText" x="300" y="123">Generated on:  1.11.2019 at:  4:14 ip.</text>
</g>

<rect stroke="none" fill="rgb(200,230,240)" opacity="0.4" y="112" x="0" width="914" height="15" />
<!-- Close the "titlebox" group -->
</g>

</g>
</svg>
